<svg width="237" height="367" viewBox="0 0 237 367" fill="none" xmlns="http://www.w3.org/2000/svg">
<g opacity="0.5">
<path d="M214.314 315.458C214 312.887 213.207 310.508 211.675 308.389C210.465 306.715 209.995 304.789 209.998 302.726C209.999 301.613 209.943 300.501 209.91 299.389C209.813 296.107 208.559 293.296 206.234 291.065C204.808 289.697 203.151 288.565 201.551 287.392C200.305 286.477 198.944 285.718 197.71 284.787C196.193 283.641 195.48 282.065 195.667 280.124C195.709 279.681 195.791 279.24 195.818 278.796C196.218 272.212 189.963 266.614 183.869 267.554C182.886 267.705 181.901 267.881 180.911 267.937C180.293 267.973 179.664 267.803 178.84 267.701C179.148 267.198 179.245 266.847 179.472 266.7C184.519 263.41 189.945 260.943 195.876 259.088C196.199 259.42 196.613 259.766 196.931 260.185C201.102 265.679 205.817 270.671 210.781 275.432C214.298 278.807 217.834 282.162 221.393 285.491C221.933 285.996 222.646 286.314 223.279 286.718C223.478 286.079 223.677 285.441 223.876 284.802C223.577 284.666 223.216 284.597 222.986 284.385C220.475 282.071 217.904 279.815 215.51 277.274C218.33 271.412 221.416 265.837 222.193 259.473C223.146 259.376 223.231 260.029 223.409 260.478C224.593 263.476 225.731 266.493 226.908 269.495C227.179 270.187 227.176 271.07 228.06 271.39C228.326 270.538 228.592 269.687 228.857 268.836C227.425 265.253 225.988 261.672 224.572 258.083C224.505 257.912 224.623 257.666 224.679 257.289C227.021 258.164 229.333 259.029 231.646 259.894C231.779 259.468 231.912 259.043 232.045 258.617C229.345 257.97 226.898 256.723 224.463 255.435C223.545 254.95 222.866 254.299 222.455 253.338C220.891 249.679 219.309 246.027 217.753 242.365C217.682 242.199 217.79 241.955 217.844 241.506C218.97 242.012 220.031 242.511 221.109 242.97C225.776 244.96 230.555 246.562 235.63 247.121C235.697 246.908 235.763 246.695 235.83 246.482C234.688 246.086 233.557 245.658 232.403 245.3C229.664 244.451 226.896 243.693 224.179 242.784C222.723 242.297 221.338 241.592 219.936 240.953C217.299 239.751 215.529 237.855 214.612 234.984C213.264 230.761 211.626 226.633 210.153 222.451C209.873 221.658 209.783 220.797 209.55 219.708C211.418 220.294 212.958 220.858 214.54 221.255C217.446 221.986 220.429 222.079 223.409 222.088C226.385 222.098 229.364 221.989 232.338 222.053C234.539 222.101 236.744 222.263 238.929 222.524C240.331 222.692 241.8 222.897 242.802 224.129C243.334 222.425 243.865 220.722 244.396 219.019C244.27 218.029 244.143 217.039 244.019 216.049C243.784 214.172 243.618 212.282 243.305 210.419C240.577 194.158 231.404 182.767 217.108 175.245C214.25 173.741 211.229 172.693 208.156 171.753C206.309 171.187 206.322 171.145 205.45 168.617C207.135 166.698 208.854 164.672 210.92 163.016C214.907 159.821 218.909 156.641 223.006 153.593C231.671 147.148 240.817 141.479 250.445 136.608C256.69 133.449 263.135 130.771 269.706 128.399C270.719 128.033 271.822 127.921 272.884 127.691C273.149 126.839 273.415 125.987 273.681 125.136C262.619 128.536 252.145 133.307 242.06 138.978C231.588 144.868 221.802 151.788 212.425 159.292C209.66 161.504 207.193 164.097 204.599 166.526C203.729 167.341 203.238 168.287 203.776 169.505C204.018 170.336 204.259 171.166 204.486 171.946C203.423 170.808 203.423 170.808 203.838 169.468C202.59 169.23 201.627 169.517 200.707 170.591C195.143 177.089 189.491 183.509 183.89 189.974C182.654 191.401 181.516 192.914 180.309 194.367C180.042 194.688 179.671 194.922 179.139 195.373C178.501 194.145 177.955 193.093 177.372 191.971C177.951 191.148 178.417 190.405 178.961 189.726C189.5 176.572 201.307 164.713 214.568 154.333C215.504 153.6 216.682 153.085 217.194 151.788C216.329 150.871 215.172 150.461 214.125 149.876C212.967 149.23 211.778 148.624 210.697 147.864C210.206 147.519 209.751 146.891 209.61 146.31C208.93 143.498 206.818 141.852 204.75 140.231C204.025 139.663 202.903 139.421 201.947 139.38C200.141 139.301 198.843 138.439 197.618 137.242C195.242 134.92 192.777 132.689 190.424 130.345C182.569 122.524 174.469 114.99 165.54 108.405C165.192 108.148 164.9 107.812 164.431 107.371C165.685 106.888 166.699 107.035 167.658 107.636C168.406 108.106 169.118 108.635 169.843 109.141C178.837 115.42 187.29 122.373 195.341 129.831C198.752 132.99 202.18 136.132 205.659 139.215C209.233 142.382 213.086 145.158 217.425 147.196C217.825 147.384 218.211 147.604 218.615 147.783C221.533 149.075 221.559 149.021 224.359 147.222C228.558 144.524 232.78 141.862 237.041 139.266C238.199 138.561 239.209 137.773 239.976 136.662C239.822 136.646 239.667 136.63 239.512 136.614C239.581 136.661 239.656 136.752 239.718 136.744C239.804 136.733 239.881 136.647 239.964 136.583C240.227 136.717 240.552 137.042 240.739 136.974C241.663 136.638 242.568 136.234 243.449 135.792C253.406 130.801 263.655 126.541 274.278 123.219C274.477 122.581 274.677 121.942 274.876 121.303C271.503 122.34 268.066 123.206 264.768 124.446C256.882 127.411 249.148 130.755 241.637 134.604C241.353 134.75 241.017 134.792 240.539 134.931C239.301 133.461 239.074 131.987 239.876 130.109C242.942 122.934 245.631 115.61 247.65 108.064C249.552 100.959 251.216 93.7935 251.766 86.4329C251.906 84.5597 251.908 82.6279 251.615 80.7813C250.938 76.5006 250.272 72.1949 249.193 68.0073C245.313 52.9505 236.932 41.0408 224.085 32.3743C219.958 29.5904 215.781 26.8873 211.283 24.7252C211.012 24.5947 210.837 24.2619 210.617 24.0233C208.293 23.2946 205.97 22.5661 203.647 21.8374C208.88 32.6763 211.896 44.1009 212.602 56.1574C213.167 65.8138 211.951 75.2677 209.696 84.6427C208.759 88.5363 208.127 92.5034 207.364 96.4386C207.279 96.8754 207.234 97.3209 207.19 97.7642C206.306 106.846 209.207 114.398 216.065 120.4C220.676 124.435 225.789 127.715 231.058 130.778C231.536 131.056 232.021 131.322 232.504 131.593C235.682 133.374 235.682 133.374 236.478 137.193C236.098 137.477 235.683 137.83 235.227 138.119C231.289 140.616 227.305 143.04 223.423 145.624C222.065 146.528 220.9 146.652 219.427 146.037C216.13 144.659 213.097 142.833 210.337 140.602C207.24 138.097 204.235 135.467 201.3 132.769C194.364 126.396 187.468 119.98 179.956 114.283C177.574 112.477 175.167 110.705 172.777 108.909C172.352 108.59 171.954 108.235 171.494 107.856C172.142 107.193 172.604 107.654 172.965 107.895C174.972 109.24 177.167 109.232 179.361 108.697C182.6 107.907 185.715 106.728 188.618 105.052C192.754 102.664 194.771 99.0605 194.514 94.2597C194.418 92.4848 194.139 90.72 193.93 88.9523C193.571 85.9139 194.017 84.9944 196.624 83.5134C197.203 83.1844 197.803 82.8955 198.388 82.5774C200.843 81.2424 202.451 79.1951 203.424 76.5866C204.37 74.0486 204.832 71.4195 204.842 68.7296C204.858 64.588 205.288 60.5089 206.238 56.4714C206.488 55.4082 206.536 54.258 206.458 53.1645C206.305 51.0068 205.265 49.2405 203.258 48.4582C200.893 47.5364 199.174 45.8653 197.411 44.1805C194.403 41.3041 190.824 40.2368 186.732 40.8849C184.359 41.261 182.331 42.3648 180.6 44.0134C179.394 45.1625 178.245 46.3742 177.075 47.5615C175.814 48.842 174.422 49.9347 172.722 50.5601C172.339 50.7007 171.915 50.7243 171.476 50.8081C171.536 47.9887 172.263 45.3981 173.774 42.5012C174.185 41.7121 174.652 40.9493 175.025 40.1428C175.943 38.1582 176.318 36.1048 175.545 33.983C174.933 32.2999 174.934 30.8124 176.236 29.3446C176.766 28.7466 176.834 27.7014 177.026 26.8403C177.267 25.7601 177.304 24.6237 177.635 23.577C178.189 21.8222 177.83 20.2884 176.886 18.8124C175.456 16.576 174.028 14.3378 172.599 12.1004C171.543 11.7692 170.488 11.438 169.431 11.1068C170.368 12.4328 171.305 13.7588 172.322 15.1989C171.415 16.9727 170.609 18.6725 169.695 20.3113C165.247 28.2915 160.511 36.0786 154.903 43.3152C151.209 48.0814 148.26 53.3211 145.945 58.9103C145.69 59.5266 145.386 60.1248 145.068 60.711C144.973 60.8874 144.752 60.9962 144.401 61.2972C144.322 59.993 144.423 58.8571 144.619 57.7129C145.55 52.2606 147.397 47.1492 150.402 42.5068C152.518 39.2387 154.743 36.0409 156.976 32.8525C160.749 27.468 164.402 22.0138 166.972 15.9181C167.661 14.2824 168.194 12.5802 168.798 10.9081C168.376 10.7757 167.953 10.6431 167.531 10.5107C166.143 15.6065 163.702 20.2119 160.924 24.6467C158.158 29.0615 155.168 33.3208 151.673 37.2458C153.349 34.2723 154.975 31.2695 156.71 28.3315C159.816 23.0708 162.915 17.8044 165.04 12.0481C165.415 11.0345 166.355 10.9627 166.897 10.312C164.152 9.45088 161.406 8.58974 158.66 7.72861C157.941 7.9464 157.233 8.21627 156.501 8.37273C151.763 9.38596 151.242 9.82402 150.515 14.5637C150.238 16.3706 149.362 17.3959 147.715 17.8707C146.118 18.331 144.505 18.7325 142.906 19.1839C140.277 19.9263 138.809 21.7132 138.39 24.3952C138.166 25.8268 137.971 27.2635 137.801 28.7025C137.606 30.3626 136.792 31.6312 135.455 32.5747C134.821 33.0223 134.173 33.4614 133.492 33.8307C130.498 35.4539 129.032 38.0517 128.649 41.3668C128.554 42.1858 128.422 43.0002 128.272 44.0666C127.828 43.5811 127.605 43.3462 127.392 43.1026C125.473 40.9126 124.719 40.7868 122.337 42.2448C121.77 42.5917 121.222 43.0218 120.604 43.2221C117.323 44.2846 115.278 46.6709 113.599 49.5444C112.876 50.782 112.066 52.0585 111.011 52.9926C108.405 55.3026 106.179 57.8809 104.368 60.8612C103.684 61.9858 102.8 63.0172 101.341 63.3914C99.5212 62.4659 98.0781 61.0909 96.7054 59.6642C95.5744 58.4887 95.748 57.2691 97.0658 56.2472C97.4998 55.9107 98.0185 55.687 98.4872 55.3938C99.9269 54.494 100.265 53.5262 99.5936 52.0677C98.9697 50.7117 98.0237 49.6561 96.6099 49.0871C95.1516 48.5006 93.9966 48.9216 93.3474 50.4075C93.0416 51.1073 92.9726 51.909 92.7544 52.652C92.6792 52.9079 92.4771 53.1264 92.2721 53.4607C91.6493 51.4804 91.6106 51.3687 92.0885 50.2155C92.4715 49.2912 92.9945 48.4252 93.3782 47.5007C94.1103 45.7367 93.6742 44.5079 91.9905 43.6328C90.8972 43.0645 89.7313 42.7453 88.4679 42.9423C86.9219 43.1831 86.0733 44.0587 86.0522 45.621C86.0406 46.4757 86.1842 47.3319 86.2731 48.3638C85.2104 47.8705 84.3492 47.4011 83.4383 47.0671C82.4904 46.7198 81.7099 47.0485 81.1819 47.9535C80.1477 49.7265 80.1165 51.558 81.0286 53.3768C81.4569 54.231 82.1442 54.7439 83.178 54.5819C84.6056 54.358 86.0428 54.1501 87.4432 54.6713C87.9198 54.8486 88.5248 55.0069 88.4533 55.7398C88.3539 55.817 88.2715 55.9346 88.1939 55.9314C87.8714 55.9186 87.5513 55.8512 87.2286 55.8369C85.7513 55.7715 85.0617 56.299 85.1234 57.6458C85.163 58.5119 85.3738 59.4049 85.6899 60.2132C86.1006 61.2637 86.8288 62.1172 87.8753 62.6246C88.7848 63.0662 89.599 62.6386 90.4174 62.3027C91.6336 61.8036 92.8278 61.8948 93.9238 62.5688C94.9296 63.1873 95.7903 63.9871 96.3316 64.9415C94.5111 66.2053 92.7459 67.1741 91.305 68.5001C89.7028 69.9745 88.1003 71.1557 85.8786 71.4511C83.7501 71.7338 82.1282 72.8971 81.5102 75.0534C80.7636 77.6576 79.257 79.1795 76.5248 79.7455C74.4455 80.1764 73.4414 81.916 73.5092 84.0161C73.5476 85.2031 73.8145 86.4808 74.3423 87.5312C75.3872 89.6092 76.626 91.5971 77.9035 93.5431C78.5032 94.4568 79.3107 95.2668 80.1422 95.9848C82.5461 98.0597 85.3153 98.9107 88.4688 98.1716C89.6542 97.8936 90.8131 97.4842 92.007 97.2615C93.1944 97.0399 94.4241 96.7977 95.6117 96.8825C98.1509 97.0634 100.637 97.5202 102.922 98.8156C105.23 100.124 107.625 101.278 109.965 102.531C110.28 102.701 110.898 102.739 110.62 103.565C110.288 103.65 109.888 103.81 109.479 103.845C108.267 103.946 107.05 103.993 105.836 104.071C102.839 104.262 100.222 105.166 98.4002 107.806C96.9553 109.899 94.9938 110.502 92.5749 109.594C90.5499 108.834 88.6224 109.182 86.9362 110.519C85.1851 111.907 83.2007 112.364 81.0376 112.384C79.9349 112.395 78.8217 112.473 77.7337 112.65C75.332 113.039 73.7123 114.375 73.0386 116.797C72.2731 119.548 72.1014 122.279 73.1487 124.999C73.4283 125.725 73.6894 126.459 73.9331 127.199C74.3055 128.328 74.1844 129.384 73.4551 130.363C72.9238 131.075 72.3519 131.778 71.9456 132.562C70.9668 134.45 70.9908 136.428 71.697 138.395C72.3059 140.091 73.4581 141.189 75.2809 141.484C75.4972 141.519 75.7118 141.594 75.9136 141.681C77.5465 142.39 77.9822 144.206 76.7758 145.48C76.1682 146.121 75.4471 146.656 74.7622 147.219C73.486 148.27 72.8707 149.666 72.6527 151.266C72.2203 154.44 74.1337 157.63 77.2894 158.978C80.4116 160.311 83.6314 160.228 86.6861 158.99C90.2737 157.536 93.7842 155.846 97.1979 154.011C99.8898 152.564 101.43 150.172 101.608 146.981C101.695 145.429 101.845 143.858 102.195 142.349C102.77 139.872 103.796 139.071 106.319 138.769C106.648 138.73 106.987 138.767 107.312 138.713C110.176 138.243 112.029 136.265 112.337 133.303C112.43 132.418 112.345 131.515 112.448 130.632C112.564 129.645 112.672 128.625 113.011 127.703C113.617 126.056 114.803 124.898 116.882 123.842C113.509 129.605 112.604 135.14 114.591 140.998C115.165 142.689 114.799 144.29 114.142 145.873C113.131 148.304 111.659 150.324 109.348 151.685C108.205 152.357 107.056 153.075 106.076 153.96C104.501 155.382 103.659 157.205 104.291 159.359C104.875 161.345 106.557 162.064 108.397 162.195C110.375 162.337 112.032 163.034 113.486 164.333C114.587 165.317 115.867 165.509 117.204 164.984C119.179 164.207 121.107 164.504 123.068 164.996C124.567 165.371 126.076 165.765 127.606 165.936C129.786 166.18 131.99 165.937 134.162 166.643C135.642 167.125 136.636 166.428 137.382 164.967C137.73 164.285 137.995 163.56 138.311 162.823C138.956 162.772 139.498 162.727 140.041 162.688C142.647 162.503 143.301 161.58 142.683 158.998C142.457 158.056 141.777 157.171 142.331 156.029C143.433 155.018 144.934 155.041 146.325 154.879C148.575 154.618 150.678 154.018 152.505 152.651C155.257 150.593 157.997 148.516 160.688 146.376C161.459 145.763 162.101 144.955 162.702 144.159C165.496 140.459 166.608 136.447 164.835 131.941C164.753 131.735 164.699 131.517 164.615 131.311C163.925 129.633 164.027 128.139 165.257 126.65C166.805 124.777 166.936 122.537 166.15 120.32C165.674 118.974 164.955 117.703 164.244 116.458C163.047 114.364 162.458 111.422 162.865 108.854C174.623 116.969 184.432 127.251 194.67 137.039C195.121 137.47 195.496 137.981 195.869 138.411C195.686 138.68 195.633 138.833 195.571 138.837C194.142 138.926 192.711 138.991 191.281 139.08C190.514 139.127 189.722 139.11 188.988 139.302C188.022 139.555 187.312 140.603 187.278 141.548C187.24 142.572 187.787 143.504 188.821 143.881C189.535 144.141 190.315 144.239 191.074 144.357C195.436 145.033 199.821 145.485 204.048 146.975C206.147 147.715 208.218 148.357 210.046 149.667C210.851 150.245 211.771 150.661 212.609 151.197C213.044 151.475 213.414 151.854 213.961 152.31C212.967 153.153 212.123 153.855 211.292 154.573C206.751 158.495 202.035 162.234 197.713 166.389C190.499 173.326 183.743 180.718 177.466 188.541C177.079 189.024 176.552 189.392 176.048 189.853C173.827 188.05 171.476 187.177 168.833 187.34C165.753 187.532 162.934 186.679 160.163 185.463C158.749 184.844 157.3 184.257 155.812 183.865C150.654 182.509 145.695 183.276 140.989 185.692C137.016 187.732 132.915 189.361 128.531 190.224C128.097 190.309 127.675 190.453 127.248 190.573C122.616 191.88 119.266 194.771 116.966 198.983C115.292 202.048 114.209 205.297 113.681 208.754C113.508 209.883 113.553 211.136 112.736 212.099C112.385 211.906 112.136 211.848 112.016 211.691C110.226 209.34 107.942 207.656 105.273 206.433C104.489 206.074 103.613 205.588 103.156 204.904C101.964 203.12 100.267 202.22 98.3548 201.541C96.579 200.911 95.3983 199.638 94.706 197.899C94.2949 196.866 93.935 195.812 93.5312 194.776C93.1678 193.845 92.8232 192.901 92.3864 192.004C91.641 190.473 90.357 189.646 88.6823 189.601C87.7033 189.574 86.6716 189.643 85.7422 189.93C82.3682 190.968 79.956 193.128 78.6967 196.497C78.1121 198.06 77.6254 199.664 76.9817 201.202C76.2537 202.942 74.8658 203.719 72.9952 203.577C72.0035 203.502 71.0145 203.393 70.0234 203.308C67.6281 203.102 66.0167 204.2 64.9669 206.327C63.783 208.724 63.5998 211.243 63.9809 213.824C64.1595 215.034 64.4853 216.22 64.7464 217.416C65.1584 219.306 64.8331 220.95 63.2317 222.209C62.7986 222.55 62.4182 222.966 62.0464 223.377C60.9421 224.597 60.8454 225.974 61.5464 227.402C61.8363 227.993 62.1998 228.591 62.6666 229.042C64.5729 230.886 65.2084 233.145 64.9869 235.729C64.6354 239.825 66.0271 243.302 68.3322 246.635C70.6624 250.004 72.6255 253.633 74.706 257.174C74.9938 257.664 75.0311 258.303 75.2122 258.975C74.0703 258.96 73.1831 258.884 72.3057 258.949C70.197 259.104 68.8465 260.319 68.1294 262.256C67.5171 263.91 67.6402 265.602 68.4458 267.121C69.1139 268.382 69.994 269.547 70.9039 270.651C71.7468 271.673 72.7498 272.563 73.6902 273.504C75.4621 275.275 76.6305 277.376 77.1801 279.839C77.4469 281.033 77.7655 282.217 78.1026 283.394C79.4411 288.065 82.6873 290.646 87.2841 291.501C89.4414 291.902 91.678 291.943 93.8828 292.005C95.8698 292.061 97.8636 291.877 99.8538 291.884C101.96 291.892 104.062 292.036 106.057 292.81C108.241 293.657 110.129 294.895 111.494 296.905C109.323 300.167 107.276 303.347 105.116 306.447C104.004 308.044 101.811 308.086 100.526 306.656C100.16 306.249 99.9449 305.708 99.6045 305.274C98.8894 304.361 98.0214 304.173 96.9663 304.647C94.9345 305.56 93.2469 308.339 93.3379 310.623C93.3843 311.785 94.1255 312.777 95.3208 312.966C96.2898 313.12 97.297 313.037 98.2874 313.05C98.7979 313.057 99.3085 313.044 100.533 313.033C99.5438 313.764 99.1659 314.266 98.7323 314.322C97.5442 314.476 96.3291 314.515 95.1314 314.461C94.0312 314.41 92.9394 314.18 91.8445 314.026C90.5465 313.844 89.7106 314.535 89.1816 315.598C88.2851 317.402 88.3731 319.283 89.0598 321.118C89.7476 322.955 91.1466 323.629 93.049 323.062C94.083 322.754 95.0754 322.302 96.19 321.876C95.8742 323.249 95.5029 324.399 95.3689 325.576C95.2358 326.747 95.8125 327.492 96.9138 327.839C99.2246 328.566 101.289 327.958 103.125 326.483C104.285 325.551 104.483 324.695 103.876 323.235C103.233 321.69 102.514 320.181 102.587 318.446C102.605 318.001 102.639 317.557 103.408 317.521C103.525 317.868 103.619 318.275 103.795 318.642C104.553 320.215 105.402 320.629 106.966 320.178C108.167 319.832 109.145 319.125 110.01 318.222C110.892 317.301 111.426 316.235 111.545 314.966C111.639 313.964 110.976 313.327 110.413 312.646C110.342 312.56 110.28 312.468 110.217 312.376C109.013 310.637 109.008 308.84 110.042 307.033C110.704 305.874 111.42 304.743 112.14 303.619C113.208 301.952 114.1 300.147 115.628 298.749C119.321 299.709 122.729 299.198 125.94 297.29C126.257 297.102 126.709 297.147 127.163 297.074C127.775 300.051 127.576 302.81 126.934 305.543C126.196 308.691 125.403 311.826 124.606 314.96C123.856 317.91 123.61 320.898 123.993 323.911C124.631 328.915 126.927 332.685 131.802 334.605C134.406 335.63 136.626 337.236 138.32 339.558C139.298 340.899 140.4 342.171 141.586 343.328C143.802 345.492 146.038 347.65 148.42 349.623C151.019 351.776 153.888 351.75 156.764 350.029C157.812 349.402 158.796 348.621 159.912 348.165C163.435 346.728 164.284 347.216 166.528 349.231C167.345 349.964 167.989 350.894 168.704 351.742C169.419 352.59 170.074 353.495 170.842 354.29C173.251 356.783 176.114 357.465 179.329 356.121C180.962 355.439 182.542 354.607 184.084 353.733C186.338 352.456 188.711 351.62 191.273 351.28C192.477 351.12 193.684 350.9 194.853 350.573C197.154 349.931 198.76 348.518 199.299 346.082C199.515 345.104 199.765 344.124 199.863 343.132C200.233 339.392 201.381 335.911 203.528 332.849C206.583 328.489 209.782 324.231 212.919 319.929C213.384 318.439 213.849 316.948 214.314 315.458ZM132.586 278.657C132.013 280.279 130.761 281.369 129.613 282.538C130.3 281.017 130.646 279.217 132.639 278.759C132.725 278.046 133.218 278.016 133.765 278.075C133.785 277.926 133.805 277.778 133.826 277.629C133.784 277.691 133.706 277.757 133.711 277.815C133.717 277.9 133.783 277.98 133.823 278.063C133.423 278.263 133.005 278.46 132.586 278.657ZM150.632 283.523C151.731 284.265 152.843 284.981 153.906 285.763C160.322 290.483 167.423 293.7 175.187 295.368C181.808 296.79 188.527 297.143 195.279 296.612C198.139 296.387 200.983 295.97 203.836 295.648C204.808 295.539 205.782 295.454 206.738 295.36C208.049 297.254 208.207 299.156 207.876 301.303C207.161 301.454 206.537 301.645 205.9 301.713C194.204 302.952 182.752 302.063 171.673 297.847C164.135 294.978 157.534 290.642 151.707 285.084C151.27 284.667 151.058 284.01 150.741 283.465C150.203 283.19 149.664 282.914 149.126 282.639C149.025 282.233 148.962 281.812 148.899 281.392C148.732 281.339 148.566 281.285 148.399 281.232C148.459 281.278 148.513 281.353 148.579 281.365C148.675 281.382 148.779 281.354 148.879 281.345C148.928 281.787 148.968 282.233 149.008 282.678C149.706 282.657 150.322 282.794 150.632 283.523ZM160.749 45.443C161.098 44.7453 161.365 43.9914 161.82 43.3792C165.787 38.0478 169.786 32.7407 173.786 27.4334C173.981 27.1735 174.267 26.9829 174.519 26.7527C175.428 27.1885 175.079 27.7695 174.729 28.3422C172.412 32.1359 169.689 35.6246 166.812 38.9967C165.302 40.7662 163.816 42.5582 162.259 44.2855C161.851 44.7388 161.22 44.9888 160.69 45.3323C160.674 46.1568 160.25 46.648 159.467 46.8454C159.452 47.0203 159.437 47.1949 159.422 47.3698C159.461 47.2964 159.537 47.2189 159.529 47.151C159.518 47.0553 159.446 46.9668 159.4 46.8752C159.842 46.3939 160.295 45.9186 160.749 45.443ZM113.935 120.009C112.983 120.89 112.027 121.761 111.071 122.633C110.247 123.536 109.437 124.446 108.585 125.314C101.469 132.573 95.4135 140.607 90.9416 149.791C90.2134 151.286 89.5492 152.829 89.0355 154.408C88.4926 156.076 87.4393 156.994 85.7876 157.371C84.5097 157.662 83.2574 158.117 81.6957 157.778C81.8135 157.207 81.8255 156.667 82.0333 156.218C84.2376 151.453 86.9846 147.063 90.4908 143.119C96.2456 136.647 102.097 130.276 108.454 124.396C109.217 123.69 109.804 122.571 111.131 122.755C111.467 121.199 112.526 120.439 113.987 120.122C114.271 119.175 114.857 118.633 115.884 118.678C116.11 118.276 116.336 117.874 116.562 117.472C116.669 117.56 116.776 117.648 116.883 117.736C116.533 118.009 116.183 118.283 115.833 118.557C115.206 119.052 114.57 119.531 113.935 120.009ZM142.22 145.123C141.823 145.968 141.565 146.518 141.307 147.068C141.464 147.459 141.845 147.864 141.797 148.208C141.519 150.18 141.402 152.237 140.719 154.073C140.046 155.887 140.004 157.488 140.697 159.207C140.816 159.501 140.805 159.849 140.848 160.138C140.348 160.923 139.763 160.809 138.973 160.317C138.759 158.024 139.979 155.898 140.279 153.617C140.567 151.417 140.983 149.235 141.344 147.045C141.535 146.476 141.246 145.746 142.22 145.123ZM117.227 74.7762C117.234 74.7776 117.211 74.9358 117.202 75.0211C117.071 74.8941 116.94 74.7669 116.809 74.6399C112.508 71.5927 108.216 68.5396 103.934 65.472C103.777 65.3595 103.717 65.11 103.523 64.7683C104.42 63.7639 105.355 62.7158 106.391 61.5552C106.818 61.7784 107.286 61.8796 107.527 62.1719C110.467 65.7377 113.381 69.3249 116.278 72.9263C116.677 73.4216 117.123 73.9798 116.715 74.7122C116.886 74.7299 117.058 74.7448 117.227 74.7762ZM136.156 102.297C132.843 102.814 129.556 102.634 126.284 101.942C124.99 101.669 123.679 101.475 122.375 101.246C120.264 100.876 118.16 100.974 116.176 101.777C114.565 102.43 113.175 102.147 111.776 101.32C110.849 100.772 109.909 100.244 109.062 99.7566C109.03 98.8632 109.616 98.9257 109.982 98.9076C114.734 98.6714 119.45 98.7083 124.111 99.9615C128.714 101.198 133.425 101.748 138.211 101.367C138.377 101.384 138.543 101.401 138.709 101.418C138.527 101.394 138.345 101.371 138.163 101.347C137.718 102.141 136.908 102.18 136.156 102.297ZM94.9638 281.949C93.2161 282.636 91.3994 283.146 89.6626 283.857C87.3184 284.818 85.0247 285.904 82.4923 287.033C80.6697 285.665 80.0946 283.603 79.5612 281.262C80.3605 281.111 80.9772 280.894 81.5931 280.895C86.4432 280.902 91.2933 280.951 96.1433 280.987C96.3282 281 96.5127 281.013 96.6976 281.026C96.5018 280.996 96.306 280.967 96.1101 280.938C95.7233 281.267 95.4075 281.775 94.9638 281.949ZM142.255 49.8754C141.405 49.1926 141.652 48.2081 141.724 47.3844C142.007 44.172 142.267 40.9464 142.797 37.7691C143.714 32.2715 145.066 26.8674 146.894 21.593C147.038 21.1763 147.155 20.6634 147.46 20.4106C147.91 20.0389 148.518 19.8617 149.41 19.4317C149.333 20.4469 149.374 21.0945 149.223 21.6942C148.087 26.2318 146.882 30.752 145.76 35.2932C144.559 40.1575 143.426 45.0386 142.264 49.9123C142.261 49.9002 142.258 49.8879 142.255 49.8754ZM103.91 134.329C102.806 136.257 101.891 138.3 100.99 140.336C100.59 141.239 100.356 142.234 100.172 143.211C99.9869 144.192 99.9321 145.2 99.865 146.199C99.6616 149.23 98.286 151.478 95.5639 152.864C93.9098 153.707 92.2846 154.612 90.3664 155.337C90.3587 154.78 90.2605 154.444 90.3644 154.193C93.7591 145.981 98.5726 138.661 104.294 131.921C104.992 131.099 105.572 130.034 106.902 130.101C106.951 129.948 107.001 129.796 107.051 129.644C107.028 129.79 107.004 129.936 106.981 130.082C105.397 131.073 104.776 132.817 103.91 134.329ZM139.048 319.612C139.066 319.624 139.084 319.637 139.102 319.65C138.95 319.865 138.799 320.08 138.647 320.296C139.015 320.497 139.511 320.602 139.721 320.908C140.023 321.346 140.142 321.922 140.297 322.453C142.653 330.565 145.748 338.386 149.355 346.007C149.631 346.591 149.863 347.195 150.092 347.736C149.49 348.294 149.16 347.892 148.885 347.628C146.498 345.339 144.128 343.031 141.758 340.723C140.749 339.74 140.385 338.447 140.254 337.113C139.852 333.031 139.524 328.941 139.148 324.856C139.007 323.329 138.811 321.807 138.64 320.282C138.776 320.059 138.912 319.835 139.048 319.612ZM146.189 80.434C146.075 80.3948 145.962 80.3559 145.848 80.3171C146.015 79.9704 146.182 79.6239 146.349 79.2772C145.571 78.7161 145.782 77.8646 145.828 77.1277C146.066 73.3213 146.896 69.658 148.489 66.169C150.44 61.8976 152.882 57.9323 155.77 54.2511C157.962 51.4563 160.24 48.7278 162.51 45.9952C165.56 42.3235 168.637 38.6736 171.712 35.0219C172.13 34.5242 172.6 34.0696 173.137 33.4985C174.335 35.2422 174.367 36.9864 173.639 38.6784C172.628 41.0286 171.438 43.2941 169.49 45.0581C167.27 47.069 165.071 49.103 162.897 51.165C160.403 53.5313 157.853 55.849 155.494 58.3481C150.969 63.143 147.892 68.7139 147.002 75.3698C146.825 76.6909 146.539 77.9971 146.304 79.3101C146.266 79.6842 146.227 80.0592 146.189 80.434ZM91.8258 255.518C91.7623 255.488 91.701 255.44 91.6351 255.433C91.5452 255.425 91.4522 255.448 91.3605 255.458C90.0303 254.47 88.7071 253.478 87.3813 252.489C84.0869 250.034 81.0862 247.245 78.3625 244.174C73.8061 239.036 69.3241 233.832 64.8123 228.654C64.5212 228.32 64.2202 227.992 63.9582 227.635C62.7307 225.964 62.7933 225.352 64.1729 223.907C65.1579 222.874 66.079 221.78 67.1662 220.558C67.5122 220.924 68.0248 221.324 68.3601 221.842C70.5302 225.194 72.6807 228.56 74.8004 231.945C77.0382 235.519 79.2062 239.136 81.4571 242.701C83.8938 246.561 86.6911 250.134 89.9999 253.285C90.6228 253.878 91.4613 254.348 91.3465 255.421C91.5058 255.453 91.666 255.485 91.8258 255.518ZM161.392 77.5338C163.652 74.6431 166.047 71.883 168.742 69.3875C169.903 68.3117 171.167 67.4318 172.669 66.9746C175.098 66.2355 177.516 65.3984 179.997 64.9066C187.479 63.4235 194.942 61.8929 202.198 59.4712C202.498 59.3713 202.841 59.4053 203.332 59.362C203.665 60.3324 203.361 61.2991 203.303 62.2342C203.243 63.2141 203.038 64.1856 202.876 65.2932C202.232 65.3098 201.696 65.3605 201.164 65.3317C191.194 64.7922 181.912 67.3362 173.056 71.7723C169.084 73.7617 165.375 76.1754 161.855 78.8935C161.191 79.4057 160.598 80.2533 159.544 79.7567C159.534 79.9109 159.525 80.0653 159.516 80.2198C159.551 80.1507 159.622 80.0757 159.612 80.0142C159.598 79.9293 159.522 79.8545 159.473 79.7754C160.103 79.0272 160.785 78.3102 161.392 77.5338ZM236.631 130.116C236.001 127.525 234.294 125.698 233.283 123.519C232.264 121.323 231.018 119.231 230.404 116.913C233.85 113.537 238.48 112.258 243.768 113.266C243.602 114.091 243.514 114.941 243.257 115.735C241.521 121.088 239.703 126.41 237.095 131.531C236.119 131.294 235.284 131.091 234.449 130.888C233.172 130.048 231.928 129.16 230.623 128.375C226.557 125.932 222.556 123.393 218.888 120.365C216.41 118.318 214.142 116.061 212.384 113.337C211.005 111.199 209.939 108.928 209.572 106.488C210.346 105.729 210.98 106.106 211.564 106.295C217.44 108.188 222.465 111.526 227.01 115.638C227.641 116.209 228.184 116.987 228.509 117.777C230.113 121.683 232.016 125.428 234.224 129.016C234.605 129.635 234.705 130.23 234.436 130.896C235.133 130.648 235.83 130.401 236.631 130.116ZM123.172 255.434C123.154 255.505 123.137 255.575 123.12 255.646C122.816 255.515 122.513 255.385 122.209 255.255C118.57 253.338 114.943 251.445 111.367 249.459C110.018 248.71 108.764 247.78 107.51 246.874C102.11 242.972 98.5287 237.75 96.5697 231.38C96.1452 230 95.7826 228.595 95.4821 227.181C94.3211 221.719 93.1935 206.803 93.4433 200.636C94.3779 200.633 94.3726 201.463 94.5135 202.008C95.5446 205.992 96.574 209.978 97.4875 213.991C98.154 216.919 98.6387 219.89 99.211 222.84C100.457 229.263 102.637 235.275 106.741 240.457C107.214 241.055 107.573 241.773 107.858 242.487C108.712 244.624 110.118 246.325 111.942 247.635C114.007 249.119 116.175 250.456 118.288 251.872C119.389 252.611 120.496 253.348 121.54 254.163C121.838 254.396 121.925 254.903 122.108 255.285C122.463 255.335 122.817 255.384 123.172 255.434ZM196.852 341.574C194.312 337.222 191.035 333.474 187.345 330.11C183.67 326.759 179.85 323.569 176.099 320.303C172.68 317.327 169.154 314.465 165.89 311.327C163.269 308.807 160.934 305.978 158.537 303.228C156.986 301.448 156.12 299.3 155.542 296.79C155.974 296.926 156.282 296.947 156.496 297.101C162.825 301.634 169.838 304.878 176.9 308.022C185.975 312.062 195.119 315.954 203.853 320.722C205.182 321.447 206.639 322.006 207.77 323.179C207.461 324.627 206.388 325.506 205.663 326.587C204.056 328.981 202.341 331.305 200.822 333.753C199.344 336.135 198.388 338.744 198.174 341.584C198.152 341.879 197.953 342.161 197.745 342.675C197.37 342.218 197.059 341.927 196.852 341.574ZM208.813 202.805C214.515 204.292 220.324 204.805 226.2 204.685C229.62 204.615 233.039 204.492 236.459 204.411C237.548 204.385 238.638 204.418 239.652 204.424C241.557 208.446 242.819 217.848 241.95 221.522C241.434 221.491 240.885 221.514 240.358 221.418C235.768 220.584 231.135 220.716 226.499 220.715C223.084 220.713 219.664 220.53 216.26 220.261C214.048 220.086 211.96 219.353 210.053 218.131C209.174 217.567 208.507 216.931 208.24 215.883C207.171 211.685 206.165 207.476 205.786 203.143C205.769 202.948 205.923 202.737 206.123 202.187C207.111 202.413 207.968 202.585 208.813 202.805ZM141.659 263.444C146.288 259.457 151.142 255.767 156.351 252.588C157.745 251.737 159.336 251.135 160.911 250.684C164.339 249.703 167.876 249.536 171.419 249.636C174.176 249.714 176.93 249.886 179.686 249.976C185.571 250.169 191.372 249.619 197.028 247.85C197.529 247.693 198.05 247.603 198.848 247.414C198.26 248.821 197.725 249.892 197.365 251.02C196.995 252.181 196.891 253.43 196.489 254.576C196.207 255.381 195.792 256.33 195.14 256.779C192.934 258.3 190.528 259.515 187.736 259.132C181.864 258.326 176.056 258.831 170.289 259.978C165.957 260.839 161.671 261.942 157.342 262.823C152.907 263.726 148.449 264.514 143.991 265.295C142.936 265.48 141.841 265.437 140.764 265.498C140.652 265.29 140.539 265.081 140.427 264.872C140.835 264.393 141.189 263.849 141.659 263.444ZM210.837 310.685C212.34 312.889 212.531 315.245 211.452 317.668C210.872 318.97 210.142 320.205 209.378 321.663C208.401 321.292 207.579 321.055 206.826 320.681C201.379 317.977 195.98 315.169 190.496 312.544C186.008 310.395 181.417 308.461 176.881 306.413C171.134 303.819 165.413 301.179 160.081 297.762C155.84 295.044 152.048 291.895 149.338 287.544C148.048 285.472 146.593 283.505 145.225 281.483C145.012 281.169 144.865 280.81 145.031 280.236C145.685 280.946 146.344 281.651 146.99 282.367C153.092 289.12 160.201 294.516 168.53 298.156C176.314 301.558 184.505 303.379 193.003 303.577C196.866 303.667 200.737 303.432 204.604 303.318C205.589 303.289 206.572 303.163 208.042 303.042C208.172 306.079 209.319 308.458 210.837 310.685ZM178.985 198.812C180.046 200.052 181.409 201.03 182.676 202.156C182.479 202.41 182.322 202.72 182.075 202.913C177.13 206.781 173.114 211.544 169.34 216.51C166.38 220.404 163.623 224.453 160.755 228.419C160.042 229.406 159.362 230.456 158.482 231.277C150.782 238.457 144.524 246.803 138.871 255.646C138.032 256.958 137.205 258.278 136.363 259.589C136.124 259.96 135.917 260.407 135.575 260.64C135.256 260.857 134.762 260.939 134.375 260.881C134.124 260.844 133.856 260.483 133.725 260.206C133.59 259.918 133.575 259.557 133.568 259.226C133.492 255.772 133.686 252.34 134.433 248.769C138.934 246.953 141.709 243.207 144.288 239.274C147.032 235.086 149.736 230.872 152.465 226.674C154.656 223.304 157.16 220.194 159.972 217.323C161.917 215.339 163.812 213.303 165.667 211.234C169.787 206.642 173.125 201.548 175.334 195.744C175.45 195.439 175.643 195.163 176.081 194.359C177.191 196.096 177.936 197.586 178.985 198.812ZM130.011 256.616C128.306 252.315 127.715 247.806 127.963 243.208C128.026 242.033 128.557 240.841 129.048 239.736C132.543 231.87 134.831 223.621 136.813 215.276C138.818 206.835 140.34 198.278 142.85 189.958C143.2 188.795 143.572 187.638 143.855 186.73C145.408 185.779 146.795 185.559 148.199 185.374C148.991 186.378 148.879 187.388 148.821 188.362C148.604 192.048 147.699 195.606 146.769 199.16C145.784 202.925 144.797 206.69 143.899 210.476C143.171 213.546 143.017 216.651 143.99 219.703C144.334 220.779 143.998 221.638 143.516 222.548C141.747 225.885 139.891 229.182 138.278 232.595C134.73 240.103 132.386 247.951 132.111 256.327C132.093 256.877 131.994 257.425 131.912 257.971C131.898 258.064 131.779 258.141 131.374 258.625C130.827 257.836 130.275 257.284 130.011 256.616ZM217.388 203.053C213.973 202.712 210.604 202.124 207.36 200.959C206.748 200.739 206.162 200.442 205.437 200.124C204.923 196.248 204.748 192.412 205.195 188.392C205.792 188.365 206.221 188.251 206.601 188.343C212.679 189.811 218.833 190.004 225.036 189.467C226.797 189.315 228.562 189.218 230.323 189.064C231.164 188.99 231.829 189.236 232.362 189.9C235.294 193.561 237.686 197.529 239.168 202.016C239.228 202.199 239.119 202.44 239.038 203.009C231.718 203.205 224.555 203.77 217.388 203.053ZM81.3461 230.484C77.9466 221.674 77.5104 212.49 78.5432 203.216C78.7959 200.947 79.7759 198.711 80.6914 196.576C81.433 194.847 82.6599 193.376 84.7602 192.52C84.8931 193.12 85.1075 193.601 85.0873 194.072C84.8395 199.855 84.8483 205.633 85.3524 211.401C86.0141 218.973 87.4577 226.368 90.3387 233.425C93.3324 240.755 97.736 247.048 103.935 251.992C105.225 253.021 106.597 253.947 107.932 254.921C95.6993 250.605 86.1952 243.051 81.3461 230.484ZM148.649 244.259C155.477 235.528 163.352 227.946 172.746 222.038C174.716 220.8 176.703 219.588 178.68 218.362C183.791 215.194 188.455 211.464 192.627 207.113C193.161 206.556 193.747 206.049 194.319 205.53C194.392 205.464 194.526 205.465 194.822 205.381C196.311 206.695 196.858 208.591 197.492 210.483C196.969 211.795 195.889 212.621 194.973 213.551C184.219 224.471 171.998 233.403 158.572 240.679C155.749 242.208 152.849 243.593 149.972 245.016C149.429 245.284 148.824 245.422 147.741 245.794C148.228 244.964 148.399 244.58 148.649 244.259ZM248.944 92.6434C248.358 92.689 247.82 92.835 247.32 92.7536C240.272 91.6079 234.239 93.7921 228.935 98.4183C228.434 98.8551 227.925 99.283 227.411 99.7044C227.333 99.7689 227.208 99.776 226.865 99.8875C226.757 99.2753 226.542 98.6884 226.569 98.1121C226.764 93.8915 227.016 89.6733 227.231 85.4537C227.299 84.1299 227.914 83.1243 228.916 82.3313C229.786 81.643 230.643 80.9286 231.568 80.3228C235.484 77.7594 239.649 75.694 244.075 74.1929C245.422 73.7361 246.775 73.1644 248.457 73.4915C250.111 79.7551 250.622 86.0617 248.944 92.6434ZM159.561 306.893C163.911 311.949 168.976 316.231 174.051 320.506C177.517 323.426 180.987 326.342 184.387 329.338C187.46 332.045 190.42 334.896 192.812 338.243C194.285 340.305 195.564 342.524 196.755 344.768C197.508 346.185 197.012 347.335 195.676 348.155C193.663 349.389 191.999 349.365 190.201 347.882C189.1 346.974 188.09 345.932 187.147 344.854C185.691 343.189 184.319 341.447 182.924 339.727C178.722 334.553 174.04 329.861 168.895 325.645C167.51 324.511 166.277 323.277 165.376 321.719C163.435 318.361 161.456 315.026 159.561 311.642C158.645 310.006 158.153 308.228 158.44 305.974C158.95 306.387 159.305 306.596 159.561 306.893ZM136.183 241.583C138.016 236.194 140.351 231.024 143.167 226.083C147.076 219.224 151.115 212.438 154.946 205.535C157.426 201.067 159.631 196.444 161.964 191.893C162.419 191.007 162.901 190.135 163.476 189.06C164.303 189.226 165.099 189.386 166.074 189.582C165.891 190.672 165.845 191.559 165.587 192.379C163.217 199.92 160.832 207.457 158.399 214.978C157.745 216.999 156.571 218.724 155.294 220.449C152.322 224.464 149.582 228.653 146.78 232.792C144.973 235.462 143.317 238.24 141.41 240.833C140.17 242.519 138.627 243.986 137.163 245.496C136.725 245.947 136.15 246.39 135.292 246.023C135.079 244.472 135.694 243.021 136.183 241.583ZM156.359 283.374C162.296 286.054 168.594 286.987 175.085 286.771C180.292 286.598 185.41 285.81 190.473 284.598C191.645 284.318 192.817 284.043 194.059 283.75C196.018 286.236 198.544 287.79 201.097 289.335C202.786 290.356 204.428 291.495 205.633 293.463C205.086 293.707 204.656 294.011 204.189 294.09C194.859 295.673 185.506 295.999 176.209 294.087C166.156 292.02 157.298 287.494 149.779 280.419C149.422 280.083 149.126 279.68 148.656 279.142C151.372 280.65 153.777 282.209 156.359 283.374ZM89.4467 191.675C90.3396 192.048 90.7918 192.847 91.0286 193.71C91.2622 194.559 91.3723 195.456 91.4296 196.34C91.7456 201.23 91.9931 206.125 92.3344 211.012C92.6215 215.121 92.8452 219.246 93.3977 223.321C93.8144 226.395 94.5189 229.461 95.4253 232.428C97.4055 238.91 101.262 244.103 106.693 248.112C110.902 251.219 115.547 253.555 120.186 255.907C122.645 257.155 125.096 258.42 128.163 259.991C126.93 260.035 126.332 260.179 125.793 260.057C120.269 258.813 114.877 257.185 109.937 254.317C103.061 250.325 97.7714 244.779 93.9903 237.76C91.3329 232.828 89.5657 227.57 88.3948 222.096C86.3287 212.439 86.0832 202.662 86.6247 192.837C86.6422 192.521 86.8089 192.214 86.8983 191.927C87.7319 191.312 88.5852 191.316 89.4467 191.675ZM122.693 262.227C120.968 262.623 119.192 262.861 117.523 263.423C114.532 264.431 111.645 264.043 108.733 263.212C104.316 261.951 100.362 259.776 96.702 257.039C91.7014 253.299 87.3056 248.953 83.8691 243.691C81.8673 240.626 79.9628 237.497 77.9881 234.413C74.5186 228.995 70.9696 223.628 67.569 218.166C65.3101 214.539 64.9694 210.681 66.9227 206.747C67.013 206.565 67.2291 206.439 67.4019 206.307C67.4863 206.243 67.6065 206.226 67.9104 206.114C68.3356 206.809 68.8853 207.497 69.2143 208.28C70.4194 211.147 71.5774 214.034 72.7038 216.933C73.9106 220.04 75.0046 223.193 76.2517 226.283C77.8409 230.22 79.913 233.882 82.6757 237.124C83.2486 237.797 83.7487 238.536 84.2437 239.271C88.7579 245.978 94.8348 250.835 101.991 254.383C108.372 257.548 115.122 259.609 122.114 260.898C122.657 260.998 123.197 261.121 123.728 261.273C123.892 261.32 124.019 261.497 124.36 261.776C123.701 261.956 123.201 262.111 122.693 262.227ZM145.309 285.418C146.099 288.769 146.835 292.137 147.479 295.52C148.123 298.904 148.514 302.341 149.224 305.71C149.887 308.858 150.686 311.992 151.673 315.051C152.915 318.901 154.943 322.343 157.839 325.198C158.732 326.079 159.331 327.05 159.675 328.281C160.423 330.955 161.314 333.587 162.127 336.243C162.305 336.827 162.399 337.438 162.648 338.562C161.669 337.959 161.096 337.683 160.61 337.296C155.509 333.236 151.558 328.223 148.557 322.432C145.358 316.256 143.474 309.655 142.358 302.806C141.172 295.533 140.959 288.204 141.2 280.852C141.217 280.322 141.408 279.799 141.591 278.921C143.433 281.015 144.743 283.019 145.309 285.418ZM244.583 111.341C241.981 111.564 239.425 111.505 237.011 112.067C234.581 112.633 232.291 113.817 229.727 114.813C229.545 114.445 229.152 113.917 229.015 113.329C228.289 110.199 227.611 107.057 226.955 103.911C226.768 103.01 226.946 102.17 227.631 101.455C232.01 96.8871 237.084 93.7713 243.596 93.7649C245.216 93.7634 246.898 93.6712 248.694 94.6068C247.886 100.479 246.39 105.907 244.583 111.341ZM111.292 244.365C109.498 242.481 108.902 240.107 109.361 237.563C109.676 235.819 110.099 234.057 110.757 232.418C113.066 226.676 114.191 220.689 114.77 214.567C115.169 210.339 115.93 206.185 117.533 202.23C117.948 201.205 118.481 200.221 119.038 199.264C119.475 198.512 120.034 197.831 120.775 196.785C120.999 197.486 121.209 197.832 121.205 198.176C121.162 201.622 120.959 205.07 121.045 208.511C121.178 213.886 120.497 219.154 119.516 224.421C118.844 228.024 118.355 231.67 117.967 235.315C117.45 240.166 118.141 244.858 120.237 249.296C120.418 249.678 120.501 250.107 120.754 250.913C117.096 248.995 113.896 247.1 111.292 244.365ZM178.209 354.498C176.014 355.302 173.998 354.966 172.465 353.176C171.105 351.587 169.68 349.956 168.757 348.103C165.831 342.229 163.399 336.135 161.565 329.812C160.352 325.633 159.552 321.373 159.187 317.034C159.137 316.436 158.816 315.741 159.404 315.193C159.521 315.242 159.674 315.255 159.717 315.331C163.69 322.288 168.502 328.677 172.967 335.302C174.949 338.243 176.806 341.282 178.511 344.394C179.514 346.227 180.162 348.271 180.856 350.26C181.137 351.066 181.114 351.979 181.206 352.673C180.328 353.82 179.242 354.119 178.209 354.498ZM197.761 257.845C198.151 256.009 198.555 254.176 198.924 252.336C199.218 250.869 199.997 249.666 200.922 248.549C201.77 247.524 202.731 246.591 203.541 245.538C204.349 244.489 205.166 243.407 205.741 242.224C207.11 239.407 206.626 236.899 204.456 234.635C204.16 234.326 203.855 234.025 203.433 233.598C204.528 229.76 206.06 226.101 207.356 222.112C207.802 222.502 208.133 222.65 208.222 222.89C209.962 227.567 211.661 232.261 213.403 236.937C213.767 237.912 213.872 238.827 213.548 239.845C211.296 246.942 209.11 254.062 206.819 261.147C206.313 262.709 205.471 264.162 204.656 265.946C201.945 263.672 199.813 261.126 197.761 257.845ZM167.433 246.383C171.604 244.579 175.762 242.74 179.984 241.062C186.355 238.529 192.983 236.628 198.703 232.987C200.151 234.024 201.393 234.915 202.635 235.804C204.435 237.094 204.866 238.262 204.27 240.408C203.607 242.797 202.284 244.499 199.831 245.397C193.5 247.717 186.992 248.733 180.285 248.536C178.186 248.475 176.089 248.302 173.99 248.269C170.907 248.221 167.823 248.254 163.867 248.251C165.498 247.39 166.435 246.814 167.433 246.383ZM152.767 349.214C152.454 348.717 152.055 348.193 151.768 347.612C145.236 334.378 140.35 320.59 138.112 305.917C136.678 296.513 136.459 287.078 137.499 277.612C137.656 276.179 137.787 274.741 138.787 273.252C139.177 273.79 139.656 274.168 139.732 274.615C139.895 275.585 139.926 276.594 139.88 277.581C139.54 284.934 139.538 292.273 140.437 299.592C141.354 307.047 143.236 314.21 146.235 321.104C149.651 328.953 152.873 336.888 156.167 344.792C156.503 345.597 156.754 346.44 157.088 347.388C154.948 348.922 154.944 348.915 152.767 349.214ZM206.25 265.696C208.539 261.209 209.919 256.388 211.4 251.606C212.288 248.735 213.135 245.851 214.015 242.978C214.17 242.471 214.393 241.986 214.722 241.136C215.146 241.712 215.444 241.996 215.597 242.345C217.246 246.107 218.84 249.894 220.521 253.641C221.182 255.115 221.354 256.561 221.149 258.172C220.636 262.193 219.336 265.967 217.778 269.663C217.089 271.298 216.222 272.859 215.403 274.436C215.153 274.916 214.795 275.339 214.492 275.78C212.296 274.527 208.899 271.296 205.7 267.418C205.913 266.735 206.005 266.176 206.25 265.696ZM143.963 266.808C149.914 266.107 155.721 264.671 161.557 263.362C165.984 262.37 170.438 261.469 174.911 260.72C178.386 260.138 181.911 259.97 185.826 260.429C185.299 260.932 185.064 261.259 184.748 261.443C181.2 263.512 177.672 265.619 174.073 267.593C171.45 269.032 168.78 270.411 166.038 271.593C162.756 273.009 159.28 273.747 155.693 273.743C150.81 273.738 146.591 272.121 143.283 268.408C143.017 268.109 142.858 267.714 142.55 267.197C143.146 267.029 143.547 266.857 143.963 266.808ZM200.874 226.291C200.418 227.179 199.701 228.008 199.518 228.945C199.125 230.96 197.753 231.98 196.148 232.79C193.975 233.886 191.788 234.975 189.535 235.883C186.045 237.29 182.498 238.551 178.968 239.854C165.123 244.965 152.526 252.245 141.262 261.855C140.672 262.358 140.062 262.838 139.436 263.294C139.286 263.403 139.036 263.373 138.828 263.407C138.255 263.12 138.404 262.606 138.67 262.307C140.071 260.734 141.461 259.141 142.978 257.686C146.354 254.447 150.064 251.606 154.059 249.208C160.233 245.503 166.463 241.882 172.768 238.41C181.988 233.331 191.31 228.439 200.101 222.607C200.545 222.312 201.062 222.129 201.925 221.709C202.183 223.751 201.524 225.023 200.874 226.291ZM143.956 250.595C144.835 249.22 145.973 248.34 147.467 247.703C156.778 243.739 165.536 238.743 173.889 233.018C181.875 227.546 189.322 221.415 196.102 214.474C196.698 213.865 197.368 213.33 198.199 212.585C199.385 215.074 200.792 217.181 201.425 219.83C200.485 220.504 199.636 221.21 198.7 221.767C192.506 225.455 186.335 229.184 180.074 232.754C174.775 235.775 169.322 238.519 164.021 241.536C159.782 243.948 155.611 246.494 151.518 249.149C146.946 252.115 142.731 255.554 139.033 259.603C138.741 259.922 138.376 260.173 138.044 260.456C137.937 260.313 137.829 260.171 137.722 260.029C139.805 256.888 141.925 253.77 143.956 250.595ZM200.911 54.3418C195.381 54.8665 189.992 56.0302 184.783 58.0001C175.206 61.6223 167.461 67.7305 161.146 75.7653C160.531 76.5481 159.925 77.3381 159.303 78.1147C159.248 78.1828 159.101 78.1748 158.997 78.2022C158.881 75.7939 159.116 74.4024 160.209 72.6195C168.859 58.5116 181.031 50.1392 197.765 49.1571C199.616 49.0484 201.253 49.3951 202.805 50.3591C204.044 51.1292 204.59 52.2168 204.531 53.8783C203.263 54.0434 202.091 54.2299 200.911 54.3418ZM74.8572 266.434C81.2423 269.393 88.0039 270.935 94.9431 271.808C97.1812 272.09 99.3582 271.757 101.465 270.984C103.024 270.411 104.558 269.769 106.099 269.149C113.019 266.369 120.172 264.478 127.539 263.409C128.169 263.317 128.805 263.271 130.003 263.145C129.346 263.788 129.113 264.115 128.798 264.308C126.531 265.703 124.266 267.103 121.966 268.441C113.375 273.438 104.107 275.46 94.2471 274.908C88.2683 274.573 82.3831 273.641 76.5935 272.148C73.0765 271.242 71.1298 268.628 69.879 265.388C69.7783 265.127 69.9253 264.768 69.9778 264.25C71.6829 265.012 73.2793 265.703 74.8572 266.434ZM248.143 71.5805C246.174 72.2022 244.387 72.6992 242.649 73.3349C240.987 73.9433 239.349 74.6365 237.752 75.4019C236.056 76.2158 234.39 77.1086 232.765 78.0597C231.253 78.9442 229.811 79.9507 228.391 80.8698C227.624 80.409 227.902 79.7937 227.925 79.3105C228.066 76.4226 228.287 73.5382 228.426 70.6502C228.476 69.609 228.725 68.7344 229.437 67.9192C232.849 64.0093 238.599 60.4171 244.107 59.0048C245.914 63.0978 247.233 67.1655 248.143 71.5805ZM129.162 92.6926C124.178 90.0648 119.253 87.3131 114.391 84.4623C107.235 80.2654 100.097 76.0445 92.55 72.577C92.0667 72.355 91.6084 72.0781 91.0118 71.759C92.8032 68.9439 95.2404 67.432 98.3023 66.873C104.928 71.7218 111.476 76.6149 118.131 81.3553C124.7 86.0337 131.377 90.5581 138.007 95.1501C137.929 95.3639 137.851 95.5774 137.772 95.7912C134.741 95.2323 131.867 94.1182 129.162 92.6926ZM144.997 212.664C145.397 210.145 145.966 207.648 146.572 205.169C147.416 201.716 148.358 198.287 149.263 194.849C149.945 192.257 150.336 189.631 150.299 186.942C150.292 186.424 150.518 185.902 150.625 185.429C154.799 185.066 157.678 185.912 161.723 188.709C159.741 193.947 157.029 198.885 154.315 203.808C151.591 208.749 148.827 213.676 145.445 218.841C144.518 216.39 144.707 214.496 144.997 212.664ZM206.733 173.729C207.104 173.69 207.555 173.514 207.923 173.622C216.452 176.149 223.799 180.611 229.975 187.157C225.749 189.255 211.319 188.714 205.211 186.138C205.717 182.014 206.214 177.962 206.733 173.729ZM120.924 247.186C119.587 243.946 119.067 240.531 119.315 237.063C119.568 233.521 119.892 229.953 120.594 226.48C122.013 219.465 122.775 212.434 122.444 205.274C122.326 202.73 122.648 200.167 122.676 197.612C122.705 194.985 124.067 193.514 126.466 192.844C127.401 192.584 128.292 192.004 129.453 192.425C129.372 193.171 129.388 193.959 129.192 194.689C127.912 199.448 127.526 204.329 127.193 209.209C126.744 215.787 125.567 222.22 123.718 228.543C121.716 235.386 121.121 242.29 122.86 249.284C122.928 249.56 122.871 249.868 122.873 250.557C121.784 249.4 121.372 248.274 120.924 247.186ZM135.001 285.208C130.124 300.361 129.838 315.619 133.892 330.969C134.082 331.69 134.21 332.427 134.422 333.414C130.054 332.276 127.319 329.897 126.273 325.713C125.615 323.083 125.497 320.421 126.018 317.765C126.489 315.363 127.097 312.987 127.65 310.601C128.102 308.65 128.609 306.71 129.009 304.748C129.595 301.876 129.661 298.956 129.001 296.119C127.76 290.781 129.154 286.227 132.676 282.196C133.611 281.127 134.292 279.819 135.748 278.742C135.823 281.15 135.653 283.184 135.001 285.208ZM243.117 57.5253C241.452 58.2838 239.718 58.9684 238.087 59.8463C236.431 60.7369 234.824 61.7422 233.293 62.8373C231.782 63.9189 230.392 65.1748 229.038 66.2824C228.273 66.0663 228.366 65.5471 228.328 65.1359C228.003 61.5809 227.487 58.0575 226.486 54.6305C226.115 53.3592 226.263 52.256 226.882 51.1121C228.158 48.7578 229.452 46.4208 231.364 44.5131C231.899 43.9795 232.527 43.5406 233.267 42.9311C237.209 46.4077 241.618 52.9705 243.117 57.5253ZM162.288 283.978C156.279 282.463 151.067 279.452 146.748 274.95C146.613 274.809 146.603 274.547 146.495 274.221C146.821 274.279 147.135 274.251 147.347 274.385C154.203 278.727 161.788 280.235 169.772 280.172C176.543 280.118 183.159 278.919 189.718 277.317C190.891 277.031 192.069 276.765 193.442 276.444C193.618 277.03 193.892 277.514 193.885 277.996C193.866 279.316 193.728 280.635 193.616 282.275C183.065 285.11 172.771 286.621 162.288 283.978ZM221.223 109.518C219.283 108.455 217.386 107.299 215.388 106.362C213.492 105.473 211.488 104.815 209.45 104.024C208.602 102.513 208.887 100.798 208.996 99.1773C209.216 95.8761 209.515 92.5641 210.69 89.1651C211.666 89.6178 212.499 89.8811 213.199 90.3487C217.483 93.2145 221.004 96.879 224.007 101.058C224.386 101.585 224.737 102.21 224.854 102.837C225.461 106.103 225.988 109.386 226.587 112.925C224.408 112.151 223.014 110.5 221.223 109.518ZM174.789 18.9955C176.593 21.853 176.579 22.0677 174.314 24.7766C166.454 34.1748 159.276 44.0551 153.264 54.7653C152.12 56.8019 150.906 58.798 149.764 60.8346C147.739 64.4424 146.094 68.2054 145.236 72.2821C145.123 72.8181 144.915 73.3344 144.601 74.3408C143.827 71.2799 143.795 68.7317 144.602 66.1219C147.13 57.9438 151.036 50.471 156.198 43.6997C160.658 37.8491 164.641 31.7012 168.322 25.3434C169.659 23.0338 170.9 20.6675 172.196 18.3336C172.404 17.9585 172.673 17.6171 173.202 16.8338C173.892 17.7683 174.384 18.3544 174.789 18.9955ZM113.467 161.434C113.649 161.086 113.799 160.664 114.058 160.328C119.267 153.581 122.455 145.934 123.71 137.542C124.436 132.685 126.319 128.366 128.74 124.22C131.383 119.693 134.599 115.586 138.177 111.768C138.55 111.37 138.996 111.042 139.386 110.701C140.146 111.052 139.706 111.48 139.546 111.821C137.138 116.953 134.77 122.104 132.285 127.198C127.347 137.324 123.52 147.869 120.357 158.67C120.015 159.837 119.636 160.991 119.252 162.221C115.408 163.696 115.408 163.696 113.467 161.434ZM133.316 164.329C133.197 163.954 133.049 163.734 133.079 163.542C133.415 161.342 133.874 159.157 134.118 156.949C134.85 150.308 135.521 143.66 136.18 137.012C137.127 127.464 138.343 120.904 141.432 112.71C141.535 113.83 141.645 114.483 141.647 115.137C141.654 118.253 141.42 121.387 141.664 124.482C142.159 130.757 141.484 136.944 140.604 143.119C139.959 147.638 139.096 152.127 138.291 156.622C138.095 157.715 137.858 158.828 137.437 159.848C136.765 161.474 135.923 163.028 135.079 164.765C134.417 164.601 133.822 164.454 133.316 164.329ZM74.6395 153.405C74.1202 151.533 74.4613 149.87 76.0277 148.588C76.7153 148.026 77.384 147.428 78.1254 146.946C82.53 144.085 86.2853 140.456 90.03 136.811C95.4457 131.54 100.899 126.313 106.75 121.52C108.917 119.745 111.267 118.352 113.904 117.321C114.034 118.1 113.405 118.275 113.037 118.587C103.69 126.514 95.3613 135.451 87.4328 144.782C84.8936 147.771 83.0224 151.183 81.3633 154.721C80.8977 155.715 80.627 156.836 79.3704 157.671C76.9753 157.067 75.3008 155.787 74.6395 153.405ZM138.214 71.652C137.968 69.558 137.733 67.4264 137.139 65.4188C136.034 61.6796 136.118 57.939 136.731 54.1784C137.34 50.4444 138.037 46.7211 138.82 43.0194C139.724 38.7418 140.05 34.444 139.862 30.0809C139.791 28.4285 139.893 26.7348 140.179 25.106C140.746 21.8776 141.803 21.0882 145.387 20.8353C145.817 21.8743 145.246 22.7886 144.972 23.718C143.583 28.4179 142.223 33.1197 141.437 37.9731C140.543 43.4906 140.06 49.0092 140.761 54.5885C140.898 55.6751 140.933 56.8286 140.73 57.8973C139.144 66.2515 140.373 74.2935 143.204 82.1651C143.805 83.8367 144.553 85.4537 145.189 87.1131C145.413 87.6995 145.503 88.339 145.654 88.9547C145.429 89.0282 145.204 89.1015 144.979 89.1751C141.806 83.7083 138.973 78.1128 138.214 71.652ZM182.591 199.482C181.699 199.056 180.858 198.488 180.583 197.225C180.964 196.685 181.358 196.024 181.849 195.446C187.816 188.425 193.798 181.416 199.776 174.404C199.92 174.235 200.05 174.048 200.216 173.905C200.774 173.425 201.142 172.551 202.099 172.852C202.637 173.021 202.581 174.064 202.004 175.249C199.422 180.545 196.796 185.819 194.277 191.145C193.089 193.655 192.116 196.267 191.024 198.824C190.768 199.424 190.427 199.987 190.1 200.617C187.478 200.654 184.948 200.606 182.591 199.482ZM222.514 80.9387C219.994 78.795 217.504 76.6161 214.976 74.4837C214.143 73.7803 213.819 72.9917 213.925 71.8738C214.2 69.0064 214.357 66.1277 214.583 63.2554C214.617 62.8291 214.772 62.4122 214.879 61.957C215.264 61.8697 215.597 61.6813 215.862 61.7514C219.569 62.7299 222.741 64.6267 225.369 67.4395C226.071 68.1911 226.614 69.0268 226.537 70.0935C226.241 74.1789 225.916 78.2625 225.578 82.3449C225.564 82.5158 225.312 82.6674 225.054 82.9601C224.211 82.2919 223.34 81.6419 222.514 80.9387ZM180.653 205.996C180.978 205.696 181.325 205.418 181.667 205.137C185.674 201.857 187.894 201.601 193.124 203.941C192.706 204.57 192.386 205.235 191.906 205.747C187.633 210.305 182.767 214.116 177.481 217.416C173.823 219.701 170.238 222.107 166.616 224.453C166.11 224.781 165.583 225.077 165.066 225.388C169.606 218.322 174.52 211.655 180.653 205.996ZM213.651 75.7081C213.935 75.7571 214.315 75.7061 214.513 75.874C217.954 78.7964 221.375 81.744 224.792 84.6952C224.95 84.8312 225.033 85.0545 225.24 85.3753C224.976 89.6448 224.705 94.0475 224.421 98.4497C224.417 98.5139 224.262 98.5685 224.019 98.7376C220.397 94.4657 216.456 90.4925 211.335 87.7083C211.342 84.9837 212.223 80.5088 213.651 75.7081ZM85.7922 287.155C87.3963 286.402 89.0062 285.646 90.6645 285.029C96.0713 283.018 101.589 281.362 107.227 280.165C114.836 278.55 121.771 275.55 127.701 270.376C127.939 270.167 128.25 270.043 128.547 269.867C129.205 270.393 128.718 270.929 128.492 271.285C127.842 272.307 127.162 273.338 126.331 274.209C124.156 276.488 121.562 278.203 118.677 279.428C115.414 280.815 112.1 282.082 108.829 283.451C104.637 285.204 100.367 286.808 96.3211 288.859C93.5236 290.276 90.8178 290.263 87.9598 289.705C87.0976 289.536 86.2591 289.223 85.4289 288.923C85.1574 288.825 84.9456 288.56 84.5008 288.21C85.0039 287.789 85.3479 287.363 85.7922 287.155ZM124.84 250.707C123.337 246.435 122.998 242.003 123.456 237.531C123.704 235.105 124.119 232.662 124.78 230.317C126.934 222.677 128.414 214.94 128.812 207C129.018 202.878 129.669 198.808 130.603 194.787C130.78 194.028 130.955 193.264 131.215 192.532C131.622 191.38 131.9 191.284 134.001 191.401C133.59 193.036 133.185 194.642 132.784 196.249C131.562 201.136 131.115 206.125 130.872 211.133C130.639 215.929 129.889 220.643 128.997 225.355C128.126 229.946 127.366 234.565 126.77 239.199C126.171 243.861 126.31 248.532 127.386 253.137C127.508 253.659 127.569 254.196 127.659 254.726C125.933 253.827 125.385 252.255 124.84 250.707ZM130.152 226.895C131.423 221.007 132.159 215.066 132.463 209.055C132.723 203.936 133.358 198.859 134.89 193.941C136.325 189.33 135.957 190.318 139.86 188.358C140.246 188.165 140.685 188.074 141.105 187.958C141.189 187.935 141.3 188.012 141.42 188.05C141.918 188.677 141.466 189.291 141.324 189.895C139.422 198.016 137.528 206.139 135.59 214.251C133.832 221.61 131.933 228.929 128.62 235.746C129.123 232.794 129.52 229.819 130.152 226.895ZM120.168 45.5398C120.495 45.7842 120.764 45.8774 120.809 46.0356C121.078 46.9928 121.292 47.9661 121.532 48.9313C122.262 51.8624 123.266 54.6873 125.189 57.0489C126.094 58.1595 126.351 59.3586 126.438 60.726C126.573 62.8278 126.774 64.9322 127.084 67.0142C127.958 72.8846 129.685 78.4721 132.691 83.614C132.902 83.9733 133.029 84.3824 133.364 85.1623C130.574 84.219 128.444 83.0954 127.089 80.7977C125.504 78.1106 124.194 75.2833 123.494 72.2438C121.577 63.9245 119.77 55.5793 117.837 46.8731C118.778 46.3348 119.508 45.9172 120.168 45.5398ZM150.115 149.311C150.421 142.758 149.274 136.454 147.018 130.334C146.095 127.831 145.155 125.333 144.284 122.811C143.107 119.401 142.583 115.902 143.163 112.294C143.602 109.562 144.41 106.969 146.376 104.192C145.221 111.444 146.701 117.793 148.811 124.059C150.018 127.641 151.226 131.225 152.338 134.838C153.452 138.461 154.033 142.191 154.456 145.966C154.719 148.323 153.937 149.83 151.87 150.779C151.388 151.001 150.897 151.2 150.24 151.483C150.187 150.619 150.084 149.962 150.115 149.311ZM159.389 276.198C166.022 276.153 172.263 274.409 178.268 271.67C179.375 271.165 180.431 270.534 181.559 270.088C183.803 269.2 186.071 269.141 188.332 270.092C190.447 270.981 192.012 272.398 193 274.636C192.43 274.92 192.065 275.182 191.66 275.291C184.381 277.257 177.013 278.669 169.454 278.724C164.601 278.76 159.042 278.091 154.468 276.1C156.555 276.144 157.972 276.207 159.389 276.198ZM127.933 268.178C121.507 274.251 113.829 277.742 105.178 278.941C101.693 279.425 98.1306 279.405 94.6018 279.459C89.8552 279.532 85.1063 279.459 80.3586 279.436C80.0362 279.434 79.7144 279.329 79.2246 279.242C78.918 278.5 78.5794 277.698 78.2556 276.89C77.9358 276.091 77.6305 275.287 77.211 274.206C79.0151 274.124 80.4761 274.518 81.942 274.818C87.3691 275.929 92.848 276.505 98.3931 276.426C106.267 276.316 113.721 274.486 120.691 270.76C123.035 269.507 125.307 268.118 127.613 266.792C128.253 266.424 128.895 266.061 129.832 265.528C129.48 266.967 128.618 267.53 127.933 268.178ZM75.0511 116.72C75.4825 115.484 76.5058 114.682 77.7879 114.574C79.9726 114.389 82.2631 113.956 84.3487 114.394C90.4508 115.674 96.5588 115.933 102.74 115.411C103.148 115.377 103.567 115.478 104.52 115.566C94.8189 120.656 85.066 122.974 74.6412 122.706C73.9258 120.533 74.3954 118.598 75.0511 116.72ZM103.306 265.113C99.8448 264.258 96.5765 262.9 93.5909 260.97C89.6957 258.452 85.8981 255.782 82.0618 253.172C78.4994 250.749 75.0184 248.191 71.3523 245.939C69.0926 244.55 67.827 242.669 67.2207 240.199C66.7417 238.248 66.6537 236.287 67.153 233.935C67.8405 234.561 68.3333 234.93 68.731 235.384C71.4328 238.464 74.0835 241.59 76.8096 244.649C81.7847 250.23 87.4646 254.937 94.0174 258.551C98.1915 260.852 102.583 262.647 107.05 264.269C107.769 264.53 108.508 264.732 109.238 264.96C107.161 265.805 105.229 265.588 103.306 265.113ZM132.508 137.349C132.325 139.335 131.892 141.313 131.414 143.256C129.872 149.532 128.26 155.791 126.67 162.056C126.563 162.476 126.414 162.886 126.248 163.419C124.375 163.803 122.774 163.076 120.924 162.528C120.985 161.709 120.924 160.942 121.118 160.247C121.81 157.779 122.554 155.325 123.344 152.886C125.543 146.095 128.201 139.479 131.001 132.919C131.381 132.031 131.917 131.209 132.623 129.912C133.042 132.736 132.719 135.057 132.508 137.349ZM135.48 293.555C135.99 298.418 136.502 303.28 137.007 308.144C137.134 309.359 137.319 310.575 137.338 311.793C137.462 319.469 137.628 327.14 138.453 334.78C138.497 335.186 138.384 335.609 138.297 336.5C137.536 335.607 136.934 335.125 136.633 334.496C136.157 333.502 135.841 332.422 135.529 331.357C132.422 320.737 131.872 309.922 133.303 298.975C133.576 296.883 134.041 294.815 134.448 292.742C134.523 292.363 134.742 292.011 135.205 290.908C135.351 292.308 135.415 292.931 135.48 293.555ZM119.094 74.8555C117.923 72.3381 116.944 69.7306 115.866 67.169C114.443 63.7891 113.002 60.4164 111.577 57.0372C111.408 56.6376 111.287 56.2179 111.178 55.9036C112.991 53.5383 114.715 51.2889 116.66 48.7511C116.974 49.6565 117.236 50.229 117.371 50.8308C118.717 56.8033 120.096 62.7689 121.352 68.7611C122.086 72.2668 123.059 75.6712 124.6 78.9028C124.735 79.1847 124.782 79.5084 124.889 79.8786C121.142 78.3038 120.467 77.8093 119.094 74.8555ZM155.04 319.054C153.282 315.929 152.127 312.56 151.405 309.061C150.596 305.141 149.937 301.189 149.239 297.246C148.757 294.526 148.32 291.798 147.871 289.12C148.609 288.715 148.774 289.292 149.011 289.581C154.192 295.887 156.766 303.198 157.293 311.328C157.516 314.769 157.93 318.196 158.244 321.63C158.272 321.935 158.205 322.249 158.138 323.155C156.561 321.738 155.794 320.395 155.04 319.054ZM155.705 145.904C155.338 140.769 154.114 135.824 152.501 130.964C151.453 127.805 150.268 124.685 149.374 121.481C148.543 118.498 147.843 115.453 147.401 112.389C146.874 108.738 147.262 105.1 148.471 101.499C149.595 101.93 149.465 102.964 149.795 103.713C150.669 105.696 150.839 107.689 150.333 109.868C149.563 113.187 149.975 116.541 151.033 119.729C151.973 122.564 153.191 125.31 154.39 128.049C155.634 130.892 157.113 133.634 158.279 136.508C159.066 138.446 159.52 140.526 160.063 142.559C160.343 143.608 160.006 144.534 159.192 145.267C158.301 146.069 157.473 146.963 155.957 147.569C155.835 146.772 155.737 146.341 155.705 145.904ZM80.7773 258.415C84.0009 259.87 87.1871 261.409 90.3906 262.91C94.1138 264.653 97.9239 266.102 102.08 266.394C102.515 266.425 102.95 266.558 103.369 266.694C103.671 266.793 103.945 266.976 104.45 267.231C104.05 267.581 103.787 267.922 103.442 268.094C99.8378 269.888 96.1024 270.379 92.1584 269.416C89.6917 268.814 87.1745 268.417 84.6754 267.951C82.175 267.485 80.5099 266.071 79.6221 263.664C78.8933 261.688 78.0824 259.743 77.3205 257.779C77.2924 257.707 77.3943 257.583 77.5074 257.311C78.6988 257.251 79.7269 257.941 80.7773 258.415ZM160.681 90.5137C164.122 89.4219 167.661 89.2922 171.196 89.6959C173.994 90.0155 176.711 89.9049 179.397 89.0567C183.335 87.8131 187.046 88.6849 190.699 90.2155C191.826 90.6878 192.491 91.4343 192.576 92.702C192.672 94.1393 192.84 95.5726 192.357 97.2148C191.721 97.1412 191.088 97.1648 190.518 96.9854C187.776 96.1205 185.074 95.1168 182.313 94.3178C176.212 92.5525 169.993 91.6848 163.625 92.256C162.067 92.3958 160.547 92.3152 158.279 91.5588C159.518 91.0137 160.081 90.7038 160.681 90.5137ZM160.73 213.047C163.158 205.214 165.602 197.384 168.091 189.404C169.931 189.194 171.742 189.095 173.381 190.338C174.822 191.432 175.068 192.027 174.502 193.746C173.314 197.353 171.626 200.725 169.544 203.887C167.341 207.231 164.757 210.27 161.953 213.119C161.681 213.394 161.31 213.57 160.921 213.836C160.816 213.424 160.681 213.207 160.73 213.047ZM161.126 141.084C160.216 137.152 158.479 133.561 156.751 129.957C155.457 127.259 154.19 124.543 153.048 121.777C151.897 118.99 151.29 116.055 151.282 113.012C151.28 112.129 151.284 111.257 151.98 110.36C152.319 110.764 152.646 111.05 152.845 111.408C155.218 115.668 157.483 119.992 159.96 124.19C161.857 127.405 162.692 130.972 163.593 134.496C164.271 137.145 163.724 139.744 161.713 142.003C161.456 141.611 161.192 141.371 161.126 141.084ZM142.236 74.0382C141.267 69.5392 140.888 64.986 141.681 60.44C142.694 54.6287 143.889 48.8468 145.118 43.0765C145.389 41.804 146.05 40.5875 146.673 39.4218C150.291 32.6526 154.005 25.9344 157.573 19.1384C159.014 16.3941 160.166 13.4966 161.52 10.5129C162.169 10.7165 162.757 10.9008 163.527 11.1425C163.453 11.6961 163.52 12.3973 163.261 12.9421C161.637 16.355 160.037 19.7851 158.244 23.1095C155.817 27.6131 153.19 32.0079 150.709 36.4829C147.388 42.4739 145.298 48.9504 143.75 55.5759C142.58 60.5823 142.515 65.7299 142.763 70.863C142.826 72.1618 142.863 73.4619 142.912 74.7614C142.721 74.8322 142.529 74.9026 142.337 74.9734C142.305 74.6613 142.301 74.3429 142.236 74.0382ZM111.755 116.807C108.449 118.603 105.146 120.405 101.822 122.166C100.851 122.68 99.851 123.208 98.8014 123.487C91.7529 125.358 84.6879 127.166 77.6265 128.986C77.3122 129.067 76.9789 129.07 76.4661 129.133C75.8959 127.633 75.5411 126.073 75.1414 124.334C76.203 124.226 77.0623 124.153 77.918 124.049C81.7505 123.583 85.5954 123.198 89.4103 122.612C93.0337 122.055 96.5016 120.88 99.7342 119.119C103.81 116.898 108.256 116.163 112.757 115.597C112.811 115.59 112.885 115.745 113.073 115.975C112.621 116.263 112.204 116.564 111.755 116.807ZM105.971 236.798C104.064 233.906 102.676 230.767 101.826 227.409C101.119 224.615 100.54 221.787 99.9286 218.968C98.9418 214.415 97.9712 209.858 97.0049 205.3C96.8728 204.676 96.8071 204.039 96.6999 203.339C99.9293 203.261 101.261 205.581 102.72 207.597C103.117 208.145 103.017 209.087 103.073 209.853C103.252 212.288 103.335 214.731 103.565 217.16C104.07 222.492 105.147 227.708 107.193 232.662C107.932 234.449 107.835 236.027 106.896 237.889C106.507 237.434 106.199 237.143 105.971 236.798ZM165.3 54.6922C161.503 56.9383 158.667 60.2353 155.859 63.5234C152.353 67.6283 150.445 72.4345 150.375 77.8966C150.335 81.0135 150.365 84.1309 150.309 87.2473C150.287 88.4652 150.148 89.685 149.987 90.8935C149.954 91.1391 149.554 91.5433 149.371 91.5192C148.976 91.4673 148.463 91.2793 148.27 90.973C147.989 90.5274 147.857 89.9349 147.819 89.3935C147.65 86.9551 147.379 84.5091 147.438 82.0722C147.542 77.7002 148.495 73.4608 149.918 69.3254C150.837 66.6556 152.232 64.2386 154.033 62.1124C156.113 59.6566 158.305 57.282 160.6 55.0288C163.136 52.5389 165.84 50.2219 168.482 47.843C168.779 47.5755 169.154 47.3952 169.743 47.0106C169.373 50.5051 168.07 53.0535 165.3 54.6922ZM213.905 48.5695C215.725 48.5217 217.106 49.2368 218.464 49.8765C223.923 52.4491 224.503 53.2345 225.607 59.2118C226.005 61.368 226.38 63.5322 226.34 66.1674C224.922 65.1111 223.856 64.207 222.684 63.4758C221.475 62.7212 220.19 62.0726 218.887 61.4916C217.594 60.9146 216.238 60.48 214.716 59.9105C214.432 55.9397 214.173 52.3177 213.905 48.5695ZM122.192 137.945C121.327 140.45 120.034 142.814 118.836 145.191C118.238 146.377 117.48 147.492 116.7 148.571C114.098 152.172 111.467 155.752 108.817 159.317C108.102 160.279 106.604 160.018 106.146 158.898C105.78 158.004 105.929 157.174 106.453 156.366C107.271 155.104 108.47 154.301 109.743 153.623C112.508 152.149 114.299 149.844 115.675 147.077C116.72 144.974 117.155 142.818 116.377 140.628C115.62 138.497 116.137 136.746 117.292 134.98C119.135 132.163 121.314 129.669 123.981 127.621C124.3 127.377 124.688 127.225 125.351 126.863C124.219 130.906 123.385 134.488 122.192 137.945ZM90.5301 129.794C86.5498 132.805 82.5802 135.83 78.606 138.848C77.8935 139.39 77.203 139.847 76.1955 139.661C74.3131 139.313 73.4951 138.573 73.1708 136.671C72.7022 133.922 74.3019 131.246 77.0111 130.52C82.5651 129.031 88.1411 127.626 93.7112 126.2C93.9985 126.127 94.3174 126.178 94.6213 126.172C94.6775 126.333 94.7339 126.494 94.7901 126.655C93.3694 127.7 91.9371 128.73 90.5301 129.794ZM135 57.3371C134.414 56.5912 134.083 56.3275 133.958 55.9867C132.967 53.2884 131.992 50.5834 131.059 47.8639C130.328 45.7314 130.29 43.5357 130.506 41.2972C130.723 39.0383 131.697 37.2865 133.548 36.0323C135.083 34.9923 136.65 34.0006 138.641 32.7012C138.593 41.2751 135.949 48.8973 135 57.3371ZM142.824 153.438C142.55 150.108 143.534 147.012 143.491 143.867C143.449 140.766 143.488 137.663 143.416 134.563C143.343 131.386 142.94 128.217 143.007 124.872C143.402 125.115 143.649 125.176 143.705 125.315C145.585 129.93 147.35 134.581 148.216 139.527C148.792 142.816 148.981 146.129 148.812 149.461C148.763 150.431 148.542 151.394 148.402 152.34C146.537 153.055 144.78 153.093 142.824 153.438ZM104.901 208.678C106.173 208.785 107.156 209.549 108.017 210.317C109.077 211.263 109.999 212.388 110.866 213.524C112.195 215.265 112.622 217.143 112.244 219.444C111.576 223.509 110.503 227.4 108.71 231.664C105.918 226.256 103.972 214.084 104.901 208.678ZM82.7763 94.325C88.8977 92.9441 95.0181 92.8128 101.167 94.1654C104.72 94.947 108.289 95.7063 111.89 96.1955C113.709 96.4428 115.628 96.1794 117.473 95.9279C118.494 95.7887 119.417 95.8097 120.394 96.0748C126.5 97.7338 132.738 98.3993 139.052 98.5671C140.09 98.5947 141.265 98.1418 142.436 99.2154C141.565 99.4771 140.881 99.7843 140.17 99.8799C135.634 100.49 131.082 100.366 126.687 99.1871C120.843 97.6186 114.946 97.2121 108.964 97.6544C106.704 97.8216 104.582 97.6509 102.538 96.6087C101.758 96.2114 100.874 96.0215 100.04 95.7306C97.1329 94.7162 94.2031 94.6742 91.242 95.5113C90.0723 95.8421 88.9012 96.1965 87.7082 96.4084C85.6858 96.7678 83.7388 96.6638 82.0625 94.8715C82.4346 94.5799 82.5868 94.3679 82.7763 94.325ZM200.112 78.6125C199.168 78.5335 198.18 78.513 197.214 78.3605C187.075 76.7631 177.465 78.5418 168.188 82.8356C164.317 84.6271 160.308 86.1145 156.139 87.3795C156.608 86.972 157.055 86.5358 157.549 86.1618C164.382 80.9857 172.028 77.6573 180.379 75.9257C182.566 75.4719 184.773 75.4445 186.971 75.6804C191.599 76.1772 196.212 76.355 200.818 75.446C201.001 75.41 201.22 75.5601 201.521 75.6547C201.631 76.8425 200.835 77.634 200.112 78.6125ZM84.9657 73.7513C86.9218 72.9629 88.8838 72.488 91.0482 73.3987C95.647 75.3341 100.021 77.6973 104.378 80.1002C106.506 81.2745 108.573 82.5638 110.656 83.8191C110.984 84.0167 111.254 84.3124 111.598 84.6032C111.238 84.8 111.034 85.0128 110.878 84.9823C102.809 83.4113 95.1712 80.4355 87.4593 77.7085C86.1214 77.2352 84.8577 76.5515 83.043 75.7312C83.9292 74.7887 84.3419 74.0025 84.9657 73.7513ZM88.2519 88.1646C84.6253 88.2369 81.0032 88.5847 77.3452 88.8139C76.3575 87.7789 75.7956 86.5869 75.4663 85.2882C74.8943 83.0307 75.7968 81.6282 78.1173 81.2096C78.7476 81.0956 79.4381 81.124 80.0693 81.2486C83.7077 81.9675 95.1905 86.1678 99.5289 88.3964C95.4296 88.2997 91.8381 88.0933 88.2519 88.1646ZM225.902 50.2088C225.024 50.3517 224.934 49.7136 224.721 49.2551C223.597 46.8432 222.531 44.4026 221.365 42.0115C219.926 39.059 220.082 36.7449 222.059 33.6569C225.232 35.1094 229.822 38.819 232.127 41.8885C229.447 44.414 227.416 47.1696 225.902 50.2088ZM92.6847 111.437C98.8845 112.529 105.113 113.362 111.453 113.019C118.053 112.662 124.361 111.266 130.279 108.204C132.937 106.829 135.639 105.541 138.323 104.217C139.97 103.405 141.695 102.84 143.653 102.742C143.185 103.163 142.742 103.62 142.244 104.001C137.87 107.346 133.001 109.694 127.739 111.215C122.943 112.601 118.022 113.362 113.095 114.065C112.552 114.143 111.995 114.135 111.445 114.144C106.919 114.214 102.392 114.341 97.8664 114.323C95.0018 114.313 92.1369 114.113 89.2761 113.936C88.5269 113.89 87.7923 113.612 86.7273 113.365C88.5428 111.064 90.4658 111.047 92.6847 111.437ZM174.617 106.594C172.787 105.825 171.027 104.874 169.274 103.934C165.961 102.157 162.723 100.231 159.36 98.5561C157.203 97.4822 154.879 96.7478 152.689 95.8848C152.486 95.0646 152.93 94.6362 153.482 94.618C154.57 94.5826 155.715 94.5554 156.745 94.8493C159.081 95.5168 161.407 96.2668 163.655 97.1871C169.794 99.7002 175.891 102.317 181.998 104.908C182.152 104.974 182.229 105.225 182.474 105.582C179.923 106.84 177.386 107.757 174.617 106.594ZM137.132 122.506C135.346 129.79 134.963 137.252 134.211 144.671C133.673 149.984 132.932 155.277 132.226 160.572C132.082 161.654 131.694 162.704 131.454 163.628C130.207 164.307 129.164 164.269 127.958 163.976C127.939 163.421 127.837 162.982 127.923 162.584C128.543 159.755 129.156 156.923 129.857 154.114C130.937 149.79 132.107 145.489 133.198 141.169C134.052 137.792 134.265 134.305 134.058 130.883C133.823 126.992 134.954 123.692 137.322 120.193C137.243 121.239 137.282 121.896 137.132 122.506ZM165.851 77.6072C166.736 77.0034 167.818 76.5775 168.869 76.3522C174.379 75.1704 179.819 73.7896 185.15 71.8953C190.031 70.1611 195.086 69.9303 200.153 71.1591C200.686 71.2884 201.258 71.3878 201.711 71.6672C202.022 71.8591 202.337 72.3468 202.321 72.6875C202.304 73.0461 201.97 73.5335 201.642 73.7043C201.066 74.0035 200.398 74.216 199.753 74.2675C197.121 74.4786 194.485 74.6594 191.847 74.7582C190.753 74.7991 189.644 74.6508 188.552 74.5091C184.213 73.9461 179.987 74.453 175.801 75.698C171.119 77.0906 166.625 78.906 162.395 81.3722C161.736 81.7565 161.076 82.1416 160.417 82.5264C160.285 82.3427 160.152 82.1591 160.02 81.9755C161.956 80.5087 163.847 78.9735 165.851 77.6072ZM148.017 34.3743C147.275 33.8028 147.513 33.2407 147.646 32.7293C149.047 27.3669 150.47 22.0104 151.867 16.6471C152.174 15.4686 152.412 14.2717 152.665 13.0796C152.948 11.7504 153.718 10.9133 155.052 10.6381C156.536 10.3321 157.99 9.78663 160.086 9.91827C156.902 18.8287 152.403 26.5462 148.017 34.3743ZM155.899 89.6695C158.694 87.8083 161.888 86.8567 165.008 85.7574C165.608 85.5462 166.322 85.5833 166.976 85.6245C170.843 85.8676 174.678 85.4549 178.522 85.1318C181.484 84.8828 184.457 84.7619 187.427 84.6267C188.865 84.5612 190.268 84.7925 191.795 85.451C191.819 86.5012 191.844 87.5598 191.874 88.8637C191.106 88.7372 190.568 88.7423 190.106 88.557C186.29 87.0269 182.427 86.7318 178.459 87.9615C176.437 88.5884 174.378 88.7465 172.25 88.4851C170.399 88.2574 168.512 88.2201 166.643 88.2587C163.299 88.3276 160.088 89.0797 157.055 90.5431C156.269 90.9226 155.479 91.2958 154.691 91.6719C154.562 91.4961 154.433 91.3205 154.304 91.1448C154.833 90.6483 155.304 90.0652 155.899 89.6695ZM115.315 94.8895C114.608 94.9654 114.065 95.1337 113.558 95.0602C110.504 94.6168 107.387 94.382 104.423 93.5854C97.2309 91.6527 90.0474 91.4148 82.7791 92.9855C82.4547 93.0555 82.1231 93.1018 81.8079 93.2008C80.7068 93.5471 79.8471 93.2424 79.2555 92.2522C78.9345 91.715 78.6618 91.1486 78.3408 90.5459C87.4198 88.132 108.754 89.5824 115.315 94.8895ZM203.396 200.008C203.416 200.434 203.338 200.925 203.137 201.293C201.924 203.506 200.663 205.693 199.319 208.062C198.158 207.338 198.017 206.13 197.369 205.315C196.752 204.539 196.179 203.706 195.457 203.041C194.667 202.315 193.729 201.753 192.683 200.995C196.811 198.25 199.52 194.309 202.876 190.05C203.079 193.82 203.258 196.913 203.396 200.008ZM128.151 122.683C127.715 123.301 127.137 123.89 126.497 124.28C122.445 126.746 119.122 129.965 116.442 133.881C116.327 134.049 116.111 134.148 115.738 134.438C115.637 133.968 115.449 133.592 115.496 133.247C116.278 127.483 119.028 122.943 124.061 120.006C126.826 118.392 129.758 117.069 133.118 115.358C131.263 118.108 129.743 120.421 128.151 122.683ZM178.346 62.4176C185.836 58.2147 193.939 56.1876 202.417 55.5094C202.851 55.4747 203.318 55.4721 203.723 55.6025C203.98 55.6856 204.273 56.0185 204.323 56.2834C204.375 56.5616 204.245 57.041 204.036 57.1709C203.387 57.5736 202.691 57.9509 201.963 58.162C198.031 59.3049 194.111 60.5151 190.133 61.4706C185.832 62.5037 181.471 63.2845 177.133 64.1607C176.951 64.1974 176.741 64.0888 175.951 63.9252C177.053 63.2289 177.682 62.7906 178.346 62.4176ZM111.525 106.893C114.238 108.066 117.006 109.113 119.739 110.213C119.671 110.324 119.591 110.623 119.452 110.654C114.801 111.703 110.089 111.974 105.346 111.706C103.177 111.584 100.97 111.651 98.5999 110.804C102.378 105.722 106.324 104.647 111.525 106.893ZM204.079 205.455C204.9 209.262 205.678 213.079 206.536 216.877C206.812 218.096 206.974 219.23 206.528 220.467C205.241 224.032 204.054 227.632 202.803 231.209C202.636 231.686 202.323 232.111 202.107 232.508C201.185 232.335 200.938 231.761 201.076 231.254C201.425 229.98 201.699 228.593 202.415 227.531C204.601 224.287 204.395 221.043 202.877 217.696C202.051 215.874 201.201 214.063 200.334 212.26C199.813 211.179 199.77 210.112 200.374 209.071C201.365 207.36 201.923 205.384 203.577 203.737C203.786 204.446 203.968 204.943 204.079 205.455ZM190.735 45.5033C186.838 46.7904 183.003 48.2281 179.397 50.223C175.468 52.3963 171.995 55.0988 169.445 58.8898C168.952 59.6223 168.31 60.254 167.737 60.9314C165.657 63.3884 163.586 65.8528 161.488 68.2937C161.174 68.6589 161.096 69.3744 160.211 69.2107C160.511 68.0856 161.227 67.2553 161.88 66.3908C166.383 60.4345 171.263 54.8438 177.042 50.0792C178.747 48.673 180.186 46.9439 181.809 45.4303C184.948 42.5031 188.596 41.9096 192.599 43.178C192.906 43.2752 193.197 43.4673 193.45 43.6719C193.604 43.796 193.671 44.0283 193.875 44.3803C192.783 44.772 191.767 45.1625 190.735 45.5033ZM188.847 102.452C187.284 102.351 185.772 101.656 184.272 101.017C180.218 99.2879 176.201 97.4721 172.164 95.7041C170.754 95.0868 169.329 94.5076 167.452 93.7183C168.416 93.5641 168.966 93.3788 169.505 93.4049C175.168 93.6791 180.61 95.03 185.947 96.86C187.809 97.4984 189.646 98.2089 191.751 98.9801C191.044 100.757 190.206 101.716 188.847 102.452ZM189.323 349.41C187.213 350.248 185.281 351.016 183.255 351.821C183.06 351.62 182.719 351.436 182.659 351.183C181.105 344.653 177.398 339.256 173.758 333.818C173.111 332.853 172.226 332.003 171.772 330.264C178.788 336.005 183.383 343.222 189.323 349.41ZM123.672 279.843C122.017 282.671 114.319 293.023 112.686 294.611C111.324 293.995 110.248 292.943 109.176 291.942C111.209 287.07 118.183 280.805 124.08 278.572C123.922 279.082 123.869 279.505 123.672 279.843ZM133.302 97.0011C127.331 96.4904 121.519 95.264 115.883 93.1863C112.674 92.0037 109.396 91.0137 106.177 89.8606C104.938 89.4167 103.769 88.7741 102.579 88.1988C96.799 85.4039 90.8379 83.0759 84.7046 81.1889C83.8608 80.9292 83.0239 80.6442 82.1973 80.3352C82.0254 80.2713 81.9116 80.0499 81.7712 79.9011C81.9151 79.3322 82.3425 79.2695 82.7792 79.4168C85.3947 80.299 88.0196 81.158 90.6083 82.1148C99.8297 85.5221 109.019 89.0158 118.258 92.3745C123.041 94.1131 127.985 95.2894 133.026 96.0367C133.775 96.148 134.504 96.3995 135.242 96.586C135.231 96.7035 135.221 96.821 135.21 96.9385C134.573 96.9628 133.931 97.0549 133.302 97.0011ZM220.073 33.8539C219.793 34.8068 219.487 35.7519 219.09 37.0253C218.473 36.4845 218.036 36.2049 217.737 35.817C217.128 35.0284 216.601 34.1764 216.028 33.3595C215.583 32.7245 215.139 32.0858 214.655 31.481C214.25 30.9756 213.853 30.3538 213.039 30.7236C212.513 30.9625 212.505 31.6208 213.065 32.4649C213.801 33.5733 214.593 34.6432 215.331 35.7498C215.618 36.1805 215.823 36.6667 216.242 37.4625C214.294 36.8514 212.764 36.3717 211.195 35.8795C209.867 32.1752 208.566 28.549 207.212 24.7712C209.469 25.4309 217.298 29.9952 220.393 32.4256C220.266 33.0036 220.196 33.4365 220.073 33.8539ZM76.7765 205.222C76.4243 212.161 76.6087 219.21 78.4045 226.142C77.4731 226.238 77.481 225.506 77.3188 225.092C76.3119 222.519 75.4004 219.908 74.394 217.334C73.0658 213.938 71.6781 210.566 70.3186 207.182C70.1193 206.687 69.9328 206.185 69.6538 205.462C72.2058 205.376 74.3795 205.303 76.7765 205.222ZM202.761 69.9256C202.285 70.0004 201.967 70.1246 201.671 70.0853C199.491 69.7973 197.325 69.3344 195.137 69.197C190.896 68.9308 186.829 69.8823 182.821 71.2558C179.903 72.2559 176.913 73.0445 173.949 73.9057C173.459 74.0481 172.936 74.0778 172.305 74.1794C172.508 73.7909 172.554 73.5325 172.695 73.4573C181.133 68.978 190.038 66.358 199.645 66.5761C200.41 66.5935 201.178 66.7195 201.932 66.862C202.232 66.9187 202.497 67.1582 202.935 67.4018C202.879 68.2121 202.821 69.052 202.761 69.9256ZM194.021 196.254C197.056 189.269 200.349 182.412 204.274 175.066C204.41 176.169 204.542 176.572 204.493 176.952C204.121 179.815 203.758 182.68 203.292 185.528C203.135 186.489 202.87 187.526 202.342 188.317C200.185 191.547 197.882 194.676 195.093 197.398C194.735 197.747 194.264 197.977 193.329 198.615C193.673 197.422 193.78 196.809 194.021 196.254ZM154.483 333.551C156.66 335.922 158.965 338.174 161.674 339.903C163.847 341.29 165.254 343.094 165.818 345.861C164.61 345.973 163.512 345.227 162.382 345.414C161.197 345.61 160.034 345.938 158.651 346.256C157.528 344.966 157.15 343.199 156.429 341.626C155.736 340.114 155.119 338.565 154.505 337.018C153.868 335.415 153.055 333.873 152.965 331.968C153.471 332.495 153.989 333.012 154.483 333.551ZM211.855 38.2096C213.127 37.649 213.96 38.2899 214.829 38.6487C217.139 39.6019 218.986 41.0378 219.994 43.4523C220.759 45.2851 221.686 47.0482 222.498 48.862C222.708 49.3315 222.756 49.875 222.929 50.5952C219.696 49.134 216.72 47.7886 213.492 46.3297C212.924 43.7822 212.281 41.0264 211.855 38.2096ZM79.6424 143.855C79.2627 142.82 78.8863 141.794 78.4691 140.657C85.4519 135.322 92.258 129.872 99.6961 125.378C87.2663 138.197 82.6416 142.381 79.6424 143.855ZM152.469 107.22C153.176 106.862 153.297 107.45 153.524 107.746C155.622 110.473 157.963 112.958 160.599 115.167C162.509 116.768 163.852 118.768 164.488 121.205C164.998 123.162 164.858 124.956 162.643 126.474C159.169 119.903 155.081 113.969 152.469 107.22ZM121.73 109.047C118.37 108.623 115.422 107.222 112.448 105.855C112.44 105.015 113.103 104.994 113.572 104.793C114.383 104.446 115.222 104.162 116.037 103.823C118.516 102.792 120.928 102.758 123.363 104.036C125.209 105.004 127.144 105.8 129.485 106.877C126.878 108.65 124.534 109.402 121.73 109.047ZM127.632 59.1645C128.431 58.7554 128.636 59.252 128.868 59.5669C129.738 60.7496 130.317 62.0854 130.354 63.5573C130.443 67.0625 131.333 70.3197 132.887 73.4473C133.418 74.515 133.613 75.7679 133.866 76.9572C134.393 79.4427 134.857 81.9422 135.348 84.436C129.792 76.9719 128.002 68.2502 127.632 59.1645ZM111.272 88.5687C104.343 85.9941 97.4246 83.3914 90.5031 80.7963C90.1996 80.6825 89.9122 80.5251 89.6923 80.1527C90.3794 80.3682 91.0671 80.5821 91.7537 80.7996C95.7518 82.0656 99.7466 83.3425 103.748 84.5965C107.232 85.6879 110.78 86.4479 114.424 86.792C115.376 86.882 116.357 87.2399 117.21 87.6922C119.939 89.1375 122.618 90.676 125.303 92.2025C125.749 92.4557 126.126 92.8293 126.535 93.1471C121.242 92.0249 116.221 90.4075 111.272 88.5687ZM185.381 104.281C184.514 104.154 183.64 103.954 182.821 103.642C178.594 102.029 174.357 100.436 170.173 98.7143C165.995 96.9949 161.875 95.1318 157.588 93.2699C158.897 93.1408 160.133 93.2111 161.313 93.5822C165.207 94.8074 169.138 95.9451 172.949 97.3966C176.761 98.848 180.451 100.626 184.183 102.285C184.963 102.632 185.694 103.088 186.828 103.698C186.076 104.017 185.702 104.328 185.381 104.281ZM203.276 145.259C200.372 144.063 197.315 143.747 194.256 143.333C192.735 143.127 191.238 142.718 189.747 142.336C189.517 142.277 189.177 141.801 189.233 141.635C189.357 141.267 189.669 140.939 189.969 140.665C190.102 140.545 190.392 140.572 190.609 140.576C194.023 140.637 197.438 140.725 200.852 140.764C202.991 140.789 204.678 141.641 205.969 143.343C206.556 144.116 207.184 144.857 208.26 146.19C205.967 146.102 204.564 145.79 203.276 145.259ZM157.265 70.6889C157.779 73.0099 157.323 76.2028 155.777 81.1136C154.683 84.5892 153.508 88.0326 151.817 91.4164C150.84 84.6669 153.223 75.7027 157.265 70.6889ZM135.287 68.0957C133.253 64.1683 131.66 60.0074 129.03 56.3976C127.306 54.0303 127.844 51.8326 129.896 49.6496C131.274 51.7332 131.721 54.137 132.651 56.3154C133.564 58.4532 134.42 60.6349 135.055 62.8694C135.706 65.1651 136.598 67.4385 136.651 70.0498C135.686 69.5687 135.617 68.7335 135.287 68.0957ZM155.387 101.865C153.216 100.493 152.256 99.4387 151.434 97.4211C152.276 97.4896 153.067 97.3954 153.741 97.6341C158.749 99.4066 163.398 101.901 167.762 104.922C163.24 105.225 159.134 104.233 155.387 101.865ZM191.556 83.7977C187.947 83.025 184.315 83.305 180.68 83.6035C177.273 83.8834 173.863 84.1332 170.453 84.372C170.056 84.3997 169.575 84.6157 169.127 83.949C170.13 83.4775 171.081 82.983 172.069 82.5801C173.091 82.1633 174.139 81.8025 175.196 81.4868C175.601 81.3658 176.076 81.3633 176.496 81.4344C180.223 82.065 183.974 81.8372 187.723 81.7953C189.486 81.7756 191.25 81.8778 193.012 81.9545C193.317 81.968 193.615 82.132 194.157 82.302C193.467 83.6244 192.699 84.0425 191.556 83.7977ZM100.303 288.551C104.79 286.339 110.879 284.082 113.384 283.74C111.369 286.149 109.489 288.396 107.471 290.809C104.777 290.463 101.992 290.106 98.7498 289.69C99.4948 289.137 99.8622 288.769 100.303 288.551ZM83.2825 258.047C81.4755 257.216 79.6788 256.362 77.8618 255.555C76.3096 254.865 74.9695 254.008 74.2709 252.32C73.8164 251.222 73.1479 250.213 72.4483 248.932C73.0825 249.004 73.4174 248.954 73.6552 249.084C75.3778 250.023 88.3183 259.456 90.2005 261.218C87.4701 259.966 85.3753 259.008 83.2825 258.047ZM157.723 105.27C158.349 105.649 158.866 106.318 159.258 106.963C160.368 108.79 161.009 110.778 161.004 113.025C159.842 113.263 159.385 112.351 158.827 111.791C156.02 108.978 153.402 106.015 151.659 101.924C153.923 103.158 155.864 104.145 157.723 105.27ZM126.467 45.9176C126.747 47.1698 126.617 48.542 126.517 49.8483C126.385 51.5907 126.101 53.3222 125.836 55.4255C125.329 54.7461 124.909 54.3225 124.653 53.8143C123.251 51.0305 122.455 48.0719 122.183 44.8279C124.891 42.8777 125.842 43.116 126.467 45.9176ZM157.491 67.9109C155.41 70.4244 153.956 73.2789 152.67 76.2442C152.498 76.6414 152.294 77.0248 151.912 77.812C151.519 74.9021 152.307 72.6249 153.174 70.4118C154.36 67.3885 156.154 64.7429 158.896 62.187C158.846 65.4024 158.658 66.5018 157.491 67.9109ZM197.467 46.866C197.601 47.0095 197.616 47.2664 197.686 47.4714C197.543 47.5983 197.413 47.8107 197.253 47.8363C194.536 48.2731 191.797 48.5968 189.099 49.1282C185.521 49.8327 182.139 51.192 178.585 52.8752C180.668 50.4196 188.639 47.0502 195.979 45.4281C196.527 45.95 197.018 46.3875 197.467 46.866ZM110.417 133.131C110.099 135.575 108.908 136.651 106.528 136.899C105.886 136.965 105.23 136.884 104.282 136.865C105.682 133.087 107.9 130.181 110.77 127.061C110.644 129.422 110.657 131.293 110.417 133.131ZM110.281 159.554C113.464 155.164 116.662 150.785 120.007 146.202C119.711 148.663 118.467 150.491 117.543 152.424C116.248 155.135 114.642 157.677 112.651 159.939C112.315 160.321 111.775 160.608 111.279 160.728C110.942 160.81 110.518 160.525 110.18 160.419C110.226 159.97 110.173 159.703 110.281 159.554ZM162.029 60.1803C162.256 59.5846 162.658 58.96 163.155 58.5803C165.399 56.8655 167.707 55.2337 170.221 53.404C170.232 53.9835 170.355 54.3558 170.225 54.5061C167.346 57.8308 164.44 61.1317 161.531 64.4305C161.477 64.4916 161.337 64.4758 160.615 64.6198C161.159 62.8759 161.525 61.5014 162.029 60.1803ZM113.28 66.7376C111.398 64.577 109.534 62.4013 107.727 60.2999C108.15 58.4591 108.139 58.4499 109.682 57.0642C111.198 58.2915 111.643 60.1682 112.39 61.8275C113.111 63.429 113.668 65.1056 114.475 67.2119C113.654 66.8943 113.4 66.8754 113.28 66.7376ZM196.651 81.0699C191.616 80.2466 186.55 80.5704 181.492 80.5763C181.301 80.5767 181.111 80.4004 180.921 80.3065C184.963 78.7493 193.174 78.6078 198.66 80.2273C197.591 80.6939 197.079 81.1401 196.651 81.0699ZM70.488 262.383C70.9606 260.968 72.0461 260.737 73.1535 260.887C74.3391 261.049 75.4892 261.469 76.6475 261.775C77.3855 263.137 78.0128 264.379 78.101 266.108C75.2414 265.158 72.7358 264.118 70.488 262.383ZM126.048 285.619C125.741 286.42 125.631 286.917 125.381 287.326C123.584 290.268 121.776 293.203 119.922 296.109C119.644 296.544 119.155 296.934 118.678 297.121C118.341 297.252 117.859 297.004 117.143 296.869C118.82 293.688 123.217 288.137 126.048 285.619ZM139.351 81.9513C138.271 81.1146 137.899 80.0897 137.4 79.1799C135.329 75.4068 134.158 71.2731 132.769 67.1878C134.831 69.5996 138.606 78.3502 139.351 81.9513ZM126.731 288.724C126.676 289.83 126.61 290.667 126.598 291.504C126.586 292.379 126.626 293.255 126.643 294.143C125.276 295.575 123.784 296.547 121.756 296.78C122.63 294.43 124.662 291.126 126.731 288.724ZM129.1 112.161C130.763 111.73 132.374 111.091 134.08 110.728C129.77 113.716 124.765 115.184 120.124 117.444C122.803 115.112 125.614 113.066 129.1 112.161ZM175.203 269.257C176.183 268.734 177.098 268.783 177.892 269.641C176.323 271.248 172.879 272.613 168.244 272.998C170.564 271.75 172.88 270.496 175.203 269.257ZM137.824 82.6611C139.081 84.5713 140.319 86.4939 141.554 88.4003C141.341 88.5945 141.178 88.85 141.064 88.8297C140.017 88.6436 139.361 87.9412 138.856 87.0497C138.046 85.6207 137.355 84.1463 136.885 82.0543C137.492 82.439 137.722 82.5069 137.824 82.6611ZM133.732 104.948C131.362 105.908 129.687 105.175 127.963 104.398C129.66 104.597 131.479 104.262 133.732 104.948ZM123.869 117.316C121.851 119.155 121.851 119.155 119.876 119.438C121.082 118.797 122.288 118.157 123.869 117.316ZM86.397 78.6122C86.3707 78.6909 86.3443 78.7696 86.3177 78.8482C85.4148 78.565 84.5116 78.2817 83.6087 77.9986C83.6191 77.9149 83.6298 77.8313 83.6402 77.7476C84.5594 78.0359 85.4782 78.324 86.397 78.6122Z" fill="white"/>
</g>
</svg>
