<svg width="145" height="227" viewBox="0 0 145 227" fill="none" xmlns="http://www.w3.org/2000/svg">
<path opacity="0.5" d="M137.433 192.844C137.309 189.348 134.67 186.307 132.243 184.044C129.371 181.367 126.143 179.027 122.848 176.902C119.484 174.733 115.955 172.812 112.309 171.159C112.108 171.068 111.903 170.982 111.703 170.891C114.331 169.962 116.868 168.697 119.271 167.379C122.975 165.346 126.483 162.902 129.483 159.914C131.024 158.379 132.57 156.742 133.52 154.763C134.456 152.811 134.604 150.566 134.758 148.441C134.922 146.189 134.971 143.933 134.917 141.675C134.869 139.679 134.866 137.583 134.1 135.705C133.275 133.678 131.48 132.481 129.487 131.757C127.541 131.05 125.482 130.593 123.441 130.263C119.372 129.607 115.226 129.591 111.123 129.873C109.097 130.013 107.077 130.231 105.064 130.494C103.427 130.707 101.78 130.972 100.202 131.47C101.214 130.488 102.174 129.45 103.051 128.328C105.008 125.827 106.331 122.996 107.223 119.959C108.041 117.176 108.91 114.227 108.668 111.298C108.25 106.278 104.508 102.026 100.09 99.9301C95.054 97.5423 89.0271 97.6526 83.6903 98.8527C80.887 99.4834 78.2853 100.634 76.0539 102.462C73.9542 104.182 72.2408 106.364 70.9228 108.73C68.1044 113.79 67.099 119.483 66.7152 125.202C66.6829 125.689 66.6693 126.177 66.6438 126.666C65.9249 123.639 64.7905 120.695 63.1794 118.038C61.9122 115.949 60.3581 114.01 58.5113 112.421C58.532 112.398 58.5534 112.374 58.575 112.352L58.576 112.353C58.5774 112.351 58.5794 112.348 58.5808 112.346C64.1057 106.536 68.8731 100.053 73.4555 93.4809C74.2338 92.7861 75.1232 92.2355 76.0316 91.707C79.1866 90.7336 82.4434 90.1979 85.7518 89.831C90.883 89.2628 96.0173 88.7129 101.15 88.1513C105.93 87.6277 110.734 87.2003 115.492 86.5013C119.707 85.8813 123.951 84.9515 127.817 83.108C136.327 79.0487 141.688 70.2391 143.703 61.2531C144.675 56.9243 144.746 52.4381 143.397 48.1813C142.769 46.1962 141.821 44.3088 140.567 42.6426C139.944 41.8148 139.23 40.9329 138.237 40.5442C137.945 40.4301 137.654 40.383 137.365 40.3787C137.663 39.2853 137.865 38.1546 138.026 37.03C138.122 36.658 138.189 36.2703 138.177 35.9048C138.202 35.6966 138.23 35.4882 138.253 35.2813C138.509 33.0256 138.602 30.7511 138.425 28.4853C138.063 23.8632 136.414 19.5311 133.669 15.7993C130.816 11.922 126.987 8.84962 122.832 6.46531C120.502 5.12698 118.068 3.97522 115.587 2.94693C113.417 2.04575 111.184 1.07119 108.86 0.651385C106.427 0.211069 104.068 0.810114 102.137 2.35187C100.848 3.3799 99.8168 4.68165 98.8954 6.05124C98.3993 4.96402 97.6042 4.03053 96.6131 3.32233C93.6238 1.18774 89.8276 1.47312 86.453 2.36339C82.9158 3.29665 79.352 4.55626 76.3607 6.70921C74.4268 8.10112 72.9099 9.88727 71.6936 11.8777C71.2302 11.9236 70.7672 11.9873 70.3073 12.0589C69.3981 12.1994 68.5005 12.4034 67.6053 12.6163C65.8245 13.0387 64.0626 13.5369 62.3226 14.1086C58.9512 15.2174 55.6454 16.5757 52.6875 18.5608C49.8789 20.4456 47.4909 22.9449 46.1872 26.1009C44.8745 29.2796 44.9982 32.8146 45.6534 36.13C46.3429 39.6119 47.5468 43.0086 49.2005 46.1495C50.83 49.2428 52.92 52.069 55.1107 54.7838C59.5235 60.2531 64.4521 65.4349 67.2377 71.9882C68.6307 75.2636 69.7284 78.7693 70.4361 82.2583C70.4366 82.2616 70.4372 82.2648 70.4378 82.2681C70.4796 83.0116 70.5356 83.7536 70.5149 84.4992C70.4886 85.4556 70.3813 86.4053 70.1989 87.3425C69.8029 89.3731 69.0307 91.3287 68.1365 93.1861C66.1235 97.3673 63.4764 101.27 61.0107 105.191L57.4729 110.818C57.3574 110.987 57.2399 111.155 57.1261 111.324L57.1247 111.326C56.3031 110.745 55.4296 110.233 54.5041 109.805C51.1736 108.264 47.3858 108.13 43.9189 109.282C42.2948 109.821 40.8504 110.668 39.5677 111.716C41.5448 108.375 43.2915 104.904 44.4306 101.175C47.3878 91.5001 46.7132 81.1964 45.4588 71.2972C45.2927 69.9839 45.3065 68.3512 44.5074 67.235C43.6401 66.0225 42.2153 66.2968 41.1235 67.0001C38.5353 68.6682 36.4413 71.2728 34.9819 73.9543C34.5845 73.0226 34.1585 72.1026 33.7075 71.1953C32.8115 69.3909 31.8215 67.633 30.7733 65.9122C29.7307 64.1998 28.6904 62.4207 27.46 60.8363C26.271 59.3059 24.5302 58.3884 22.6262 59.1791C21.7786 59.5316 21.0439 60.1281 20.3987 60.8215C20.2027 60.6027 19.9538 60.4379 19.6479 60.2574C19.0778 59.9215 18.5052 59.5912 17.9285 59.2666C16.8427 58.6553 15.7414 58.072 14.6292 57.5101C12.6279 56.4995 10.6482 55.964 8.40251 56.3341C6.33865 56.6749 4.31213 57.5136 2.47659 58.4965C0.603013 59.5003 -1.13879 60.7439 -2.68856 62.1977C-3.56267 63.0175 -4.37802 63.908 -5.12344 64.8451C-5.65627 65.515 -6.22852 66.2426 -6.64369 67.025C-7.3884 66.96 -8.13505 67.0083 -8.8635 67.248C-10.2624 67.7089 -11.3121 68.8482 -12.0374 70.0927C-12.8418 71.4712 -13.3086 72.9816 -13.5895 74.5468C-13.7347 75.3536 -13.825 76.1688 -13.8913 76.9851C-13.9299 77.4714 -13.9915 77.9863 -13.9978 78.4926C-15.9422 78.0199 -18.0709 78.1001 -19.8012 79.1372C-22.5049 80.7554 -23.2265 83.9395 -23.6954 86.8325C-24.1274 89.4934 -24.4889 92.1695 -24.6437 94.8629C-24.9334 94.5183 -25.2352 94.1826 -25.5602 93.8652C-26.2555 93.1881 -27.2742 92.353 -28.3128 92.8052C-29.5767 93.356 -29.3063 95.0421 -29.2834 96.1523C-29.2578 97.4038 -29.1636 98.6487 -29.0086 99.8917C-28.3806 104.926 -26.7996 109.857 -24.2823 114.268C-21.5469 119.062 -17.7232 123.228 -13.0823 126.234C-10.715 127.768 -8.14587 129.021 -5.46064 129.89C-2.68268 130.789 0.200433 131.25 3.07695 131.711C3.13285 131.721 3.18781 131.729 3.24371 131.738C5.39123 132.217 7.5656 132.549 9.75376 132.778C10.9854 132.975 12.2171 133.172 13.4487 133.369C15.1306 133.636 16.8162 133.891 18.4953 134.177C19.1555 134.289 19.8343 134.431 20.4743 134.654C20.5463 134.802 20.629 134.943 20.7282 135.067C21.181 135.636 21.7723 136.186 22.4713 136.426C22.9335 136.961 23.3743 137.514 23.7678 138.1C24.9978 139.93 25.7571 142.028 26.309 144.15C27.1518 147.391 27.8859 150.681 28.5297 153.98C29.5719 162.051 29.7133 170.208 30.524 178.302C30.4358 180.16 30.3022 182.017 30.1009 183.869C29.6272 188.219 28.7824 192.473 27.7251 196.706C26.783 197.8 25.8233 198.88 24.8575 199.944C22.8302 202.178 20.7178 204.335 18.5068 206.388C14.0615 210.517 9.22586 214.239 4.09933 217.484C1.24206 219.292 -1.72207 220.932 -4.76025 222.416C-5.02206 222.544 -5.29385 222.838 -5.28251 223.153C-5.22528 224.714 -4.02551 225.82 -2.50741 226.038C-0.973614 226.259 0.448634 225.372 1.63235 224.511C4.77833 222.219 7.88901 219.875 11.016 217.558C11.2143 217.411 11.3087 217.212 11.3275 217.003C13.2064 215.722 15.0124 214.347 16.6447 212.729C19.1531 210.244 21.3221 207.452 23.7307 204.875C26.1264 202.311 28.8033 200.008 31.4181 197.674C33.9261 195.435 36.4705 193.231 39.134 191.178C42.1076 188.886 45.2358 186.79 48.5717 185.06C48.6201 185.034 48.6478 184.997 48.6877 184.968C52.0545 189.516 57.763 192.18 62.6712 194.787C64.5057 195.761 66.337 196.741 68.1834 197.689C69.6306 198.434 71.3458 198.976 72.8414 198.037C74.3411 197.096 74.8069 195.241 75.2408 193.642C75.4162 192.997 75.5816 192.348 75.7352 191.695C77.76 194.403 80.2478 196.789 82.8965 198.867C85.9866 201.294 89.4254 203.181 93.2157 204.251C99.5269 206.033 106.247 206.447 112.751 205.717C119.087 205.006 125.326 203.156 131 200.245C133.979 198.718 137.568 196.677 137.433 192.844ZM114.152 176.145C116.011 177.056 117.769 178.163 119.56 179.196C122.819 181.076 126.09 182.934 129.36 184.796C129.382 184.837 129.403 184.878 129.442 184.914C130.306 185.741 131.122 186.566 131.616 187.675C125.381 184.529 118.777 182.202 112.018 180.385C103.503 178.098 94.7446 176.668 86.0027 175.57C83.5081 175.258 81.0115 174.973 78.5132 174.702C78.4778 174.699 78.4422 174.694 78.4068 174.691C78.4128 174.686 78.4188 174.682 78.4249 174.677C78.5693 174.658 78.7147 174.639 78.8645 174.626C79.4282 174.576 79.9293 174.432 80.2898 174.056C82.6332 173.806 84.9937 173.696 87.3445 173.554C90.4649 173.365 93.5916 173.221 96.7202 173.184C96.8169 173.189 96.9122 173.189 97.0089 173.194C100.886 173.403 104.783 173.716 108.611 174.385C110.527 174.718 112.403 175.289 114.152 176.145ZM55.3449 161.308C55.3425 161.313 55.3443 161.319 55.3428 161.325C54.4616 160.988 53.5428 160.763 52.5731 160.733C50.7177 160.677 48.9064 161.165 47.128 161.632C45.0928 162.165 43.0605 162.701 41.0402 163.287C39.5619 160.607 38.0029 157.808 37.4391 154.789C37.5612 154.699 37.6507 154.556 37.6692 154.356C37.744 153.555 37.9413 152.799 38.2206 152.071C38.7242 151.011 39.5426 150.118 40.5442 149.524C41.3898 149.174 42.3012 148.991 43.2357 148.954C46.7053 151.894 50.5553 154.609 53.9437 157.735C54.2342 158.866 55.6879 159.788 55.6128 160.946C55.4989 161.035 55.4058 161.152 55.3449 161.308ZM56.7994 158.06C54.1132 155.327 51.0359 152.916 48.0781 150.587C42.1894 145.949 35.6784 140.56 34.0397 132.835C33.6848 131.161 33.6161 129.463 33.7516 127.777C36.6295 129.078 39.3515 130.706 41.9572 132.483C43.3052 133.402 44.6053 134.389 45.8849 135.4C47.1868 136.427 48.5102 137.436 49.741 138.549C50.9227 139.619 51.8752 140.838 52.6267 142.243C53.3803 143.65 53.9902 145.136 54.6253 146.6C55.9376 149.621 57.1896 152.667 58.4145 155.724C59.0945 157.421 59.7778 159.119 60.4515 160.819C60.468 160.861 60.4832 160.905 60.5004 160.947C60.4483 160.91 60.3945 160.873 60.3442 160.837C59.6091 160.321 58.8742 159.8 58.2367 159.164C57.7721 158.7 57.3565 158.289 56.7994 158.06ZM77.7237 172.053C81.7583 171 85.7833 169.935 89.9022 169.227C94.6771 168.406 99.5537 167.929 104.396 168.285C106.707 168.455 108.996 168.858 111.262 169.338C110.289 169.699 109.301 170.015 108.291 170.25C104.298 171.184 100.061 171.157 95.9793 171.259C89.8946 171.414 83.782 171.444 77.7237 172.053ZM119.659 165.336C117.895 166.356 116.074 167.276 114.217 168.111C113.874 168.265 113.528 168.414 113.182 168.562C113.112 168.441 112.999 168.337 112.81 168.288C108.146 167.067 103.228 167.125 98.4529 167.439C93.3349 167.776 88.2768 168.812 83.2993 170.013C80.426 170.706 77.5547 171.416 74.7088 172.215C74.6254 172.239 74.5678 172.289 74.5296 172.349C74.4512 172.288 74.3637 172.237 74.251 172.224C72.9513 172.076 71.6392 171.915 70.4074 171.459C71.3489 171.144 72.2863 170.82 73.2272 170.502C75.2493 169.817 77.276 169.143 79.2955 168.448C83.289 167.073 87.2899 165.727 91.2893 164.373C94.9459 163.134 98.6332 161.931 102.44 161.246C104.379 160.897 106.313 160.615 108.28 160.482C110.335 160.344 112.397 160.289 114.456 160.212C118.777 160.049 123.1 159.89 127.419 159.676C125.066 161.857 122.425 163.736 119.659 165.336ZM131.582 143.115C132.193 144.596 132.504 146.17 132.448 147.764C132.297 148.406 132.381 149.14 132.34 149.783C132.29 150.59 132.179 151.392 132.052 152.191C131.924 152.993 131.764 153.797 131.482 154.56C131.341 154.941 131.161 155.285 130.935 155.62C130.769 155.866 130.602 156.113 130.523 156.395C130.115 156.912 129.677 157.411 129.227 157.892C129.118 158.009 129.003 158.121 128.893 158.236C128.85 158.227 128.815 158.21 128.768 158.211C124.503 158.341 120.237 158.542 115.975 158.738C111.887 158.925 107.764 158.986 103.729 159.742C99.9651 160.449 96.2866 161.754 92.6851 163.032C88.7329 164.434 84.7866 165.847 80.8262 167.226C78.5643 168.014 76.3083 168.816 74.0507 169.614C72.6044 170.126 71.1555 170.633 69.7131 171.157C69.3991 170.998 69.0988 170.816 68.8157 170.609C68.0941 170.033 67.4919 169.339 67.0945 168.473C70.652 166.264 74.2132 164.087 77.991 162.249C82.1914 160.206 86.5062 158.46 90.8955 156.867C95.2512 155.286 99.6333 153.736 103.811 151.72C108.099 149.652 112.052 146.984 115.812 144.076C119.093 141.539 122.255 138.795 125.168 135.824C127.875 137.676 130.318 140.046 131.582 143.115ZM97.4146 134.683C97.4975 134.656 97.5794 134.618 97.6609 134.559C99.1864 133.446 101.001 132.89 102.837 132.547C104.743 132.191 106.684 131.985 108.612 131.793C110.816 131.574 113.031 131.446 115.245 131.428C116.582 131.698 117.902 132.054 119.169 132.562C120.845 133.234 122.442 134.103 123.977 135.051C121.529 137.475 118.997 139.803 116.304 141.969C112.566 144.975 108.627 147.769 104.328 149.918C100.206 151.977 95.8651 153.513 91.5638 155.144C87.2073 156.795 82.9042 158.549 78.7707 160.707C74.691 162.835 70.6046 165.174 66.8875 167.925C66.8615 167.847 66.8236 167.78 66.8013 167.699C66.1435 165.349 66.7082 162.714 67.7407 160.557C67.7575 160.521 67.7628 160.487 67.7657 160.455C67.8725 160.304 67.9763 160.151 68.085 160.002C69.4674 158.084 70.9659 156.24 72.5529 154.482C72.8521 154.23 73.1516 153.979 73.4494 153.729C74.6146 152.748 75.7806 151.768 76.9457 150.787C81.5277 146.933 86.0423 142.986 90.8654 139.43C92.202 138.445 93.5678 137.5 94.9291 136.55C95.7436 135.978 96.6499 135.387 97.4146 134.683ZM104.774 119.815C105.095 119.428 105.44 119.023 105.776 118.604C105.109 120.99 104.287 123.325 102.949 125.434C99.6412 130.644 94.3636 134.199 89.4542 137.757C83.5405 142.043 77.6481 146.769 72.6468 152.233C72.63 152.244 72.6135 152.257 72.5968 152.268C71.9563 152.705 71.2865 153.1 70.6049 153.47C71.4327 152.363 72.2834 151.271 73.2031 150.221C75.9176 147.122 78.9132 144.277 81.9675 141.517C85.0231 138.756 88.1592 136.087 91.2392 133.355C94.318 130.624 97.2959 127.81 100.178 124.873C101.775 123.247 103.318 121.569 104.774 119.815ZM105.534 109.922C105.97 111.026 106.254 112.24 106.298 113.43C106.323 114.152 106.225 114.872 106.104 115.587C105.592 116.849 104.642 117.965 103.828 119.021C102.594 120.625 101.287 122.172 99.9355 123.678C97.2025 126.724 94.1647 129.516 91.1437 132.271C85.1635 137.726 79.0138 143.009 73.5536 149C72.2397 150.442 70.9299 151.934 69.6956 153.485C70.1477 152.606 70.5989 151.726 71.04 150.841C73.1386 146.64 75.289 142.463 77.4258 138.281C81.6823 129.952 85.8524 121.579 90.1005 113.245C91.2578 110.973 92.4523 108.71 93.4635 106.368C94.1462 104.785 94.7644 103.126 95.2499 101.446C99.661 102.572 103.85 105.657 105.534 109.922ZM79.3753 102.296C81.4661 101.715 83.6216 101.349 85.7758 101.124C88.3553 100.855 90.9779 100.753 93.5553 101.109C93.9786 101.166 94.4006 101.251 94.8235 101.346C94.4058 102.756 94.0197 104.177 93.4763 105.552C92.6145 107.734 91.4977 109.805 90.3833 111.865C88.1665 115.961 85.9438 120.057 83.7642 124.173C79.4391 132.339 75.0053 140.45 70.6326 148.591C70.3072 149.198 69.9847 149.806 69.6593 150.413C70.665 147.595 71.6653 144.771 72.513 141.909C73.6979 137.911 74.5309 133.807 75.545 129.763C76.0266 127.841 76.5702 125.92 76.8914 123.964C77.1987 122.095 77.1457 120.215 76.9513 118.337C76.5415 114.369 75.6949 110.419 74.3858 106.644C75.7662 104.899 77.4232 103.392 79.3753 102.296ZM70.4941 113.871C71.3289 111.496 72.4988 109.153 74.0278 107.104C74.9471 110.37 75.6761 113.676 76.0865 117.05C76.3134 118.914 76.488 120.805 76.3001 122.681C76.1022 124.664 75.5198 126.587 75.0231 128.51C73.9894 132.513 72.9676 136.526 71.77 140.484C70.5959 144.366 69.0982 148.138 67.6922 151.939C67.3993 152.731 67.1017 153.526 66.8057 154.32C66.578 154.234 66.3652 154.117 66.1923 153.96C66.0864 153.806 65.9845 153.647 65.9069 153.476C66.1289 151.924 66.3512 150.374 66.5733 148.822C67.0107 145.754 67.4374 142.683 67.7177 139.596C67.9897 136.604 68.0834 133.601 68.1881 130.6C68.3847 124.983 68.6129 119.224 70.4941 113.871ZM77.5401 7.97461C78.332 7.42441 79.1709 6.9409 80.0388 6.50849C79.6016 7.05173 79.2331 7.6597 78.9588 8.29234C78.3897 9.60105 78.0622 11.0172 77.7307 12.4C77.4136 13.7176 77.1343 15.0431 76.8893 16.3755C75.8751 21.8826 75.3563 27.4767 75.0981 33.0654C75.0249 34.6386 74.9721 36.2117 74.9262 37.7853C74.9031 38.5713 74.8835 39.3583 74.8647 40.1444C74.849 40.8094 74.816 41.4825 74.865 42.1483C73.6412 44.0551 72.6952 46.1269 71.959 48.2835C71.9169 48.3306 71.8787 48.3804 71.8356 48.4268C71.6111 43.9715 71.4465 39.5137 71.6038 35.0519C71.8188 28.9509 72.4134 22.8301 73.3847 16.8022C73.6614 15.0831 74.0572 13.3599 74.7519 11.7572C75.3948 10.2729 76.3464 9.03655 77.5401 7.97461ZM122.135 54.449C122.587 54.0731 123.027 53.6813 123.475 53.2993C123.04 53.6988 122.593 54.0847 122.14 54.4626C122.137 54.458 122.136 54.453 122.135 54.449ZM102.437 42.7401C104.802 44.2653 107.206 45.8271 109.317 47.6978C108.885 50.7536 108.365 53.7946 107.275 56.6985C106.58 58.5475 105.626 60.3064 104.624 62.0048C103.643 63.6683 102.526 65.1696 101.301 66.6615C96.4921 72.5148 90.998 77.7878 84.9751 82.3799C82.6116 84.1813 80.1594 85.85 77.6395 87.4157C77.2634 87.3711 76.8911 87.2945 76.5225 87.1943C76.5377 87.1688 76.5493 87.1422 76.5647 87.1183C77.0835 86.2962 77.6127 85.4801 78.1408 84.6632C79.1955 83.0297 80.2366 81.3867 81.2523 79.7284C82.2693 78.0682 83.2497 76.388 84.2525 74.7192C85.2508 73.0588 86.3566 71.4514 87.385 69.808C88.4154 68.1617 89.4708 66.5273 90.4388 64.844C91.4048 63.1637 92.3218 61.4543 93.3133 59.7891C95.1929 56.6293 97.1019 53.4916 99.0051 50.3455C100.458 47.9453 101.668 45.3989 102.368 42.6974C102.391 42.7122 102.414 42.7253 102.437 42.7401ZM94.8963 38.7846C97.1019 39.6093 99.1748 40.7258 101.178 41.9553C100.634 44.4399 99.6292 46.8036 98.523 49.1014C96.9636 52.3417 95.0246 55.3826 93.1764 58.4632C92.2004 60.0901 91.1749 61.6804 90.1686 63.2886C89.1361 64.9378 88.1733 66.6219 87.2051 68.3094C86.2539 69.9669 85.2848 71.6146 84.3562 73.2852C83.431 74.9509 82.3645 76.5397 81.3505 78.1527C80.1951 79.9876 79.0343 81.82 77.8673 83.6467C77.3028 84.5292 76.7313 85.4053 76.1503 86.2762C76.0028 86.4966 75.846 86.7076 75.6837 86.9161C75.2185 86.7229 74.7554 86.4715 74.322 86.1658C74.4029 85.6239 74.5271 85.1026 74.6024 84.6974C74.952 82.808 75.3116 80.9228 75.7167 79.0451C76.5371 75.2404 77.425 71.4532 78.3962 67.6857C79.365 63.9296 80.3628 60.1796 81.4082 56.4444C82.4426 52.7494 83.4442 49.031 84.7107 45.4076C85.4278 43.3579 86.205 41.3318 87.0267 39.3229C87.2872 38.6892 87.5967 37.9393 87.9913 37.2556C90.3493 37.3554 92.7423 37.9792 94.8963 38.7846ZM78.7163 87.4767C83.803 84.1769 88.6145 80.4527 93.0325 76.2989C95.8295 73.6687 98.4842 70.8811 100.969 67.9527C102.216 66.4843 103.363 64.9284 104.654 63.5001C106.028 61.9811 107.247 60.3826 108.168 58.5476C109.643 55.6139 110.313 52.3732 110.771 49.1254C111.34 49.7483 111.869 50.4072 112.32 51.1115C112.75 52.4113 113.12 53.7416 113.795 54.935C113.769 57.536 112.987 60.153 112.027 62.5371C110.914 65.3014 109.377 67.8746 107.558 70.2319C103.929 74.94 99.1849 78.718 94.0381 81.6502C90.1467 83.8674 86.0575 85.5817 81.8891 87.1354C80.8531 87.3341 79.7813 87.4828 78.7163 87.4767ZM141.376 53.6086C141.435 53.5689 141.489 53.5206 141.548 53.4792C141.546 53.51 141.54 53.5417 141.539 53.5732C141.533 53.5862 141.526 53.5985 141.518 53.6107C141.457 53.6119 141.397 53.6188 141.337 53.6315C141.351 53.624 141.365 53.6165 141.376 53.6086ZM138.689 55.8855C139.22 55.3959 139.717 54.8757 140.179 54.3299C140.228 54.3053 140.279 54.2831 140.328 54.257C140.503 54.1608 140.67 54.0466 140.841 53.9402C140.732 54.0911 140.68 54.2893 140.727 54.5301C140.904 55.4315 141.015 56.3415 141.068 57.2522C140.459 60.6743 139.652 64.0622 138.571 67.3628C138.544 67.4455 138.512 67.5257 138.484 67.6077C136.324 69.9204 133.506 71.5675 130.313 72.2205C127.523 72.7912 124.671 73.161 121.853 73.5742C118.888 74.0084 115.92 74.4328 112.952 74.8597C110.194 75.2569 107.414 75.5933 104.664 76.0721C105.205 75.5614 105.733 75.0365 106.248 74.4945C108.463 72.1588 110.412 69.5569 111.97 66.7465C112.048 66.6424 112.124 66.5378 112.203 66.4343C112.241 66.5457 112.34 66.6359 112.474 66.6003C117.238 65.3602 121.865 63.6987 126.542 62.1687C130.82 60.7695 135.331 58.9799 138.689 55.8855ZM114.63 60.4936C114.672 60.4974 114.714 60.4911 114.757 60.4923C114.697 60.5425 114.638 60.595 114.579 60.6459C114.595 60.5947 114.615 60.5454 114.63 60.4936ZM90.7997 87.4438C90.852 87.4519 90.9044 87.4557 90.9558 87.463C90.8191 87.4779 90.6816 87.4936 90.5449 87.5085C90.6297 87.483 90.7158 87.47 90.7997 87.4438ZM98.7118 80.8042C100.506 79.5949 102.219 78.2695 103.831 76.8238C106.66 76.5453 109.48 76.0816 112.295 75.685C115.374 75.2501 118.454 74.8126 121.535 74.3859C124.507 73.9752 127.522 73.722 130.472 73.1681C132.308 72.8238 134.073 72.2367 135.706 71.3682C136.203 71.3184 136.699 71.2448 137.19 71.1459C136.975 71.6928 136.765 72.2423 136.538 72.7846C132.617 76.4639 127.824 79.1057 122.666 80.6184C119.811 81.4548 116.858 81.8819 113.912 82.2464C110.994 82.6081 108.078 82.9311 105.132 82.9169C103.549 82.9091 101.958 82.8236 100.383 82.665C99.4615 82.5716 98.5476 82.4362 97.6341 82.2922C97.9044 81.9455 98.1912 81.6105 98.5227 81.3188C98.6946 81.1663 98.7377 80.9807 98.7118 80.8042ZM141.405 49.0686C140.054 53.2405 136.586 56.5182 132.782 58.5211C128.749 60.6444 124.316 62.0233 120.007 63.4617C117.488 64.3022 114.978 65.1469 112.487 66.0624C114.271 63.7754 116.33 61.6737 118.529 59.801C120.771 58.0772 122.963 56.2719 124.981 54.3172C125.036 54.2652 125.091 54.2126 125.148 54.1597C125.209 54.1 125.274 54.0431 125.335 53.9834C125.535 53.7855 125.739 53.5936 125.941 53.397C126.005 53.3342 126.071 53.272 126.135 53.2084C127.342 52.0355 128.564 50.8772 129.777 49.7117C131.012 48.5264 132.3 47.366 133.722 46.4078C134.814 45.6714 136.02 45.0982 137.29 44.7637C138.211 45.0889 139.072 45.7336 139.677 46.4396C140.347 47.2221 140.951 48.1262 141.405 49.0686ZM95.3249 30.4947C95.2974 30.5274 95.2773 30.5639 95.2507 30.5973C95.3052 30.4734 95.3567 30.3474 95.4102 30.2228C95.4069 30.293 95.4004 30.3595 95.3971 30.4297C95.3728 30.4517 95.3453 30.47 95.3249 30.4947ZM89.7622 33.4179C89.7669 33.4154 89.7725 33.4136 89.7772 33.4111C89.7794 33.4142 89.7823 33.4162 89.7852 33.4183C89.7776 33.4187 89.7691 33.4185 89.7622 33.4179ZM67.914 54.7606C67.8497 54.8268 67.8064 54.9165 67.8058 55.0423C67.8057 56.0927 67.6424 57.1174 67.3451 58.0979C66.3474 55.5176 65.3811 52.9278 64.7332 50.2327C63.7875 46.2935 63.3537 42.2646 62.8647 38.2501C62.3412 33.9587 61.7983 29.6681 61.353 25.3668C61.128 23.1949 60.9395 20.914 61.5874 18.792C61.7556 18.2394 61.998 17.709 62.2841 17.2051C62.8787 17.2914 63.4695 17.4098 64.0516 17.5466C64.6291 17.6817 65.3576 17.8309 65.7599 18.3032C65.7841 18.3305 65.7945 18.3669 65.8157 18.3965C65.8482 18.6618 65.8869 18.9286 65.9144 19.1948C66.0206 20.2262 66.109 21.2581 66.18 22.2921C66.2514 23.3235 66.3007 24.3552 66.3324 25.3875C66.3447 26.4714 66.3574 27.557 66.3691 28.6418C66.3718 28.8367 66.4459 28.9879 66.5469 29.1117C66.1982 32.2466 66.0731 35.408 66.1438 38.5326C66.2667 43.991 66.9508 49.3988 67.914 54.7606ZM68.7882 49.7419C68.8435 49.842 68.8895 49.9429 68.958 50.0407C68.9221 50.1241 68.9034 50.2139 68.8766 50.3008C68.8475 50.1148 68.8141 49.9285 68.7882 49.7419ZM61.0126 16.0777C60.7195 16.1514 60.4244 16.2136 60.1341 16.2937C60.4276 16.1825 60.722 16.0763 61.0183 15.9714C61.0091 16.007 61.0074 16.0421 61.0126 16.0777ZM54.8409 19.2789C55.6788 18.9441 56.5219 18.6246 57.3787 18.341C58.7499 17.8865 60.1511 17.5288 61.5639 17.2243C60.8059 18.7953 60.5123 20.6692 60.5304 22.3593C60.553 24.4197 60.8546 26.4732 61.0553 28.5219C61.2756 30.7659 61.4785 33.0121 61.6946 35.256C62.1039 39.5057 62.4175 43.7759 63.1687 47.9835C63.8596 51.8523 65.0701 55.5366 66.4353 59.2116C66.5094 59.4121 66.5785 59.6134 66.6516 59.8133C66.4741 60.1662 66.2813 60.5098 66.0665 60.8436C65.1035 58.8408 64.1242 56.8467 63.0946 54.8765C62.0834 52.9439 61.0479 51.0189 60.1942 49.0093C59.3405 46.9998 58.6662 44.9274 57.9297 42.8733C56.4354 38.7049 54.8776 34.5423 53.6424 30.2848C53.0273 28.1658 52.5675 25.9465 52.8704 23.7338C53.0212 22.6306 53.3522 21.5391 53.9006 20.5668C54.1669 20.0968 54.4871 19.6737 54.8409 19.2789ZM65.9661 65.7491C65.9673 65.7761 65.977 65.8033 65.9825 65.8304C65.9605 65.7959 65.9371 65.7634 65.9151 65.7289C65.9323 65.7353 65.9489 65.7427 65.9661 65.7491ZM72.0623 69.2629C72.0081 67.2266 71.8502 65.1995 71.7558 63.1709C71.7505 63.0453 71.6535 62.9897 71.5524 62.9891C71.5697 62.0394 71.5867 61.088 71.5694 60.14C71.5609 59.6914 71.5457 59.2439 71.5339 58.7959C71.7453 56.8782 72.0305 54.9547 72.4475 53.0623C73.9852 48.5936 75.9422 44.0348 79.2288 40.5604C79.4625 40.3125 79.7045 40.0735 79.9506 39.8387C80.042 39.8368 80.1337 39.8118 80.2156 39.7392C82.1941 37.9814 84.5835 37.2939 87.0562 37.2443C86.1711 38.8964 85.5241 40.7143 84.862 42.4591C83.3995 46.3079 82.0392 50.2232 80.8695 54.1706C79.6864 58.1636 78.5715 62.1789 77.4688 66.1956C76.371 70.2012 75.2811 74.2182 74.406 78.2802C73.9773 80.2731 73.5834 82.2762 73.2478 84.2873C73.1732 83.9994 73.099 83.7132 73.0287 83.4254C72.751 82.2797 72.5226 81.1239 72.3024 79.9668C72.0882 76.4039 72.1565 72.8293 72.0623 69.2629ZM128.288 80.8496C124.629 82.8353 120.561 83.8575 116.478 84.5262C112.002 85.2596 107.467 85.6513 102.96 86.1453C101.776 86.275 100.591 86.4057 99.406 86.5355C99.3169 86.391 99.1743 86.2871 98.9617 86.2902C98.7136 86.2943 98.4539 86.2944 98.1969 86.2966C98.1717 86.2933 98.1504 86.2825 98.1241 86.2827C97.9398 86.2827 97.7407 86.2852 97.5375 86.2834C96.9364 85.8008 96.4156 85.1865 96.4998 84.3901C96.5534 83.8825 96.824 83.4229 97.1079 83.006C99.383 83.5012 101.784 83.6142 104.076 83.6294C107.031 83.6487 109.984 83.513 112.934 83.3736C116.043 83.2266 119.146 82.8928 122.158 82.0805C124.813 81.3648 127.387 80.3528 129.796 79.0234C131.278 78.2052 132.71 77.2903 134.08 76.2909C132.403 78.0925 130.482 79.6579 128.288 80.8496ZM139.481 44.2118C139.452 44.1912 139.423 44.1716 139.393 44.1521C139.4 44.1382 139.411 44.127 139.416 44.1117C139.422 44.12 139.428 44.1291 139.434 44.1375C139.451 44.1609 139.464 44.1866 139.481 44.2118ZM136.522 27.4121C136.825 29.754 136.805 32.1298 136.604 34.4797C136.504 35.6524 136.333 36.821 136.169 37.9919C135.986 38.458 135.78 38.9158 135.529 39.3485C134.735 40.7132 133.706 41.9339 132.607 43.0613C132.028 43.655 131.432 44.2321 130.83 44.8025C130.702 44.8031 130.572 44.8388 130.46 44.9421C128.861 46.4017 127.334 47.928 125.682 49.3313C124.005 50.7558 122.26 52.0986 120.449 53.3472C119.653 53.8973 118.84 54.4239 118.02 54.9382C117.978 54.9317 117.938 54.9319 117.896 54.9228C117.409 54.8123 116.931 54.4955 116.684 54.0654C116.693 54.0469 116.706 54.0312 116.714 54.0137C117.378 52.8348 118.049 51.6574 118.729 50.4869C119.189 49.696 119.628 48.8926 120.071 48.092C120.556 47.4904 121.035 46.8833 121.509 46.2734C123.355 43.8979 125.175 41.5023 126.874 39.0185C128.528 36.601 130.162 34.1666 131.541 31.5794C132.831 29.1621 134.022 26.6069 134.424 23.8722C134.578 22.8262 134.609 21.7518 134.512 20.6907C135.522 22.7977 136.215 25.046 136.522 27.4121ZM131.473 15.8772C132.107 16.659 132.685 17.4733 133.214 18.3138C133.619 19.9302 133.817 21.5905 133.648 23.2631C133.376 25.9733 132.221 28.5163 130.962 30.8987C129.647 33.3856 128.131 35.7857 126.441 38.0343C124.743 40.2954 122.947 42.4832 121.193 44.7013C119.285 47.1119 117.37 49.5271 115.19 51.6989C115.042 51.1239 114.857 50.555 114.609 50.0004C113.56 47.6539 111.877 45.5267 110.073 43.6512C110.391 43.3634 110.667 43.0251 110.956 42.6855C111.481 42.0679 111.983 41.4313 112.459 40.7768C113.313 39.6047 114.063 38.3671 114.795 37.1163C116.327 34.5023 117.794 31.8518 119.271 29.2063C120.733 26.589 122.05 23.908 123.352 21.2082C124.467 18.8988 125.683 16.4804 125.753 13.8617C125.79 12.4866 125.41 10.8922 124.588 9.67121C127.151 11.4208 129.508 13.4585 131.473 15.8772ZM120.76 7.33565C121.166 7.5568 121.567 7.78733 121.968 8.02047C121.893 8.13002 121.887 8.2737 122.034 8.35573C124.143 9.53304 125.209 11.6839 125.083 14.0863C124.952 16.5863 123.768 18.9492 122.648 21.1415C120.071 26.1821 116.961 30.9425 113.983 35.7501C113.186 37.0375 112.379 38.323 111.499 39.5565C111.029 40.2157 110.533 40.8581 110.014 41.4798C109.695 41.8629 109.34 42.2196 109.04 42.6131C109.026 42.6002 109.013 42.5854 108.999 42.5725C106.65 40.3015 103.948 38.3396 101.029 36.795C101.329 35.8642 101.604 34.9241 101.893 33.9917C102.137 33.2098 102.366 32.4234 102.599 31.6382C102.948 30.9019 103.291 30.1625 103.616 29.4151C104.69 26.9462 105.692 24.4471 106.634 21.9242C107.602 19.3299 108.513 16.7155 109.472 14.1176C110.303 11.8668 111.391 9.53566 111.554 7.11242C111.653 5.65036 111.295 4.01068 110.392 2.83565C111.617 3.22043 112.814 3.7355 113.976 4.20225C116.287 5.1314 118.571 6.14555 120.76 7.33565ZM107.818 2.28949C108.226 2.32514 108.631 2.39547 109.033 2.48054C110.509 3.63419 111.008 5.66939 110.771 7.51507C110.473 9.84151 109.4 12.0828 108.572 14.2574C106.761 19.0224 104.765 23.7348 102.616 28.3585C102.003 29.6781 101.389 30.9986 100.748 32.3053C100.18 33.461 99.492 34.6116 98.9941 35.8054C98.7937 35.7156 98.5935 35.6275 98.3913 35.5422C98.1874 34.8985 97.6984 34.356 97.3244 33.7863C97.1859 33.5765 97.0654 33.3575 96.9565 33.1324C96.8869 32.9031 96.8196 32.6726 96.7628 32.4394C96.7626 32.4233 96.7684 32.4071 96.7682 32.391C96.7617 32.1339 96.7194 31.8559 96.5931 31.6328C96.5856 31.5942 96.5815 31.555 96.575 31.517C96.5126 30.817 96.4957 30.1202 96.5198 29.4147C96.5643 28.1215 96.7416 26.8457 97.0415 25.5913C97.1692 25.1595 97.2915 24.7268 97.409 24.2949C98.4053 20.6352 99.0603 16.8817 99.3375 13.0983C99.4489 11.5798 99.5977 9.9572 99.4597 8.40987C101.353 5.36307 103.821 1.93916 107.818 2.28949ZM96.8969 6.08285C97.3294 6.69266 97.5428 7.37632 97.6486 8.08682C97.5603 8.35068 97.5974 8.60334 97.7248 8.81259C97.7628 9.46926 97.7396 10.1347 97.7205 10.7799C97.5759 15.8296 96.7179 20.7989 95.3198 25.6276C94.4908 27.2353 93.5634 28.7936 92.3621 30.1548C91.6517 30.9586 90.8595 31.6261 90.0062 32.2139C91.0455 28.3584 91.8897 24.469 92.573 20.5323C92.9515 18.3544 93.3398 16.179 93.6545 13.9906C93.9387 12.0113 94.2885 9.98424 94.1343 7.97859C94.0161 6.43807 93.4789 4.62673 92.3022 3.51712C92.5898 3.55555 92.8776 3.58972 93.158 3.66079C94.6304 4.02966 96.0103 4.83208 96.8969 6.08285ZM88.3044 3.72056C89.2874 3.52923 90.3117 3.41659 91.327 3.43967C91.8931 4.03096 92.4129 4.6344 92.7617 5.39093C93.1568 6.24404 93.3695 7.15795 93.4433 8.09384C93.597 10.0367 93.2378 12.0093 92.9565 13.9253C92.3547 18.0315 91.4953 22.0509 90.4889 26.0749C89.9183 28.3561 89.2935 30.6236 88.6238 32.8767C88.6032 32.9447 88.606 33.0062 88.6072 33.068C88.3449 33.2129 88.0829 33.3595 87.8104 33.4942C86.5454 33.625 85.2941 33.9062 84.0766 34.3651C81.5984 35.2987 79.347 36.8704 77.5135 38.7716C76.9485 39.3578 76.4251 39.9735 75.9376 40.6103C75.9399 39.8966 75.9128 39.1795 75.9236 38.4907C75.943 37.1551 75.971 35.8198 76.0039 34.4836C76.0693 31.8835 76.1764 29.2839 76.3349 26.6875C76.6584 21.4017 77.3479 16.1419 78.6675 11.0065C79.1098 9.28726 79.8489 7.14287 81.2579 5.93895C81.933 5.64555 82.6177 5.37347 83.3105 5.12886C83.4266 5.08784 83.5452 5.05572 83.6616 5.01635C83.7352 5.01484 83.8041 5.00567 83.8799 5.00717C83.9797 5.00969 84.0378 4.95221 84.0736 4.88327C85.4608 4.4184 86.871 3.99887 88.3044 3.72056ZM74.497 10.7495C74.8448 10.3242 75.2229 9.93199 75.6123 9.55652C74.5329 11.1696 73.8825 13.1375 73.4271 14.9388C72.6761 17.9105 72.2007 20.9745 71.8039 24.0115C70.9838 30.2888 70.5784 36.593 70.4154 42.9195C70.3599 45.0696 70.4046 47.2442 70.5191 49.4103C70.3238 49.2662 70.0867 49.1852 69.8305 49.2314C69.81 49.2357 69.793 49.2454 69.7734 49.2504C69.6035 48.9805 69.4797 48.6781 69.3497 48.3886C69.1159 47.8689 68.8139 47.3124 68.4162 46.8725C68.2332 45.3353 68.0716 43.7946 67.9663 42.2459C67.4767 35.1042 67.8799 27.8061 69.7951 20.8845C70.7894 17.293 72.1125 13.6676 74.497 10.7495ZM53.3135 49.4461C51.3363 46.604 49.6966 43.5456 48.5409 40.2774C47.4209 37.1143 46.5749 33.6259 46.7755 30.2496C46.9803 26.7936 48.5945 23.8301 51.1402 21.5238C51.7559 20.9663 52.4012 20.453 53.0675 19.9735C53.2175 19.9318 53.3671 19.8927 53.5181 19.827C53.6201 19.7833 53.7221 19.7438 53.8242 19.7001C53.4249 20.2819 53.1035 20.9217 52.8591 21.5654C52.2426 23.1887 52.1033 24.937 52.268 26.6556C52.6381 30.5205 54.2997 34.2154 55.4823 37.8756C56.7818 41.8972 57.8462 46.0148 59.4681 49.9254C60.2639 51.8446 61.2175 53.6927 62.1126 55.5661C63.02 57.4672 63.9044 59.3781 64.8052 61.2802C64.9295 61.541 65.0491 61.8042 65.171 62.0662C64.964 62.3112 64.7486 62.5517 64.521 62.7807C64.4562 62.7841 64.3873 62.7788 64.3213 62.7799C64.2469 62.717 64.1782 62.6481 64.1011 62.589C63.8523 62.3997 63.5951 62.2261 63.337 62.0519C62.1994 60.5535 61.0088 59.093 59.8055 57.6483C57.5741 54.9685 55.3065 52.3109 53.3135 49.4461ZM46.778 111.862C46.8118 111.851 46.8453 111.839 46.8801 111.829C48.131 111.466 49.4119 111.239 50.7063 111.137C50.884 111.133 51.0612 111.117 51.2397 111.123C51.2824 111.124 51.3195 111.113 51.3581 111.105C51.5805 111.095 51.8027 111.078 52.0261 111.074C52.1727 111.072 52.3187 111.007 52.441 110.912C55.4837 111.915 58.0707 114.095 60.0252 116.595C64.4588 122.266 66.1709 129.745 65.93 136.834C65.8992 137.729 65.9396 138.624 65.9233 139.519C65.9225 139.58 65.9361 139.634 65.9583 139.685C65.8415 140.968 65.7185 142.249 65.5607 143.53C64.8448 149.322 63.9717 155.099 63.1359 160.876C63.1167 160.629 63.0978 160.383 63.0827 160.14C62.951 158.048 62.8167 155.955 62.6817 153.863C62.4214 149.82 62.17 145.775 61.3234 141.805C60.8982 139.809 60.3433 137.849 59.7928 135.884C59.2771 134.045 58.7774 132.199 58.1921 130.38C56.992 126.652 55.3673 123.143 52.8639 120.103C50.5939 117.347 48.0128 114.822 45.3086 112.468C45.7862 112.236 46.278 112.038 46.778 111.862ZM41.8391 114.679C42.4809 114.15 43.1692 113.66 43.8894 113.223C46.3226 115.303 48.6467 117.515 50.794 119.885C52.0868 121.312 53.3274 122.817 54.3216 124.471C55.2817 126.068 56.0319 127.784 56.6823 129.527C58.0295 133.141 59.1903 136.878 60.1332 140.616C61.0915 144.415 61.4768 148.268 61.75 152.168C61.9107 154.465 62.0661 156.762 62.2278 159.06C62.2857 159.883 62.3427 160.706 62.3963 161.529C62.3364 161.546 62.2808 161.573 62.2171 161.583C61.9782 161.621 61.7535 161.578 61.5344 161.508C61.4583 161.311 61.3783 161.11 61.305 160.915C60.7135 159.338 60.119 157.763 59.4973 156.198C58.2548 153.068 56.9672 149.958 55.6738 146.849C54.473 143.963 53.3914 140.871 51.1871 138.575C50.0359 137.376 48.7238 136.318 47.4689 135.233C46.1791 134.117 44.8318 133.068 43.4739 132.036C40.4936 129.77 37.3527 127.777 33.931 126.245C34.0141 125.716 34.1348 125.194 34.2539 124.671C36.4169 121.122 38.5897 117.36 41.8391 114.679ZM-8.97858 83.1207C-4.22531 86.6069 0.766119 89.8964 4.43493 94.5874C4.9118 95.1981 5.36975 95.8274 5.81864 96.4633C11.2375 105.04 18.071 112.729 22.6438 121.832C22.9944 122.529 23.323 123.236 23.6429 123.947C23.6411 123.966 23.6308 123.981 23.6316 124C23.6022 125.143 23.5614 126.308 23.2254 127.411C23.1342 127.707 23.0153 127.981 22.873 128.238C22.6675 128.372 22.4679 128.516 22.275 128.67C20.6698 126.511 19.0304 124.375 17.4174 122.225C14.7868 118.718 12.1453 115.217 9.28683 111.892C6.40957 108.547 3.2936 105.476 0.16883 102.367C-2.93135 99.2836 -5.68279 95.9495 -8.06406 92.2813C-10.3025 88.8333 -12.4579 85.3398 -14.5763 81.8187C-14.3878 81.7637 -14.2177 81.6506 -14.1061 81.4788C-14.057 81.4033 -14.0264 81.3234 -14.0002 81.2433C-13.8146 81.2312 -13.6305 81.205 -13.4458 81.1981C-12.9335 81.1795 -12.4196 81.1853 -11.9074 81.2016C-10.8825 81.7597 -9.91025 82.4371 -8.97858 83.1207ZM13.3739 79.0922C13.9981 77.628 14.6135 76.1577 15.2326 74.6885C18.0819 81.3218 20.5652 88.0991 22.4334 95.0788C23.3983 98.6819 24.3065 102.316 25.0435 105.972C25.8198 109.819 26.0805 113.65 26.0211 117.57C25.9887 119.681 25.8782 121.792 25.7234 123.898C25.6751 123.879 25.624 123.873 25.5723 123.878C21.9772 115.501 16.1724 108.306 10.9332 100.883C11.0445 100.675 11.0725 100.42 10.9419 100.138C7.74307 93.2423 10.6025 85.5984 13.3739 79.0922ZM28.228 123.697C27.7305 124.106 27.2306 124.327 26.6816 124.424C26.7973 122.592 26.8675 120.757 26.8943 118.922C26.9516 115.039 26.8302 111.208 26.1467 107.378C25.4788 103.634 24.5421 99.9075 23.4767 96.2578C22.428 92.6606 21.3279 89.0763 20.0802 85.5427C18.7228 81.6991 17.2033 77.9062 15.4231 74.2374C16.3877 71.9511 17.3641 69.6686 18.4019 67.4182C19.2765 65.5207 20.2936 63.6168 21.7157 62.0668C22.0944 61.6532 22.5367 61.2688 23.0094 61.0133C25.0645 64.6114 26.7494 68.4534 27.9769 72.4066C29.2828 76.6155 30.1196 80.9664 30.7545 85.3237C31.426 89.9304 31.9685 94.6023 31.8987 99.2639C31.827 104.098 30.9979 108.908 30.2802 113.679C29.7868 116.961 29.2162 120.229 28.4902 123.462C28.4033 123.54 28.3188 123.622 28.228 123.697ZM7.95858 81.6498C8.00263 81.7289 8.04328 81.8129 8.08664 81.8929C8.24958 82.3058 8.37718 82.7256 8.45953 83.154C8.43863 83.1958 8.42353 83.2417 8.4207 83.2948C8.35636 84.317 8.1684 85.3663 7.91802 86.3932C7.45786 84.8294 6.99537 83.2669 6.53288 81.7043C6.03749 80.0286 5.51786 78.3153 4.62139 76.8022C4.55686 76.6926 4.48163 76.5899 4.41408 76.4826C4.80373 76.9502 5.18362 77.4255 5.54638 77.9148C6.42804 79.107 7.2356 80.3525 7.95858 81.6498ZM-22.7202 93.1807C-22.5993 92.7891 -22.4742 92.3975 -22.3425 92.0091C-22.0495 91.1431 -21.8302 90.2626 -21.6519 89.3661C-21.5701 88.9539 -21.4965 88.5389 -21.4229 88.1239C-21.3702 88.0699 -21.3246 88.0035 -21.2929 87.92C-20.4775 85.7601 -19.1994 83.7234 -17.2459 82.4266C-16.9636 82.2393 -16.662 82.0758 -16.3549 81.9249C-14.4033 85.2044 -12.4406 88.4845 -10.238 91.6024C-7.76369 95.1044 -5.01336 98.5118 -2.02836 101.592C1.10084 104.821 4.42536 107.836 7.4416 111.179C10.3731 114.429 13.1912 117.801 15.8821 121.253C17.8908 123.832 19.8036 126.49 21.7776 129.099C21.6511 129.219 21.522 129.333 21.4028 129.46C21.2656 129.607 21.082 129.8 20.8984 130.018C20.3932 130.263 19.8667 130.467 19.3242 130.637C16.9806 129.745 14.6215 128.887 12.306 127.93C8.25837 126.257 4.28395 124.446 0.456699 122.312C-3.32753 120.202 -6.80656 117.676 -9.78401 114.515C-12.6005 111.526 -14.9756 108.148 -17.0562 104.615C-18.2262 102.628 -19.2989 100.589 -20.3491 98.5378C-21.1691 96.9352 -21.9411 95.3057 -22.7651 93.7046C-22.7509 93.529 -22.7364 93.355 -22.7202 93.1807ZM44.0838 72.3017C44.6716 77.0347 45.1017 81.7997 45.0461 86.5744C44.9915 91.3048 44.4858 96.0595 43.138 100.606C41.6733 105.547 39.1068 109.948 36.4818 114.344C36.2275 114.771 35.9726 115.198 35.7186 115.626C36.7482 113.018 37.6512 110.35 38.2861 107.645C38.7774 105.555 39.0764 103.448 39.1367 101.302C39.197 99.19 39.078 97.0772 38.9609 94.9702C38.7471 91.1261 38.5164 87.2671 37.8392 83.4732C37.8044 83.0699 37.7736 82.665 37.7279 82.2627C37.7027 82.0403 37.6553 81.8267 37.6135 81.6114C37.7232 81.4831 37.7885 81.3132 37.7558 81.1014C37.4324 78.9947 37.1805 76.8894 37.4977 74.7652C37.5148 74.6467 37.5434 74.5306 37.5658 74.413C37.8677 73.6432 38.2653 72.9123 38.7438 72.2372C39.3769 71.3438 40.1901 70.4011 41.0628 69.7369C41.138 69.68 41.1768 69.6088 41.1956 69.5351C41.1986 69.5329 41.2017 69.5307 41.2047 69.5285C41.21 69.525 41.2084 69.5253 41.2131 69.5228C41.2157 69.5232 41.2133 69.5244 41.2206 69.5224C41.381 69.4721 41.5355 69.377 41.6917 69.3121C41.7083 69.3051 41.8165 69.2569 41.8831 69.2345C41.8761 69.2382 41.8823 69.2397 41.9366 69.2245C41.974 69.2148 42.0124 69.2057 42.0498 69.1959C42.2181 69.157 42.3872 69.1231 42.5582 69.105C42.5941 69.1015 42.6303 69.0995 42.6671 69.0966C42.6697 69.097 42.6697 69.097 42.6697 69.097C42.7643 69.0988 42.8569 69.0991 42.9509 69.1077C43.1963 69.1278 43.4146 69.1925 43.6528 69.0959C43.8945 70.1348 43.9541 71.2565 44.0838 72.3017ZM25.3841 61.2207C26.076 61.8228 26.5672 62.6672 27.0698 63.4238C27.5998 64.2217 28.1207 65.0261 28.6303 65.8385C29.6424 67.4525 30.5987 69.1024 31.4826 70.7909C33.233 74.1352 34.6967 77.6507 35.5783 81.3283C36.496 85.1576 36.8242 89.0959 37.0597 93.0178C37.2984 96.9883 37.6364 101.023 37.017 104.976C36.4436 108.631 35.2845 112.232 34.0203 115.715C33.7599 115.667 33.4741 115.759 33.3501 116.077C33.0754 116.782 32.7534 117.463 32.4098 118.133C32.279 118.102 32.1387 118.126 32.0366 118.274C31.6223 118.877 31.3868 119.553 31.0845 120.216C31.0053 120.389 30.9148 120.555 30.8292 120.725C30.6406 120.989 30.457 121.257 30.2542 121.512C30.2348 121.537 30.212 121.563 30.1926 121.589C30.542 119.658 30.8552 117.72 31.1304 115.778C31.8227 110.893 32.5325 105.951 32.7463 101.018C32.9511 96.2969 32.437 91.5624 31.7339 86.9C31.072 82.5091 30.1496 78.1787 28.8855 73.921C27.5321 69.3636 25.7964 64.94 23.3622 60.8513C24.0146 60.6042 24.712 60.6356 25.3841 61.2207ZM18.7518 63.0102C18.7497 62.9231 18.7584 62.835 18.7504 62.748C18.8214 62.7461 18.8903 62.7267 18.9569 62.7043C18.8893 62.8058 18.8177 62.9089 18.7518 63.0102ZM19.3374 62.1368C19.3354 62.1151 19.3425 62.0969 19.3369 62.074C19.347 62.0783 19.3576 62.0858 19.3676 62.09C19.3576 62.1062 19.3484 62.1213 19.3374 62.1368ZM17.0235 60.7566C16.8448 60.9535 16.7915 61.2436 17.0133 61.514C17.1968 61.7384 17.3277 61.9835 17.4206 62.2394C17.3983 62.7909 17.3753 63.3433 17.3582 63.8956C17.3543 64.0423 17.4036 64.1571 17.4725 64.2523C17.4252 64.4582 17.3698 64.6612 17.2998 64.8583C16.9498 65.8537 16.4714 66.8132 15.9976 67.7643C15.8247 67.7462 15.6492 67.8076 15.5319 68.0161C14.7021 69.4796 13.8602 70.9316 12.9618 72.3508C13.0161 70.6773 13.0485 69.0041 13.0339 67.3295C13.0195 65.6711 12.9442 64.0188 12.8835 62.3624C12.8426 61.2307 12.7302 59.6 13.7546 58.9694C14.7571 59.4812 15.7398 60.0354 16.7216 60.5847C16.8238 60.6412 16.9229 60.6999 17.0235 60.7566ZM7.69938 58.1021C8.61933 57.885 9.56067 57.7585 10.5061 57.8453C11.4427 57.9302 12.3154 58.2628 13.1578 58.6669C12.6376 59.1369 12.3285 59.9088 12.2505 60.5818C12.151 61.4326 12.2368 62.3146 12.2525 63.1687C12.2695 64.1355 12.2398 65.1069 12.2384 66.0751C12.2343 68.6011 12.208 71.1317 12.1089 73.6586C12.0512 73.744 11.9965 73.8315 11.9389 73.9169C11.3156 74.8332 10.6874 75.7605 9.99332 76.6252C9.81552 76.8474 9.55012 77.1236 9.24989 77.3548C9.11796 76.9943 8.98412 76.6325 8.85453 76.2708C8.13347 74.2624 7.44127 72.244 6.67308 70.253C5.97434 68.4404 5.13604 66.6957 4.08609 65.0592C3.56069 64.2386 2.98465 63.4545 2.36264 62.7046C1.93843 62.1936 1.48032 61.5932 0.950596 61.1307C1.37876 60.848 1.81508 60.5784 2.2611 60.3257C3.95717 59.3616 5.79733 58.5503 7.69938 58.1021ZM-4.51791 66.0912C-3.89779 65.3206 -3.23251 64.5907 -2.51863 63.9069C-1.6062 63.033 -0.622353 62.2344 0.411314 61.5088C0.855396 62.0717 1.40676 62.5814 1.84747 63.1244C2.43954 63.8531 2.99182 64.6174 3.50471 65.4046C4.59084 67.0739 5.43895 68.8662 6.10337 70.7416C6.92465 73.0589 7.60631 75.4239 8.30486 77.7834C8.19481 77.7953 8.08729 77.7873 7.98056 77.7639C7.70109 77.5093 7.45112 77.1885 7.22854 76.874C7.0808 76.6649 6.82252 76.7038 6.66342 76.8464C5.10248 74.7128 3.28625 72.7655 1.24124 71.0898C-0.687289 69.5097 -2.91932 67.8727 -5.37511 67.2392C-5.09346 66.8541 -4.81625 66.463 -4.51791 66.0912ZM-5.85237 68.7233C-4.69791 69.0352 -3.61136 69.5861 -2.58526 70.2408C-0.262264 71.9931 2.13641 73.8556 3.47188 76.4547C5.05754 79.5401 5.68289 83.094 6.51702 86.4333C6.72276 87.2566 6.94143 88.0761 7.15115 88.898C6.88939 89.599 6.58583 90.2791 6.23791 90.9379C5.16364 88.0829 3.87757 85.2953 2.3316 82.6719C1.41309 81.1141 0.480007 79.5604 -0.693821 78.1786C-1.94172 76.7109 -3.39932 75.4327 -4.88754 74.214C-5.75891 73.5007 -6.64425 72.805 -7.52383 72.1033C-7.98757 71.734 -8.45033 71.3654 -8.9131 70.9968C-9.31998 70.6722 -9.72175 70.2728 -10.217 70.0974C-9.82086 69.5917 -9.34896 69.1572 -8.78536 68.882C-7.873 68.436 -6.8155 68.463 -5.85237 68.7233ZM-12.2065 75.5516C-12.034 74.2723 -11.7433 73.0085 -11.223 71.8219C-11.1014 71.5439 -10.962 71.2611 -10.8056 70.9832C-10.3278 71.654 -9.48924 72.1598 -8.86693 72.6575C-8.09238 73.2761 -7.31617 73.8943 -6.54298 74.5149C-5.02769 75.7281 -3.53129 76.9598 -2.17824 78.3569C-0.935285 79.6412 0.249586 81.0381 1.23872 82.527C2.25872 84.0624 3.08059 85.7156 3.90063 87.3632C4.59271 88.7533 5.23518 90.1663 5.90033 91.5677C5.80776 91.727 5.70486 91.8804 5.60745 92.0363C5.26766 91.8012 4.95551 91.5292 4.75954 91.3758C4.28755 91.008 3.83556 90.618 3.37002 90.2431C2.83864 89.8157 2.23217 89.5106 1.70015 89.0944C1.6433 89.0497 1.58094 89.0477 1.52266 89.0644C-0.433903 87.27 -2.5761 85.6966 -4.70514 84.1108C-7.17281 82.2719 -9.62943 80.1493 -12.5035 78.9698C-12.4441 78.5564 -12.438 78.1384 -12.41 77.71C-12.3648 76.989 -12.3025 76.2685 -12.2065 75.5516ZM-20.2873 117.177C-23.2262 113.31 -25.2596 108.859 -26.4948 104.173C-27.1772 101.584 -27.5668 98.9403 -27.782 96.2733C-27.8323 95.6544 -27.9311 94.975 -27.8481 94.3563C-27.7685 93.7568 -27.2084 94.1538 -26.8921 94.3852C-26.0837 94.9785 -25.3694 95.7415 -24.7126 96.5364C-24.8091 101.629 -23.9012 106.651 -21.8816 111.346C-19.859 116.048 -16.824 120.288 -13.0198 123.711C-11.9538 124.67 -10.8235 125.542 -9.64555 126.341C-13.7987 124.118 -17.4479 120.913 -20.2873 117.177ZM5.40873 130.362C0.33835 129.434 -4.63048 127.677 -8.87873 124.712C-12.7576 122.007 -16.0148 118.405 -18.3817 114.314C-20.7726 110.18 -22.3054 105.577 -22.7848 100.822C-22.9832 98.8561 -22.974 96.8777 -22.8542 94.9052C-21.4993 97.9272 -19.9613 100.887 -18.3342 103.753C-16.2985 107.341 -14.0117 110.819 -11.2559 113.9C-8.41233 117.077 -5.0603 119.795 -1.4938 122.123C2.17009 124.513 6.14754 126.402 10.163 128.121C12.4941 129.119 14.8482 130.057 17.1825 131.048C17.2393 131.073 17.296 131.097 17.3538 131.122C16.827 131.225 16.2957 131.311 15.7689 131.389C12.295 131.273 8.82777 130.988 5.40873 130.362ZM45.2525 178.688C45.0679 178.756 44.9113 178.893 44.8464 179.106C44.8146 179.208 44.7743 179.306 44.7409 179.408C43.0442 181.749 41.2328 184.004 39.2764 186.136C37.9594 187.57 36.5922 188.959 35.2057 190.33C35.1287 190.231 35.0436 190.141 34.9519 190.061C34.5847 189.74 34.3162 189.435 34.118 188.98C33.6797 187.973 33.5378 186.812 33.3379 185.738C32.8693 183.239 32.5274 180.72 32.2554 178.192C32.3361 176.24 32.3584 174.289 32.3229 172.347C32.2152 166.504 31.4793 160.738 30.4016 155.024C30.2389 153.626 30.0587 152.23 29.8369 150.839C29.4617 148.488 28.9441 146.164 28.5358 143.819C28.0743 141.176 27.8711 138.55 28.0419 135.871C28.1638 133.971 28.5191 132.1 28.9905 130.258C29.0853 130.286 29.1951 130.257 29.2421 130.13C30.2199 127.507 31.3805 125.031 32.7648 122.596C32.8824 122.389 33.0084 122.187 33.1279 121.981C32.427 124.121 31.9737 126.339 31.8978 128.573C31.6619 135.508 35.3309 141.306 40.0373 146.022C39.9111 146.034 39.7859 146.037 39.6574 146.064C37.9917 146.425 36.8248 148.008 36.2004 149.491C34.7065 153.036 35.9293 156.901 37.5008 160.183C39.1179 163.562 41.118 166.738 42.8091 170.078C43.6401 171.72 44.4039 173.406 44.9839 175.155C45.2914 176.082 45.5245 177.031 45.7552 177.981C45.5894 178.219 45.4195 178.453 45.2525 178.688ZM59.3545 191.116C58.4577 190.627 57.5668 190.127 56.6897 189.604C53.8923 187.934 51.1362 185.937 49.3652 183.144C48.4478 181.697 47.9266 180.084 47.5136 178.434C47.0799 176.701 46.6501 174.982 46.0256 173.306C44.8587 170.177 43.2167 167.259 41.6149 164.337C43.3845 163.914 45.1462 163.46 46.9062 162.995C48.633 162.54 50.3962 161.95 52.1957 161.896C53.3919 161.86 54.5049 162.163 55.5641 162.628C55.5715 162.632 55.5796 162.635 55.5878 162.637C55.6942 162.684 55.7939 162.746 55.8976 162.796C56.0684 163.45 56.2462 164.089 56.5179 164.732C56.8548 165.528 57.2592 166.306 57.6955 167.052C58.6037 168.604 59.6617 170.083 60.8741 171.413C62.0681 172.723 63.3908 173.928 64.814 174.984C65.1523 175.236 65.5003 175.474 65.8504 175.704C65.8555 175.72 65.8614 175.734 65.8665 175.749C66.1624 176.638 66.4634 177.552 66.6202 178.477C66.7872 179.462 66.5698 180.323 66.1401 181.21C65.2527 183.037 64.1854 184.771 63.0621 186.46C61.9588 188.117 60.7789 189.718 59.3545 191.116ZM68.5577 194.819C68.1142 194.708 67.6779 194.574 67.2318 194.473C66.7354 194.361 66.2362 194.326 65.7404 194.217C65.6089 194.188 65.499 194.226 65.4177 194.291C63.8083 193.453 62.1904 192.624 60.5856 191.772C61.9317 190.389 63.1101 188.849 64.0811 187.178C64.6528 186.193 65.1381 185.164 65.6535 184.148C66.1279 183.215 66.6439 182.292 67.0482 181.327C67.7592 179.63 67.4061 178.021 66.8933 176.358C67.6525 176.822 68.4195 177.271 69.1748 177.747C69.9549 178.239 70.7374 178.765 71.4022 179.407C72.0201 180.003 72.4412 180.725 72.9538 181.396C73.5561 182.364 74.0678 183.388 74.343 184.495C74.3638 185.159 74.3651 185.825 74.3238 186.489C74.1419 189.432 73.3276 192.446 71.8216 194.998C71.5205 195.204 71.1902 195.349 70.8211 195.37C70.0647 195.416 69.2788 195 68.5577 194.819ZM85.9476 199.083C82.8284 196.974 80.1038 194.38 77.5829 191.596C77.0862 191.048 76.5909 190.498 76.0982 189.945C76.1789 189.477 76.2472 189.006 76.2949 188.533C76.3151 188.333 76.3196 188.13 76.3319 187.928C78.6813 190.677 81.6247 192.866 84.4944 195.051C86.2605 196.395 88.0624 197.706 89.7859 199.104C91.2169 200.267 92.6967 201.376 93.923 202.752C91.0917 201.938 88.4219 200.757 85.9476 199.083ZM114.216 203.922C108.206 204.778 102.033 204.591 96.0967 203.304C95.9256 203.267 95.7584 203.223 95.5887 203.184C95.6213 203.031 95.5935 202.863 95.4666 202.707C94.155 201.089 92.2313 199.986 90.5533 198.789C88.7455 197.499 86.9981 196.124 85.2317 194.778C82.119 192.408 78.9637 190.047 76.3631 187.11C76.3692 185.965 76.2426 184.824 75.9269 183.719C75.9315 183.662 75.9371 183.605 75.9218 183.54C75.5666 182.074 75.4106 180.671 75.7004 179.173C75.8117 178.6 75.9959 178.052 76.2176 177.52C81.5781 179.537 86.985 181.438 92.3411 183.459C95.9503 184.822 99.6157 186.09 103.079 187.804C106.363 189.429 109.402 191.491 112.166 193.894C115.18 196.515 117.916 199.475 120.319 202.666C118.313 203.204 116.275 203.629 114.216 203.922ZM129.171 198.142C128.018 199.229 126.731 200.195 125.389 201.009C124.226 201.452 123.053 201.867 121.861 202.226C121.838 202.136 121.805 202.046 121.745 201.957C117.506 195.81 111.667 191.153 105.086 187.709C101.639 185.903 97.9717 184.61 94.3031 183.338C90.5425 182.034 86.7913 180.71 83.0466 179.365C80.8469 178.575 78.6462 177.784 76.4422 177.004C76.5687 176.75 76.7085 176.504 76.8592 176.262C77.1232 175.923 77.4127 175.604 77.7222 175.302C79.8605 175.518 81.9959 175.742 84.1305 175.985C88.5145 176.483 92.8905 177.058 97.2441 177.772C101.594 178.486 105.905 179.446 110.167 180.573C114.327 181.672 118.443 183.005 122.417 184.659C125.736 186.041 128.993 187.576 132.136 189.317C132.265 189.95 132.321 190.598 132.283 191.239C132.132 193.821 130.778 196.163 129.171 198.142Z" fill="white"/>
</svg>
