<svg width="114" height="110" viewBox="0 0 114 110" fill="none" xmlns="http://www.w3.org/2000/svg">
<path d="M97.7261 67.8577C100.868 66.8824 103.742 65.197 106.127 62.932C108.513 60.667 110.344 57.8832 111.481 54.7964C112.617 51.7096 113.028 48.4027 112.68 45.1317C112.333 41.8608 111.237 38.7137 109.478 35.9344C107.719 33.155 105.343 30.818 102.536 29.1044C99.7278 27.3908 96.5633 26.3466 93.2871 26.0528C90.0109 25.7589 86.7111 26.2233 83.6432 27.4099C80.5754 28.5965 77.822 30.4735 75.5962 32.8955C77.501 29.7286 78.5172 26.107 78.5379 22.4115C78.5823 19.1229 77.8691 15.8682 76.4534 12.8995C75.0378 9.93079 72.9578 7.3278 70.3745 5.2922C67.7912 3.25659 64.774 1.84298 61.5565 1.16088C58.3391 0.478774 55.0079 0.54649 51.8208 1.35877C48.6338 2.17104 45.6765 3.70608 43.178 5.84497C40.6796 7.98387 38.7071 10.6692 37.4133 13.693C36.1194 16.7167 35.5391 19.9978 35.7171 23.2819C35.8951 26.566 36.8268 29.765 38.4399 32.6312C36.2422 30.2057 33.517 28.3172 30.4742 27.111C27.4315 25.9049 24.1525 25.4133 20.8898 25.6743C17.6272 25.9352 14.468 26.9417 11.6557 28.6161C8.8434 30.2906 6.45296 32.5883 4.66869 35.3322C2.88442 38.0762 1.75397 41.1931 1.36429 44.4429C0.974612 47.6927 1.33612 50.9885 2.42108 54.0765C3.50605 57.1645 5.28546 59.9623 7.62218 62.2541C9.95891 64.546 12.7907 66.2708 15.8991 67.2957C19.4058 68.454 23.1557 68.6683 26.7714 67.9169C23.3755 69.3823 20.4219 71.7104 18.2039 74.6703C15.0157 79.2564 13.7443 84.9062 14.6605 90.416C15.5768 95.9257 18.6082 100.86 23.1091 104.167C27.61 107.475 33.2245 108.894 38.7565 108.123C44.2884 107.351 49.3004 104.45 52.7248 100.038C54.9015 97.0544 56.2545 93.5505 56.6478 89.8784C57.0133 93.6231 58.3585 97.2056 60.5479 100.265C62.7373 103.325 65.6939 105.755 69.1202 107.309C72.5465 108.864 76.3218 109.489 80.0663 109.122C83.8108 108.754 87.3926 107.407 90.4513 105.216C93.5101 103.025 95.938 100.067 97.4908 96.64C99.0436 93.2129 99.6666 89.4373 99.2971 85.6929C98.9276 81.9486 97.5787 78.3675 95.386 75.31C93.1933 72.2524 90.2342 69.8261 86.8063 68.2751C90.4202 69.0918 94.185 68.9479 97.7261 67.8577Z" fill="#D2FFE0" stroke="#33332E" stroke-linecap="round" stroke-linejoin="round"/>
</svg>
