<svg width="42" height="38" viewBox="0 0 42 38" fill="none" xmlns="http://www.w3.org/2000/svg">
<path d="M20.998 37.7826C11.7354 37.7826 4.16019 31.5962 3.81907 23.8832C3.81907 23.8832 1.23561 23.8832 1.22291 23.8832C0.497301 23.8832 0.494717 22.7973 1.22291 22.7973H4.36895C4.67917 22.7973 4.93074 23.0403 4.93074 23.3402C4.93074 30.705 12.1384 36.6967 20.998 36.6967C29.8576 36.6967 37.0653 30.705 37.0653 23.3402C37.0653 23.0403 37.3168 22.7973 37.6271 22.7973H40.7731C41.4896 22.7973 41.5088 23.8832 40.7731 23.8832H38.177C37.8358 31.5963 30.2606 37.7826 20.998 37.7826ZM20.998 31.2673C14.4928 31.2673 9.20037 26.1524 9.20037 19.8653C9.20037 13.7434 20.1006 0.949781 20.5652 0.407375C20.7878 0.14752 21.2085 0.147954 21.4307 0.407375C21.8948 0.94902 32.7956 13.7432 32.7956 19.8653C32.7957 26.1525 27.5032 31.2673 20.998 31.2673ZM20.998 1.61598C18.948 4.08748 10.324 14.7878 10.324 19.8653C10.324 25.5536 15.1123 30.1814 20.998 30.1814C26.8837 30.1814 31.6721 25.5536 31.6721 19.8653C31.6721 14.7864 23.048 4.08726 20.998 1.61598Z" fill="#171714"/>
</svg>
