<svg width="1920" height="130" viewBox="0 0 1920 130" fill="none" xmlns="http://www.w3.org/2000/svg">
<path d="M0 2.71848L26.6816 7.88256C84.9786 19.1149 144.999 29.3149 207.977 36.0355C275.85 43.2786 345.18 45.3608 415.391 43.9818C483.984 42.6349 555.251 40.1802 620.333 31.256C682.044 22.7948 735.997 5.36461 801.41 0.966389C854.894 -2.67613 908.257 4.88555 934.818 8.62029L961.5 12.4016V129.977C759.927 129.977 558.355 129.977 356.783 129.977C255.997 129.977 155.21 129.977 54.4245 129.977C49.5209 129.977 0 130.08 0 129.852C0 128.774 0 127.696 0 126.618C0 121.182 0 115.745 0 110.309C0 74.4452 0 38.5816 0 2.71848Z" fill="#FFD9D1"/>
<path d="M1923 2.71848L1896.32 7.88256C1838.02 19.1149 1778 29.3149 1715.02 36.0355C1647.15 43.2786 1577.82 45.3608 1507.61 43.9818C1439.02 42.6349 1367.75 40.1802 1302.67 31.256C1240.96 22.7948 1187 5.36461 1121.59 0.966389C1068.11 -2.67613 1014.74 4.88555 988.182 8.62029L961.5 12.4016V129.977C1163.07 129.977 1364.64 129.977 1566.22 129.977C1667 129.977 1767.79 129.977 1868.58 129.977C1873.48 129.977 1923 130.08 1923 129.852C1923 128.774 1923 127.696 1923 126.618C1923 121.182 1923 115.745 1923 110.309C1923 74.4452 1923 38.5816 1923 2.71848Z" fill="#FFD9D1"/>
</svg>
