<svg width="22" height="20" viewBox="0 0 22 20" fill="none" xmlns="http://www.w3.org/2000/svg">
<path d="M7.88155 17.4118C7.88155 18.2889 7.17047 19 6.29331 19C5.41616 19 4.70508 18.2889 4.70508 17.4118C4.70508 16.5346 5.41616 15.8235 6.29331 15.8235C7.17047 15.8235 7.88155 16.5346 7.88155 17.4118Z" stroke="#171714" stroke-width="1.14706" stroke-linecap="round" stroke-linejoin="round"/>
<path d="M16.3521 17.4118C16.3521 18.2889 15.6411 19 14.7639 19C13.8867 19 13.1757 18.2889 13.1757 17.4118C13.1757 16.5346 13.8867 15.8235 14.7639 15.8235C15.6411 15.8235 16.3521 16.5346 16.3521 17.4118Z" stroke="#171714" stroke-width="1.14706" stroke-linecap="round" stroke-linejoin="round"/>
<path d="M1 0.426471C0.683248 0.426471 0.426471 0.683248 0.426471 1C0.426471 1.31675 0.683248 1.57353 1 1.57353V0.426471ZM17.3684 11.4509L16.8582 11.1889L17.3684 11.4509ZM19.2712 7.745L18.761 7.48303L19.2712 7.745ZM6.29412 3.69118H16.4454V2.54412H6.29412V3.69118ZM18.761 7.48303L16.8582 11.1889L17.8786 11.7128L19.7814 8.00696L18.761 7.48303ZM14.5426 12.6029H6.29412V13.75H14.5426V12.6029ZM3.69118 10V9.47059H2.54412V10H3.69118ZM3.69118 9.47059V6.29412H2.54412V9.47059H3.69118ZM3.69118 9.47059V3.11765H2.54412V9.47059H3.69118ZM6.29412 12.6029C4.85655 12.6029 3.69118 11.4376 3.69118 10H2.54412C2.54412 12.0711 4.22305 13.75 6.29412 13.75V12.6029ZM16.8582 11.1889C16.4124 12.0571 15.5185 12.6029 14.5426 12.6029V13.75C15.9486 13.75 17.2364 12.9636 17.8786 11.7128L16.8582 11.1889ZM16.4454 3.69118C18.3926 3.69118 19.6503 5.75085 18.761 7.48303L19.7814 8.00696C21.0627 5.51144 19.2506 2.54412 16.4454 2.54412V3.69118ZM3.69118 3.11765C3.69118 1.63135 2.4863 0.426471 1 0.426471V1.57353C1.85279 1.57353 2.54412 2.26486 2.54412 3.11765H3.69118ZM6.29412 2.54412C4.22305 2.54412 2.54412 4.22305 2.54412 6.29412H3.69118C3.69118 4.85655 4.85655 3.69118 6.29412 3.69118V2.54412Z" fill="#171714"/>
</svg>
