<svg width="382" height="512" viewBox="0 0 382 512" fill="none" xmlns="http://www.w3.org/2000/svg">
<path d="M403.775 342.359C398.354 328.205 393.385 316.913 389.39 307.844C380.31 287.2 375.299 275.824 376.505 259.133L376.725 255.987L374.628 258.357C364.983 269.709 358.637 283.49 356.28 298.198C348.511 283.679 339.665 269.762 329.817 256.564C333.853 255.159 336.107 251.867 338.204 248.91C340.584 245.429 342.65 242.431 347.043 242.42C350.669 242.578 354.278 243.002 357.842 243.689C367.027 245.178 378.455 247.033 386.559 242.861C395.88 238.059 410.108 237.178 431.643 235.846C435.69 235.595 440.031 235.333 444.539 235.018C463.076 233.76 471.694 225.844 473.592 218.861C474.21 216.792 474.201 214.585 473.564 212.521C472.928 210.457 471.693 208.628 470.017 207.265C479.82 191.402 481.843 178.276 476.035 168.231C470.467 158.596 458.295 154.192 450.935 153.972C452.371 142.743 441.394 139.703 430.773 136.757C425.3 135.247 419.638 133.674 415.109 131.053L412.739 129.68C402.255 123.567 390.386 116.647 381.548 119.059C378.502 119.894 375.883 121.844 374.208 124.521C372.19 123.233 369.799 122.654 367.414 122.875C354.833 123.273 332.931 135.362 320.527 152.725C309.435 168.242 296.769 175.728 286.903 179.335C287.344 168.588 289.86 104.758 288.874 72.0877C287.553 27.9266 283.244 -26.6141 270.254 -36.5221C269.31 -38.5141 262.254 -53.6015 259.109 -65.6587C255.586 -79.2468 252.346 -79.9807 241.694 -82.2453L241.274 -82.3397C229.06 -84.9189 208.531 -80.5573 202.073 -57.9526C198.764 -46.9226 198.188 -35.2532 200.395 -23.9511C197.186 -28.4726 193.632 -32.7386 189.764 -36.7108C174.467 -52.0497 149.125 -68.0912 142.478 -64.2223C140.835 -63.2147 139.48 -61.7988 138.546 -60.1124C136.743 -57.313 135.045 -54.6709 124.696 -54.0313C107.921 -52.9829 83.7226 -17.6918 80.3781 -1.97539C79.7699 0.876419 79.078 4.31536 78.2811 8.36241C74.9366 25.2007 69.8934 50.6362 65.0181 57.64C58.4023 67.0761 56.0014 103.458 70.208 126.293C81.8773 145.05 85.6099 157.621 86.5535 161.406C85.3277 162.47 83.8714 163.236 82.2994 163.641C80.7274 164.047 79.0827 164.082 77.4948 163.744C66.465 161.689 56.4103 171.335 47.5403 179.722C45.8943 181.285 44.395 182.763 42.8537 184.115C38.8329 187.565 34.4491 190.567 29.7795 193.069C23.3182 196.604 17.2549 200.822 11.6936 205.651C-0.688741 216.565 -2.42919 228.434 6.79724 239.065C8.43283 240.963 9.21918 242.504 9.12481 243.657C9.03045 244.811 7.96102 245.754 6.82869 246.635C5.13019 248.04 2.8026 249.948 4.59547 253.408C5.7071 255.233 7.41435 256.618 9.42888 257.329C16.4431 260.401 29.8738 261.292 47.8759 262.498L52.51 262.802C59.9541 263.306 66.2238 263.62 71.7597 263.851C86.6403 264.377 101.477 265.777 116.193 268.045C144.177 272.238 157.377 269.345 189.271 262.341L189.732 262.236C216.992 256.26 229.678 234.808 237.259 221.996C238.716 219.532 239.974 217.404 241.065 215.894C243.291 212.88 246.061 210.309 249.232 208.314C246.748 213.699 245.666 219.625 246.087 225.54C246.192 227.218 246.349 228.958 246.517 230.782C247.639 242.819 249.033 257.78 233.138 271.473L224.331 277.994C204.882 292.348 186.513 305.904 176.742 317.983C168.281 328.467 168.522 338.532 168.774 349.227C168.941 356.335 169.12 363.695 166.876 371.915C165.219 377.965 167.138 382.914 172.265 385.849C172.793 386.149 173.335 386.422 173.89 386.667C186.681 392.255 212.285 385.902 229.658 368.12C254.464 342.747 281.105 262.614 282.479 230.835C283.774 233.667 285.318 236.379 287.092 238.939C291.575 245.311 297.748 250.304 304.916 253.356C311.68 261.159 317.716 269.564 322.949 278.466C317.906 274.482 309.068 269.271 294.138 264.899L292.282 264.354L292.848 266.21C304.696 305.338 304.067 330.344 290.279 369.116C276.492 407.888 283.139 439.866 315.505 491.838C321.125 503.151 325.696 510.438 325.843 510.647L326.661 511.947L327.5 510.805C356.353 486.91 380.101 456.61 394.37 425.481C408.912 393.964 412.226 364.419 403.775 342.359ZM372.112 264.994C370.581 270.351 369.878 279.536 374.303 293.952C377.752 305.202 382.271 314.921 386.643 324.284C392.368 336.572 397.778 348.178 400.472 362.269C405.138 386.636 391.749 421.224 376.421 444.699C365.139 461.957 350.209 483.492 338.991 494.711C344.852 486.208 352.264 475.178 359.457 463.624C392.085 424.904 394.978 384.025 395.22 376.025C395.503 366.736 394.349 353.536 382.795 333.772C373.464 317.804 368.253 304.143 366.88 292.023C366.041 284.684 368.61 273.151 369.763 268.464C370.497 267.3 371.283 266.147 372.112 264.994ZM301.341 292.191C304.958 299.467 311.532 315.634 309.131 333.196C307.327 346.301 304.402 360.98 302.043 372.786C300.166 382.222 298.657 389.75 298.248 393.755C297.66 395.569 297.105 397.466 296.591 399.479C292.292 416.37 295.071 435.798 300.324 453.643C296.13 443.881 290.583 428.165 290.625 413.686C290.678 398.871 294.536 384.906 297.965 372.576C299.99 365.803 301.632 358.921 302.882 351.963C304.811 339.644 307.233 317.762 302.882 304.321C302.578 300.368 302.054 296.332 301.341 292.191ZM323.358 359.198C319.366 362.264 315.622 365.64 312.161 369.294C315.809 358.139 318.179 335.838 314.509 316.399C311.133 298.471 300.732 279.62 297.084 273.413C296.675 271.924 296.256 270.425 295.805 268.904C300.785 272.815 315.002 285.952 322.593 312.94C330.184 339.927 325.382 354.815 323.39 359.198H323.358ZM313.744 316.546C317.539 336.687 314.646 360.718 310.756 370.867C305.897 376.529 302.094 383.017 299.527 390.022C300.208 385.828 301.393 379.873 302.777 372.932C305.136 361.127 308.072 346.427 309.875 333.301C312.601 313.38 303.941 295.294 300.848 289.59C300.04 285.313 299.044 280.909 297.86 276.338C302.305 284.191 310.787 300.735 313.775 316.546H313.744ZM298.625 400.014C304.549 376.738 315.4 368.141 326.933 359.04C333.748 353.662 340.7 348.147 346.707 339.434C344.61 344.341 340.584 352.12 332.752 362.961C318.556 382.652 303.532 406.043 305.147 434.707C306.195 453.926 312.706 476.897 316.68 489.447C305.65 466.811 291.15 429.392 298.625 400.014ZM368.452 270.592C367.184 276.128 365.37 285.669 366.093 292.117C367.509 304.342 372.751 318.119 382.114 334.171C393.573 353.766 394.695 366.82 394.433 375.994C394.203 383.627 391.539 421.34 362.675 458.403C373.275 440.956 382.795 423.07 385.301 411.526C386.05 407.932 386.444 404.272 386.475 400.601C390.155 389.068 388.813 378.217 387.388 366.715L387.167 364.954C386.119 356.629 381.233 346.511 375.54 334.789C372.468 328.499 369.249 321.946 366.272 314.869C360.505 301.239 361.155 289.852 362.214 283.792C363.881 279.209 365.969 274.79 368.452 270.592ZM383.257 411.086C379.178 429.811 355.451 466.79 339.829 489.72C344.023 480.85 350.912 466.486 356.007 457.354C357.832 454.093 359.74 450.938 361.595 447.918C367.886 437.559 374.334 426.855 379.671 408.915C382.204 400.206 383.243 391.131 382.743 382.075C384.609 392.654 385.049 402.855 383.236 411.086H383.257ZM381.359 375.207C382.861 386.398 382.029 397.779 378.916 408.632C373.611 426.456 367.163 437.14 360.924 447.425C359.069 450.487 357.15 453.664 355.326 456.935C349.255 467.797 340.647 486.019 337.093 493.683C335.069 496.619 333.235 499.251 331.662 501.473C333.885 495.361 337.659 484.897 340.532 476.604C342.094 472.085 344.998 466.067 348.678 458.445C355.074 445.192 363.85 426.991 370.906 405.193C378.738 380.974 373.6 355.15 369.983 342.286C374.937 352.823 378.75 363.86 381.359 375.207ZM367.918 338.197C371.231 348.472 378.968 377.755 370.161 404.984C363.116 426.771 354.361 444.898 347.965 458.141C344.275 465.784 341.36 471.823 339.788 476.373C336.432 486.071 331.83 498.747 329.943 503.948L328.716 505.615C333.639 483.107 340.145 460.975 348.186 439.384C361.816 403.107 364.909 387.81 367.163 365.237C368.893 347.916 362.969 332.021 360.295 326.003C363.186 329.838 365.736 333.918 367.918 338.197ZM366.46 365.163C364.217 387.663 361.092 402.908 347.525 439.111C339.249 461.29 332.612 484.047 327.667 507.198C327.616 507.26 327.57 507.327 327.531 507.397C331.421 471.435 337.387 449.984 343.164 429.224C346.791 416.181 350.503 402.698 353.805 385.661C360.799 349.122 357.643 327.995 356.227 321.432C357.05 322.167 357.827 322.952 358.555 323.781H358.492C358.555 324.011 368.557 343.46 366.46 365.163ZM341.905 342.338C342.566 337.379 343.258 326.119 338.991 311.461C342.028 319.446 344.529 327.625 346.477 335.943C345.088 338.168 343.561 340.304 341.905 342.338ZM338.005 310.885C342.943 327.272 341.601 339.487 340.93 343.492C339.076 345.632 337.098 347.663 335.007 349.573C338.019 335.692 337.532 321.28 333.591 307.634C328.779 290.555 317.319 279.001 310.42 273.329C314.292 275.165 317.963 277.396 321.377 279.986C328.872 289.113 334.52 299.611 338.005 310.895V310.885ZM332.847 307.854C338.792 329.002 335.195 345.893 333.969 350.537C332.48 351.858 330.98 353.116 329.481 354.333C334.241 342.8 333.853 320.184 324.637 299.677C319.375 287.884 311.357 277.528 301.257 269.481C303.458 270.285 305.485 271.096 307.338 271.913C313.387 276.422 327.416 288.584 332.847 307.865V307.854ZM305.943 434.666C304.35 406.263 319.29 382.997 333.413 363.37C343.635 349.206 347.452 340.304 348.846 336.11C349.664 334.758 350.45 333.363 351.226 331.864C350.096 339.72 348.196 347.446 345.554 354.93C343.384 361.169 339.693 367.176 335.793 373.53C329.502 383.784 322.362 395.411 318.514 412.229C312.161 440.097 315.075 457.019 317.896 473.385C319.877 484.918 321.544 495.057 322.415 500.467C321.366 498.6 320.318 496.472 319.07 494.176C315.6 483.775 307.181 456.725 305.943 434.666ZM318.661 473.291C315.862 456.998 312.957 440.149 319.29 412.48C323.096 395.789 330.194 384.224 336.464 374.012C340.385 367.617 344.097 361.577 346.298 355.266C349.237 347.016 351.242 338.463 352.275 329.767C352.809 328.624 353.323 327.44 353.837 326.213C353.888 336.738 352.216 347.2 348.888 357.184C347.211 362.322 345.397 367.48 343.468 372.911C338.152 388.02 332.113 405.141 327.101 427.305C321.859 450.204 323.379 475.105 324.459 493.285C324.732 497.741 324.962 501.672 325.078 505.216C324.616 504.409 324.103 503.507 323.547 502.511C322.823 498.055 320.957 486.564 318.661 473.291ZM325.245 493.211C324.197 475.084 322.698 450.225 327.867 427.463C332.868 405.382 338.896 388.24 344.212 373.121C346.131 367.659 347.955 362.49 349.633 357.394C353.207 346.761 354.879 335.581 354.571 324.368C354.875 323.571 355.179 322.732 355.483 321.883C356.898 328.666 359.876 349.573 352.988 385.524C349.737 402.541 345.984 416.013 342.367 429.035C336.548 449.931 330.551 471.529 326.64 507.89C326.43 507.533 326.179 507.125 325.906 506.653C325.812 502.784 325.57 498.317 325.245 493.211ZM360.893 287.504C360.133 296.949 361.717 306.435 365.506 315.12C368.536 322.25 371.713 328.75 374.785 335.114C380.447 346.773 385.343 356.838 386.318 365.027L386.538 366.788C387.838 377.336 389.086 387.37 386.402 397.77C386.199 390.764 385.339 383.793 383.833 376.948C380.08 349.394 369.092 322.68 357.915 301.344C358.446 296.646 359.458 292.016 360.935 287.525L360.893 287.504ZM332.469 252.496C306.258 254.593 291.317 239.914 285.897 233.026C284.265 230.025 282.947 226.862 281.965 223.59C286.293 229.465 292.074 234.115 298.74 237.084C299.684 237.524 300.617 237.954 301.55 238.352C315.799 244.58 329.167 247.337 337.68 245.849C337.24 246.446 336.81 247.065 336.391 247.684C335.294 249.443 333.992 251.065 332.511 252.517L332.469 252.496ZM255.932 204.896C256.917 204.497 257.662 204.235 258.029 204.11L258.197 204.162C256.1 205.86 252.881 209.782 253.541 217.11C253.878 219.865 254.382 222.596 255.051 225.288C257.033 234.127 259.476 244.999 253.028 255.977C251.958 256.969 250.84 257.948 249.673 258.912C255.187 248.428 253.468 237.471 252.042 228.444C251.57 225.467 251.119 222.646 250.994 220.12C250.769 217.381 251.088 214.624 251.934 212.01C252.78 209.395 254.135 206.974 255.921 204.885L255.932 204.896ZM240.383 196.802C218.939 198.59 197.758 202.739 177.224 209.174L169.214 211.7C128.848 224.46 53.8835 248.187 9.6805 239.38C9.6071 239.254 9.50226 239.128 9.41838 239.013C15.6357 239.6 36.7307 240.648 63.8019 231.527L70.3128 229.325C106.39 217.048 181.229 191.58 239.744 196.456L240.383 196.802ZM169.843 213.703C172.705 212.791 175.379 211.942 177.853 211.176C212.452 200.356 240.761 198.825 243.906 198.689L244.734 199.098C232.698 200.723 209.433 208.775 182.802 217.97C158.604 226.358 131.176 235.794 106.715 242.378C58.2451 255.369 17.8165 245.964 11.1274 244.224C11.1274 244.098 11.1798 243.982 11.1903 243.846C11.2459 243.135 11.1494 242.42 10.9072 241.749C55.7917 249.78 129.792 226.379 169.833 213.724L169.843 213.703ZM247.219 200.251C239.251 201.897 217.202 208.911 193.957 220.937C167.012 234.861 158.058 239.044 111.905 251.898C74.1607 262.383 28.0285 252.077 9.58614 247.033C10.1911 246.443 10.6599 245.727 10.9596 244.937C17.7222 246.698 58.3185 256.134 106.956 243.102C131.438 236.538 158.876 227.05 183.085 218.673C210.638 209.153 234.575 200.849 246.087 199.685L247.219 200.251ZM8.17071 248.281L8.90465 247.663H9.06191C27.347 252.695 73.9824 263.232 112.115 252.611C158.352 239.736 167.316 235.553 194.314 221.587C218.827 208.911 241.924 201.813 248.477 200.754C249.232 201.08 249.977 201.394 250.7 201.677C245.458 202.726 232.163 206.741 210.03 221.797C183.368 239.925 139.784 261.345 83.3032 260.464C36.3847 259.72 12.7525 251.091 7.42632 248.868L8.17071 248.281ZM220.431 179.985C189.774 153.396 186 138.518 185.706 137.134C185.798 136.191 186.195 135.303 186.838 134.607C188.06 133.365 189.211 132.056 190.288 130.686C191.242 135.247 195.079 144.945 209.936 160.347C222.077 172.928 235.455 182.071 246.223 186.779C252.399 189.473 257.756 190.7 261.447 190.291C261.369 190.575 261.327 190.867 261.321 191.161C261.321 193.52 263.418 195.596 266.658 198.731C268.094 200.115 269.688 201.656 271.355 203.47C265.62 203.9 246.936 203.009 220.421 180.005L220.431 179.985ZM215.954 178.831C204.033 174.228 167.39 161.343 136.512 163.817C98.9462 166.837 80.2941 181.4 49.3856 205.546L48.9977 205.85C22.954 226.19 7.60455 229.294 3.78817 229.755C3.61898 229.221 3.47898 228.679 3.36879 228.13C10.1523 225.886 32.6417 209.887 46.2507 198.175C49.0082 195.795 51.8076 193.101 54.7747 190.249C68.4676 177.08 85.505 160.693 119.779 153.993C156.014 146.906 201.16 169.374 211.97 175.162C213.207 176.378 214.539 177.626 215.944 178.852L215.954 178.831ZM49.4695 206.49L49.8679 206.186C80.6506 182.134 99.2293 167.623 136.565 164.625C169.319 161.993 208.646 176.766 217.674 180.352L219.047 181.568C220.788 183.067 222.476 184.461 224.143 185.762C146.913 156.625 86.2704 195.019 60.0694 211.617L57.0813 213.504C35.2105 227.228 9.90068 231.527 4.77372 232.292C4.49258 231.705 4.24407 231.103 4.02932 230.489C8.22316 230.048 23.3734 226.903 49.4695 206.49ZM57.5007 214.227L60.4888 212.34C86.8575 195.638 148.266 156.772 226.281 187.492C228.766 189.389 231.178 191.098 233.495 192.639C220.819 189.41 185.098 181.746 154.043 188.697C132.56 193.51 112.828 202.149 93.7459 210.505C78.7739 217.058 64.6302 223.254 51.4511 226.651C26.1937 233.162 10.8023 235.438 6.9545 235.962C6.29068 235.049 5.69496 234.089 5.17214 233.089C10.9491 232.208 35.8815 227.805 57.5007 214.227ZM178.283 135.792C148.538 121.323 124.518 125.391 109.473 131.462C100.004 135.27 91.3652 140.882 84.0372 147.986C82.5798 144.578 80.6926 140.646 78.2706 136.086C87.0075 130.184 96.7031 125.846 106.925 123.263C123.323 119.069 148.717 117.454 177.046 133.464C177.455 134.272 177.864 135.048 178.283 135.792ZM173.471 112.202C173.261 100.669 178.87 88.58 179.132 88.0872C179.394 87.5944 188.17 71.3852 196.715 74.258C197.245 74.3977 197.738 74.6524 198.158 75.0039C198.578 75.3554 198.916 75.7952 199.147 76.292C200.647 79.6366 197.858 86.1895 195.404 91.9665C193.727 95.8982 192.144 99.6097 191.777 102.451C191.411 106.09 191.577 109.764 192.269 113.355C192.794 116.825 193.255 119.835 192.207 122.54C190.11 128.023 188.768 129.575 185.308 133.244C183.211 135.477 183.305 138.382 183.955 140.73C180.034 135.687 173.691 124.374 173.471 112.202ZM173.649 125.203C129.792 91.0963 70.6903 94.9022 62.376 95.6361C61.462 87.7185 61.5676 79.7163 62.6905 71.8256C71.5186 73.22 134.08 84.3022 172.779 122.152C173.041 123.211 173.334 124.217 173.649 125.203ZM174.97 92.7528C158.52 44.4713 103.046 -21.0993 96.5033 -28.732C99.7376 -33.2535 103.332 -37.5066 107.25 -41.4498C113.352 -32.475 158.981 35.507 177.056 87.5105C176.689 88.2969 175.882 90.1736 174.97 92.7528ZM174.551 93.99C174.299 94.7554 174.037 95.5732 173.785 96.4329C152.04 47.6167 94.7419 -6.4523 87.0777 -13.5399C89.7097 -18.5935 92.6983 -23.4532 96.021 -28.082C103.14 -19.7677 158.666 46.0021 174.592 93.99H174.551ZM190.424 72.7797C194.964 20.3568 168.637 -42.5507 163.112 -55.0378C171.495 -49.8305 179.319 -43.7733 186.461 -36.9624C189.344 -27.5263 205.333 28.042 194.618 71.7627C193.164 71.7994 191.734 72.1461 190.424 72.7797ZM218.062 10.1448C217.791 10.9384 217.567 11.7471 217.391 12.5667C215.988 18.2983 216.147 24.301 217.852 29.9502C218.245 31.2341 218.505 32.5552 218.628 33.8924C212.211 40.4872 207.095 55.2809 205.889 70.9554C205.763 72.5071 205.7 74.0378 205.658 75.5581C204.18 84.9942 202.314 106.089 211.498 122.089C221.155 138.864 226.386 146.203 228.106 148.447C228.106 148.583 228.106 148.709 228.032 148.845C227.892 149.529 227.893 150.234 228.036 150.918C228.178 151.601 228.459 152.248 228.861 152.819C230.171 154.643 232.771 155.681 235.927 156.426C238.601 159.508 251.497 173.998 267.549 184.965L266.815 185.342C261.573 182.197 233.17 164.373 214.151 137.396C197.648 114.037 196.746 98.7395 197.103 93.3085C197.176 93.1303 197.25 92.952 197.334 92.7738C200.091 86.2943 202.943 79.6052 201.066 75.4218C200.97 75.216 200.862 75.0164 200.741 74.8242C214.769 36.9224 210.408 3.52902 208.164 -8.11935C213.501 0.803032 217.212 8.34145 218.062 10.1029V10.1448ZM230.979 -1.02129C235.456 3.6129 261.31 31.5333 270.359 66.8349C279.627 103.017 282.647 171.586 283.013 180.603L282.73 180.687C282.395 172.708 279.952 125.737 267.937 88.2969C255.995 51.1185 225.747 33.0956 220.022 29.9607L219.875 29.4155C218.256 24.0851 218.103 18.4166 219.435 13.0071C220.809 6.72682 224.919 1.87246 230.979 -1.06322V-1.02129ZM248.446 -4.31345C251.609 -4.22337 254.734 -5.01473 257.473 -6.59908C260.251 -3.75776 271.051 9.43184 278.212 45.1214C286.138 84.5119 284.177 171.869 283.968 180.278L283.789 180.331C283.391 170.548 280.34 102.608 271.114 66.6043C262.16 31.6487 236.818 3.89598 231.744 -1.39873C237.031 -3.58383 242.73 -4.59271 248.446 -4.35538V-4.31345ZM268.367 -35.6309C268.492 -28.6901 266.375 -19.0967 261.447 -12.8689C266.259 -23.9511 267.475 -32.5275 267.738 -36.9834C268.042 -36.3648 268.251 -35.914 268.367 -35.6728V-35.6309ZM321.125 155.451C329.785 147.168 348.605 131.829 369.994 130.896C399.571 129.596 423.863 136.966 448.628 154.769L448.366 156.069L449.697 156.017H450.337C464.103 166.774 474.189 182.05 476.622 185.908C476.423 187.051 476.139 188.215 475.814 189.4C455.453 159.204 425.489 141.517 386.79 136.83C354.424 132.909 331.515 151.508 317.833 162.549C316.543 163.597 315.358 164.551 314.258 165.411C311.201 167.821 307.989 170.027 304.643 172.016C310.922 167.318 316.475 161.723 321.125 155.409V155.451ZM398.826 190.05C361.7 185.531 316.742 188.938 298.174 191.371C279.375 193.835 266.616 191.706 263.481 191.077C263.504 190.953 263.535 190.83 263.575 190.71C267.046 191.13 283.852 192.807 299.894 187.9C318.902 182.134 381.317 171.523 415.895 180.718C447.81 189.201 466.588 201.95 469.482 204.005C469.052 204.749 468.591 205.494 468.119 206.248C462.709 204.403 430.228 193.845 398.826 190.018V190.05ZM193.349 125.203C198.592 133.915 222.245 171.01 256.257 187.89C245.951 185.898 228.274 176.294 211.467 158.879C191.252 137.91 192.091 127.981 192.102 127.897C192.564 127.021 192.981 126.122 193.349 125.203ZM194.324 122.707C195.247 119.908 194.943 116.962 194.482 113.869C200.657 127.499 221.071 165.642 263.428 187.554L263.344 187.617C262.84 187.872 262.299 188.046 261.74 188.131C223.262 171.691 196.977 127.362 194.324 122.739V122.707ZM265.745 188.404C269.289 188.928 281.273 189.851 298.248 182.04C301.854 180.383 305.755 178.401 309.885 176.304C329.68 166.25 354.309 153.742 384.892 155.629C424.063 158.04 455.716 179.041 472.533 198.123C472.302 198.616 472.051 199.108 471.799 199.612C466.253 195.009 436.036 170.968 405.222 166.009C370.885 160.483 341.947 169.835 318.703 177.353C314.037 178.863 309.885 180.32 306.216 181.61C292.177 186.537 282.73 189.84 265.053 188.949C265.232 188.802 265.462 188.634 265.745 188.435V188.404ZM264.078 187.062C218.565 163.691 198.413 121.323 194.052 110.975C193.608 108.233 193.541 105.442 193.853 102.682C194.353 100.169 195.145 97.7238 196.212 95.3949C196.212 102.241 198.56 116.658 213.511 137.826C232.195 164.279 259.895 182.019 266.029 185.751C265.352 186.148 264.701 186.585 264.078 187.062ZM469.849 203.292C466.703 201.038 447.831 188.372 416.084 179.943C381.359 170.706 318.724 181.348 299.653 187.135C284.261 191.801 268.136 190.417 264.005 189.945L264.236 189.693C282.563 190.742 292.146 187.418 306.468 182.354C310.127 181.064 314.279 179.607 318.934 178.108C342.105 170.611 370.937 161.332 405.096 166.784C435.984 171.754 466.326 196.089 471.421 200.335C470.95 201.321 470.415 202.296 469.849 203.281V203.292ZM472.9 197.378C455.915 178.255 424.178 157.306 384.955 154.884C354.151 152.987 328.338 166.082 309.54 175.644C305.419 177.741 301.529 179.712 297.933 181.368C282.269 188.571 270.946 188.267 266.731 187.796C267.478 187.341 268.248 186.924 269.038 186.548C276.157 186.285 283.209 185.072 290.007 182.941C296.182 181.075 301.959 177.122 308.648 172.551C316.68 167.068 325.78 160.85 338.582 155.943C361.648 147.105 381.002 142.009 420.519 156.992C455.244 170.14 470.845 191.235 473.739 195.596C473.455 196.162 473.172 196.76 472.9 197.368V197.378ZM253.929 160.19C256.11 163.597 263.271 174.543 269.237 181.295C269.667 182.344 270.002 183.161 270.222 183.759L269.95 183.864C260.828 175.906 250.186 162.161 247.324 158.376C249.58 158.761 251.793 159.369 253.929 160.19ZM255.324 160.85C260.776 163.817 265.525 172.792 268.23 178.863C263.622 173.084 259.315 167.071 255.324 160.85ZM246.223 158.187C247.974 160.515 259.381 175.55 269.184 184.199L268.408 184.545C253.374 174.354 241.044 160.966 237.269 156.677C238.936 157.013 240.74 157.296 242.512 157.589C243.791 157.768 244.975 157.956 246.181 158.177L246.223 158.187ZM272.256 183.088C270.705 178.968 264.351 163.167 256.131 158.89C252.556 157.034 247.639 156.258 242.889 155.514C237.647 154.696 232.247 153.846 230.601 151.561C230.363 151.214 230.2 150.822 230.12 150.408C230.041 149.995 230.048 149.57 230.14 149.16C230.387 147.844 230.706 146.542 231.094 145.26C231.272 144.631 231.44 144.012 231.608 143.383C237.28 144.83 265.389 153.438 273.127 182.836L272.256 183.088ZM217.139 115.054C232.572 132.353 230.874 138.35 229.07 144.683C228.829 145.564 228.578 146.455 228.368 147.388C226.271 144.641 221.196 137.281 212.222 121.659C204.757 108.658 204.694 92.1762 205.721 81.5658C206.245 95.4578 210.24 107.379 217.097 115.043L217.139 115.054ZM273.892 182.637C266.049 152.84 237.594 144.106 231.796 142.628C232.719 138.675 232.845 134.356 229.081 127.52C236.965 130.424 266.605 143.781 275.035 182.365C274.594 182.438 274.196 182.532 273.85 182.627L273.892 182.637ZM275.811 182.207C266.951 141.674 234.921 128.683 228.473 126.461C225.601 121.896 222.305 117.614 218.628 113.67C217.118 111.943 215.774 110.079 214.612 108.102C220.829 110.115 241.599 117.863 256.047 135.436C271.25 153.951 275.569 177.07 276.345 182.102L275.811 182.207ZM277.195 181.945C276.387 176.787 272.026 153.553 256.729 134.932C241.432 116.312 219.058 108.606 214.088 107.075C211.14 101.491 209.226 95.4209 208.437 89.1566C215.262 91.631 248.813 104.726 261.321 127.95C273.829 151.173 277.184 176.577 277.782 181.819L277.195 181.945ZM278.6 181.683C277.97 176.189 274.49 150.649 262.013 127.53C249.117 103.636 214.203 90.3728 208.311 88.2759C207.493 81.6445 207.472 74.9391 208.248 68.3028C214.696 71.3014 248.32 87.9718 261.887 116.532C275.454 145.092 279.071 175.612 279.658 181.452L278.6 181.683ZM280.434 181.274C279.805 175.162 276.125 144.693 262.611 116.196C248.76 87.0387 214.245 70.1795 208.353 67.4745C209.066 61.3274 210.437 55.2746 212.442 49.42C218.733 53.1001 253.814 74.8661 265.819 110.965C277.687 146.686 280.497 175.55 280.959 181.148L280.434 181.274ZM281.724 180.949C281.231 175.004 278.358 146.235 266.553 110.702C254.391 74.1217 218.774 52.1775 212.704 48.6547C214.864 42.6889 217.569 37.866 220.463 35.0247L220.767 34.7311V34.2908C220.752 33.1653 220.6 32.0457 220.316 30.9567C227.257 34.8779 255.743 52.7856 267.213 88.4961C279.302 126.136 281.682 173.495 281.986 180.865L281.724 180.949ZM185.339 144.945C185.49 145.041 185.648 145.125 185.811 145.197C186.137 145.352 186.504 145.4 186.859 145.333C188.275 147.87 189.84 150.321 191.546 152.672C174.275 140.169 153.555 133.32 132.235 133.066C146.42 131.326 164.339 133.234 184.438 144.232C184.707 144.486 184.995 144.721 185.297 144.935L185.339 144.945ZM126.709 133.968C150.64 132.948 174.168 140.37 193.182 154.937C195.279 157.673 197.795 160.724 200.867 164.09C169.486 143.467 142.981 140.751 125.913 142.282C115.747 143.076 105.83 145.821 96.7025 150.366C97.419 149.054 98.2393 147.803 99.1559 146.623C101.043 144.305 111.087 137.082 126.667 133.957L126.709 133.968ZM470.184 221.346C464.942 221.755 441.876 223.443 420.466 223.055C414.176 222.95 407.12 222.898 399.613 222.846C377.941 222.699 350.975 222.521 327.269 220.686C309.039 219.221 291.337 213.857 275.36 204.959C275.024 204.497 274.678 204.047 274.311 203.606C273.944 203.166 273.714 202.935 273.41 202.61C274.762 203.323 276.398 204.131 278.327 204.969C289.699 209.765 301.842 212.475 314.174 212.969C323.61 213.462 340.605 213.724 360.306 214.017C403.439 214.689 456.963 215.527 471.222 219.26C470.939 219.985 470.591 220.683 470.184 221.346ZM461.87 228.581C454.038 228.948 418.715 230.677 397.6 234.074C383.152 236.381 334.692 243.123 313.419 233.844C313.258 233.782 313.101 233.712 312.947 233.634C312.695 233.55 288.623 225.1 279.774 215.024C279.347 213.329 278.815 211.662 278.18 210.033C284.215 214.368 290.705 218.031 297.535 220.958C302.972 223.338 308.579 225.308 314.31 226.851C336.537 232.827 366.806 233.959 397.348 229.944C420.414 226.914 458.158 225.309 467.154 224.963C465.564 226.402 463.786 227.619 461.87 228.581ZM468.024 224.146C461.01 224.408 421.242 226.012 397.275 229.168C366.869 233.162 336.684 232.051 314.541 226.085C294.473 220.696 281.535 211.648 277.551 208.586C277.19 207.841 276.787 207.117 276.345 206.416C278.442 207.59 281.588 209.226 285.687 210.998C298.854 216.759 312.883 220.302 327.206 221.483C350.943 223.317 377.92 223.496 399.602 223.642C407.109 223.695 414.207 223.747 420.445 223.852C441.194 224.219 463.432 222.657 469.65 222.185C469.158 222.878 468.614 223.534 468.024 224.146ZM264.907 213.661C265.687 216.612 266.982 219.402 268.734 221.902C270.38 224.502 271.743 226.651 271.627 229.923C270.883 231.59 270.044 233.33 269.09 235.165C269.446 230.51 267.727 226.84 265.683 222.468C264.739 220.445 263.753 218.348 262.873 215.926C260.514 209.446 262.6 206.49 263.921 205.336C264.624 205.431 265.295 205.504 265.924 205.567C265.729 205.716 265.553 205.889 265.399 206.081C264.215 207.559 264.026 210.128 264.907 213.692V213.661ZM268.136 206.532C268.361 206.207 268.633 205.917 268.943 205.672C269.992 205.672 270.788 205.672 271.48 205.598C270.537 207.37 269.027 211.029 270.883 213.703C272.284 215.684 273.8 217.581 275.423 219.386C275.171 220.277 274.888 221.241 274.563 222.258C273.83 221.012 272.942 219.864 271.921 218.84C270.17 216.911 268.188 214.73 267.559 211.638C267.317 210.795 267.243 209.914 267.342 209.043C267.441 208.172 267.71 207.329 268.136 206.563V206.532ZM275.674 218.515C274.194 216.849 272.811 215.099 271.533 213.273C269.761 210.725 271.648 206.898 272.435 205.525L273.074 205.431C273.326 205.745 273.577 206.049 273.808 206.364C273.058 207.898 272.822 209.634 273.137 211.312C273.577 213.187 274.698 214.832 276.282 215.926C276.125 216.691 275.926 217.551 275.674 218.515ZM255.827 225.142C255.166 222.484 254.669 219.787 254.338 217.069C253.646 209.373 257.347 205.724 259.14 204.424L260.818 204.802C254.957 211.092 259.067 222.866 262.118 231.548L262.611 232.974C264.561 238.572 262.149 244.779 260.157 248.512C258.492 250.523 256.725 252.448 254.862 254.278C260 243.773 257.714 233.55 255.827 225.131V225.142ZM262.369 245.702C263.869 241.99 264.928 237.22 263.355 232.712L262.862 231.286C259.822 222.625 255.691 210.841 261.751 204.969C262.17 205.053 262.6 205.137 262.998 205.2C261.541 206.762 259.853 210.054 262.128 216.188C263.03 218.652 264.015 220.759 264.97 222.804C267.245 227.658 269.1 231.621 268.042 237.084C266.341 240.074 264.446 242.949 262.369 245.691V245.702ZM269.394 221.524C267.694 219.095 266.431 216.388 265.662 213.525C264.613 209.404 265.316 207.475 266.039 206.584C266.407 206.123 266.921 205.801 267.496 205.672H267.842C267.711 205.801 267.595 205.945 267.496 206.102C266.542 207.496 266.301 209.415 266.794 211.816C267.454 215.118 269.52 217.383 271.344 219.386C272.545 220.521 273.511 221.882 274.186 223.391C273.672 224.911 273.064 226.536 272.34 228.277C272.026 225.666 270.778 223.684 269.394 221.514V221.524ZM276.471 215.087C275.189 214.119 274.281 212.737 273.902 211.176C273.655 209.828 273.805 208.436 274.332 207.171C275.421 208.884 276.285 210.731 276.901 212.665C276.849 213.021 276.723 213.85 276.471 215.076V215.087ZM444.361 232.911C439.81 233.218 435.515 233.494 431.475 233.739C409.678 235.081 395.272 235.972 385.553 240.973C378.067 244.832 367.016 243.07 358.136 241.602C354.458 240.895 350.732 240.46 346.99 240.302C342.933 240.302 340.459 242.399 338.435 244.926C329.628 246.876 314.761 243.678 299.118 236.392C288.686 231.548 283.485 224.754 281.294 221.126C281.001 220.004 280.728 218.903 280.466 217.834C280.371 217.435 280.277 217.048 280.172 216.66C285.802 222.353 295.658 227.354 303.05 230.583C308.292 232.858 312.234 234.263 312.643 234.4C333.759 244.056 383.11 237.22 397.715 234.882C417.384 231.736 449.446 230.006 459.983 229.493C455 231.483 449.72 232.627 444.361 232.879V232.911ZM471.442 218.515C457.141 214.751 403.513 213.913 360.306 213.273C340.616 212.969 323.61 212.707 314.174 212.225C291.464 211.029 277.111 204.005 271.617 200.765C270.422 199.538 269.3 198.437 268.304 197.473C277.629 200.212 287.124 202.338 296.727 203.837C317.392 207.255 380.835 209.876 402.202 208.775C423.056 207.727 462.143 211.847 471.82 214.814C471.925 215.963 471.822 217.121 471.516 218.232C471.497 218.328 471.473 218.423 471.442 218.515ZM471.726 213.997C461.419 210.998 423.496 206.909 402.16 208.02C380.824 209.132 317.487 206.5 296.853 203.093C286.773 201.515 276.818 199.216 267.066 196.215C266.637 195.785 266.228 195.386 265.85 194.988C280.679 196.553 295.582 197.312 310.494 197.263C331.358 196.928 445.231 201.614 470.478 210.893C471.088 211.838 471.512 212.892 471.726 213.997ZM469.629 209.803C442.149 200.734 331.096 196.173 310.515 196.498C295.333 196.542 280.16 195.754 265.064 194.139C264.844 193.877 264.634 193.625 264.456 193.394C269.184 194.212 281.231 195.701 298.468 193.447C316.963 191.014 361.69 187.628 398.606 192.126C431.444 196.12 465.519 207.559 468.098 208.429C468.646 208.823 469.149 209.277 469.597 209.782L469.629 209.803ZM474.179 169.238C476.798 173.952 477.726 179.42 476.811 184.734C473.76 179.974 464.355 166.26 451.71 156.09C457.739 156.583 468.842 160.001 474.179 169.238ZM367.509 124.92C369.046 124.819 370.586 125.047 372.028 125.591C372.654 125.854 373.21 126.26 373.653 126.775L374.628 127.971L375.383 126.629C376.049 125.283 376.988 124.09 378.139 123.127C379.291 122.163 380.63 121.449 382.072 121.03C390.072 118.849 401.542 125.538 411.67 131.441L414.039 132.814C418.81 135.572 424.597 137.176 430.186 138.728C440.869 141.684 450.106 144.264 448.796 153.857C423.989 136.117 399.613 128.767 369.983 130.067C350.587 130.917 333.287 143.446 323.62 152.085C336.82 134.827 357.318 125.203 367.509 124.92ZM298.08 176.357C304.041 173.596 309.649 170.129 314.782 166.03C315.83 165.17 317.078 164.205 318.368 163.157C331.997 152.148 354.707 133.727 386.738 137.606C425.457 142.292 455.349 160.053 475.584 190.396C475.175 191.79 474.661 193.227 474.074 194.684C470.415 189.442 454.625 169.039 420.791 156.226C381.013 141.16 361.501 146.298 338.288 155.178C325.403 160.116 316.271 166.365 308.197 171.869C301.561 176.409 295.826 180.32 289.766 182.155C283.713 184.027 277.465 185.198 271.145 185.646C273.078 184.928 275.076 184.398 277.111 184.063C284.493 182.749 291.585 180.14 298.059 176.357H298.08ZM286.777 72.0982C287.826 105.649 285.09 172.341 284.775 180.016C285.016 170.171 286.872 84.0401 278.987 44.9641C271.795 9.23264 261.268 -3.87309 258.186 -7.08138C259.36 -7.83225 260.446 -8.71137 261.426 -9.70251C267.36 -15.6682 270.149 -25.5552 270.464 -33.5654C279.26 -23.6785 285.037 13.5313 286.777 72.0982ZM267.035 -38.5561C266.951 -34.7187 266.06 -24.6011 259.696 -10.9712C257.724 -8.99316 255.253 -7.5872 252.545 -6.90314C261.237 -24.8632 261.279 -44.417 260.545 -54.3773C262.873 -47.9922 265.473 -42.0265 267.035 -38.5561ZM257.096 -65.1869C257.756 -62.6601 258.574 -59.9971 259.486 -57.3549C260.388 -48.9673 261.489 -26.719 251.57 -6.68296C250.549 -6.50435 249.513 -6.42709 248.477 -6.4523C247.639 -6.4523 246.821 -6.4523 246.003 -6.4523C255.586 -33.7122 247.827 -71.5511 246.108 -79.1105C252.514 -77.4329 254.454 -75.3045 257.096 -65.1869ZM240.792 -80.2952L241.201 -80.2113C242.721 -79.8863 244.053 -79.6032 245.248 -79.3201C246.737 -72.8721 255.02 -34.0372 245.164 -6.42085C243.78 -6.35794 242.449 -6.25309 241.149 -6.08534C246.391 -33.0307 232.866 -73.5536 230.381 -80.6307C233.846 -81.0929 237.364 -80.9795 240.792 -80.2952ZM229.584 -80.5259C231.912 -73.9416 245.762 -32.9259 240.331 -5.98049C238.629 -5.73967 236.945 -5.38946 235.288 -4.93204C234.617 -41.4498 219.791 -70.1776 216.782 -75.6505C220.643 -78.1872 225.013 -79.8477 229.584 -80.5154V-80.5259ZM216.132 -75.1892C219.183 -69.6219 233.851 -41.0934 234.501 -4.84816H235.057C232.351 -4.0936 229.765 -2.96429 227.372 -1.49309C223.87 -30.766 208.143 -54.7023 204.746 -59.5986C206.796 -65.8667 210.783 -71.3221 216.132 -75.1787V-75.1892ZM204.442 -58.6655C208.426 -52.8466 223.377 -29.424 226.638 -1.00032C224.408 0.483955 222.465 2.35946 220.903 4.53555C218.093 -15.1335 204.526 -33.5654 201.171 -37.8851C201.247 -44.4741 202.209 -51.0229 204.033 -57.3549C204.159 -57.8163 204.306 -58.2776 204.442 -58.6655ZM201.171 -36.6479C205.365 -31.133 217.883 -13.2882 220.232 5.47916C219.833 6.1292 219.456 6.78973 219.12 7.48171C214.524 -1.7108 209.367 -10.6116 203.677 -19.1701H203.824C203.782 -19.3274 201.265 -25.9851 201.171 -36.6164V-36.6479ZM206.948 -10.2163C208.877 -1.4197 214.948 33.6827 200.185 73.9854C199.431 73.1438 198.464 72.5208 197.386 72.1821C196.75 71.9686 196.093 71.8279 195.425 71.7627C205.679 29.6147 191.368 -23.2905 187.625 -35.8511C187.824 -35.6519 188.034 -35.4631 188.233 -35.2534C195.153 -28.2812 201.727 -18.7507 206.948 -10.1848V-10.2163ZM143.474 -62.419C145.865 -63.803 153.152 -61.0245 161.938 -55.7508C166.205 -46.2518 194.44 19.193 189.596 73.1467C188.379 73.8082 187.24 74.6029 186.199 75.5162C178.86 5.45819 144.638 -51.0956 139.962 -58.5187L140.255 -58.9696C141.012 -60.3783 142.121 -61.5668 143.474 -62.419ZM139.48 -57.8058C144.722 -49.3447 178.409 6.83167 185.475 76.1662C184.118 77.4347 182.862 78.809 181.722 80.2762C170.829 20.514 131.721 -42.6975 125.797 -52.0183C134.887 -52.7522 137.697 -55.279 139.48 -57.8058ZM124.801 -51.9344H124.938C130.012 -43.9976 170.283 20.4616 181.114 81.1359C180.002 82.6142 179.101 84.0087 178.451 85.0676C159.652 32.4245 113.971 -35.3478 108.812 -42.9177C114.306 -48.1075 119.926 -51.6408 124.77 -51.9344H124.801ZM82.3282 -1.53503C83.3207 -5.45155 84.7779 -9.23538 86.6688 -12.806C94.9621 -5.13124 152.166 48.9902 173.408 97.6177C172.978 99.1799 172.579 100.857 172.244 102.598C148.968 56.8536 89.1641 13.4789 80.4724 7.62849C81.2063 4.10567 81.8249 1.01273 82.3282 -1.53503ZM80.3151 8.40435C88.923 14.4225 149.241 58.1222 172.003 103.898C171.711 105.745 171.525 107.607 171.447 109.476C151.768 74.2266 84.1525 35.2659 75.7858 30.5373C77.4424 23.1981 78.9312 15.5024 80.3046 8.75034L80.3151 8.40435ZM75.5447 31.3551C84.8445 36.5974 152.795 75.9565 171.332 111.038V112.233C171.332 113.418 171.437 114.582 171.562 115.745C147.941 83.1594 78.7634 55.8681 69.7152 52.4082C72.1007 45.5171 74.0615 38.4862 75.5866 31.3551H75.5447ZM66.6432 58.8037C67.7884 57.029 68.7275 55.1295 69.4426 53.1421C78.5642 56.6334 149.125 84.47 171.772 117.402C171.94 118.534 172.15 119.646 172.391 120.747C133.461 83.4111 71.571 72.4442 62.7639 71.0497C63.718 65.4405 65.1439 61.0265 66.6852 58.8037H66.6432ZM62.4494 96.4119C70.8371 95.678 130.4 91.8511 174.089 126.576C174.278 127.1 174.467 127.625 174.666 128.138C130.578 100.878 75.8906 115.379 68.0272 117.654C65.1728 110.874 63.3017 103.721 62.4704 96.4119H62.4494ZM68.3417 118.43C76.4778 116.05 131.344 101.654 175.159 129.396C175.557 130.372 175.987 131.326 176.417 132.238C148.234 116.689 123.029 118.325 106.673 122.54C96.4057 125.138 86.6651 129.494 77.8827 135.415C76.1632 132.269 74.1921 128.83 71.9065 125.171C70.5746 122.999 69.3907 120.74 68.3627 118.409L68.3417 118.43ZM84.4251 148.761C91.7187 141.624 100.348 135.995 109.819 132.196C124.896 126.104 149.073 122.078 179.017 137.019C179.677 138.141 180.338 139.116 180.988 140.08C135.349 117.717 101.305 140.741 97.5518 145.26C96.1308 147.151 94.875 149.161 93.7983 151.267C92.263 154.256 90.4067 157.068 88.2624 159.655C87.2186 155.945 85.9369 152.306 84.4251 148.761ZM88.7657 162.234H88.8915C88.8915 162.234 88.8915 162.182 88.8915 162.14C91.7119 159.403 93.8088 155.66 95.6645 152.305L96.042 151.634C99.4705 149.716 110.123 144.452 126.007 143.026C143.443 141.454 170.818 144.368 203.236 166.564C205.242 168.661 207.455 170.877 209.873 173.212C195.74 165.946 153.802 146.591 119.643 153.291C85.18 160.022 68.0482 176.504 54.2819 189.746C51.3253 192.587 48.5364 195.282 45.7894 197.641C31.3416 210.075 9.61759 225.226 3.29539 227.406C3.05388 225.829 3.05388 224.224 3.29539 222.646C6.12623 221.252 15.6148 216.104 27.8817 204.665C29.0875 203.554 30.3456 202.369 31.6562 201.142C45.2862 188.372 65.5319 169.427 75.7858 165.663C76.2358 165.689 76.6839 165.742 77.1278 165.82C79.2046 166.247 81.3557 166.142 83.3811 165.515C85.4066 164.888 87.2408 163.76 88.7133 162.234H88.7657ZM13.1299 207.265C18.5821 202.515 24.5338 198.37 30.8803 194.904C35.6785 192.338 40.1791 189.251 44.3006 185.699C45.8314 184.325 47.3831 182.836 49.0396 181.264C56.6095 174.04 65.0706 165.988 73.8357 165.537C63.1309 170.506 44.8458 187.617 31.111 200.482L27.3365 204.005C15.8035 214.72 6.83919 219.868 3.5051 221.577C4.50113 216.838 7.69892 212.015 13.1299 207.265ZM7.58358 236.675C12.1234 236.046 27.3366 233.687 51.7027 227.406C64.9447 223.999 79.1094 217.792 94.1128 211.229C113.163 202.841 132.906 194.265 154.273 189.473C187.352 182.06 225.799 191.339 235.665 194.002C236.535 194.548 237.395 195.051 238.234 195.575C179.751 191.255 105.845 216.418 70.0507 228.602L63.5398 230.803C35.3572 240.239 13.7171 238.719 8.73689 238.143L8.38042 237.702C8.07637 237.388 7.80377 237.031 7.53117 236.675H7.58358ZM71.917 261.838C66.3916 261.565 60.1218 261.261 52.6987 260.789L48.0646 260.475C26.4034 259.028 9.2716 257.895 6.50367 252.517C6.1867 252.067 6.04769 251.516 6.11354 250.97C6.17938 250.424 6.4454 249.922 6.86014 249.56C11.5992 251.584 35.3468 260.59 83.3347 261.334C139.951 262.226 183.756 240.732 210.513 222.541C234.543 206.196 248.352 202.935 252.21 202.317C253.07 202.631 253.898 202.914 254.716 203.176C253.793 203.554 252.713 204.057 251.57 204.655L251.486 204.76C250.794 205.127 250.071 205.525 249.327 205.976C242.25 208.754 228.882 214.657 217.569 223.485C214.78 225.655 212.148 227.805 209.601 229.881C197.344 239.862 185.769 249.288 161.602 257.654C143.852 263.809 118.542 264.49 101.63 264.102C90.2335 262.739 81.783 262.32 71.8436 261.838H71.917ZM116.56 266.032C113.73 265.602 111.108 265.235 108.603 264.899C125.042 264.899 146.274 263.704 161.801 258.325C186.094 249.938 197.721 240.439 210.03 230.415C212.578 228.318 215.21 226.222 217.988 224.03C227.582 216.555 238.664 211.176 246.076 208.052C243.615 209.863 241.435 212.029 239.607 214.479C236.462 217.1 230.507 222.279 221.784 230.74C207.629 244.549 196.914 254.037 177.623 259.751C162.121 264.619 146.005 267.249 129.76 267.562C125.661 267.258 121.31 266.744 116.508 266.032H116.56ZM189.271 260.254L188.799 260.349C166.582 265.235 153.508 268.097 138.127 267.94C152.166 266.986 163.227 264.794 177.822 260.506C197.292 254.729 208.08 245.199 222.318 231.296C229.301 224.481 234.512 219.763 237.919 216.88C237.154 218.096 236.336 219.469 235.435 221C228.064 233.508 215.64 254.467 189.271 260.254ZM248.635 230.657C248.456 228.843 248.299 227.123 248.205 225.477C247.576 214.898 251.57 208.115 252.745 206.353C253.311 206.07 253.845 205.808 254.349 205.577C251.256 209.791 249.769 214.97 250.155 220.182C250.312 222.751 250.752 225.592 251.203 228.57C252.692 238.006 254.506 249.539 247.932 260.265C246.076 261.722 244.189 263.169 242.291 264.627C250.711 252.81 249.589 240.743 248.656 230.657H248.635ZM178.388 319.377C187.992 307.498 206.256 294.025 225.569 279.756L234.428 273.192C239.429 269.47 244.43 265.707 249.253 261.943C263.629 250.694 273.788 234.924 278.086 217.184L278.369 218.316C278.474 218.767 278.589 219.228 278.704 219.69C277.939 224.754 274.783 239.474 262.579 256.648C251.046 272.846 234.732 285.795 218.942 298.324C213.889 302.329 208.657 306.481 203.761 310.601C186.451 325.196 175.159 335.691 170.755 343.953C170.818 335.366 171.783 327.555 178.409 319.377H178.388ZM170.818 345.662C174.551 337.337 186.084 326.559 204.369 311.189C209.255 307.068 214.476 302.927 219.529 298.911C235.361 286.33 251.728 273.371 263.313 257.078C274.416 241.466 278.096 227.826 279.271 221.535C279.501 222.374 279.732 223.233 279.994 224.114C278.694 234.934 271.323 251.374 259.486 269.554C244.881 292.075 215.178 316.787 195.478 333.185C185.316 341.682 176.874 352.046 170.608 363.716C171.042 358.906 171.151 354.072 170.933 349.248C170.881 348.031 170.86 346.836 170.839 345.662H170.818ZM168.92 372.544C169.499 370.396 169.951 368.214 170.273 366.012C176.563 353.625 185.31 342.648 195.981 333.751C215.671 317.364 245.437 292.599 260.105 269.984C274.374 247.967 278.977 234.148 280.413 226.4C280.487 227.742 280.487 229.231 280.413 230.845C277.035 247.653 270.668 263.719 261.615 278.277C244.378 305.758 231.209 321.39 207.566 342.6C185.287 362.574 174.456 378.353 172.045 383.186C168.784 380.754 167.694 377.095 168.941 372.544H168.92ZM173.324 384.077C173.093 383.952 172.904 383.794 172.684 383.648C174.855 379.139 185.58 363.37 208.08 343.208C231.817 321.935 244.986 306.271 262.265 278.718C270.355 265.692 276.328 251.466 279.963 236.57C279.449 241.225 278.558 246.572 277.32 252.402C272.676 266.136 262.642 286.896 255.303 300.379C246.066 317.343 225.139 342.475 207.65 357.593C198.049 365.92 189.788 375.677 183.158 386.52C179.744 386.478 176.386 385.649 173.345 384.098L173.324 384.077ZM276.02 258.357C272.359 273.557 267.779 288.522 262.306 303.168C255.397 317.846 242.962 340.158 229.259 353.441C219.801 362.671 211.039 372.588 203.048 383.113C196.99 385.43 190.556 386.61 184.071 386.594C190.625 375.973 198.756 366.41 208.185 358.233C225.736 343.051 246.737 317.825 256.016 300.788C263.504 287.046 270.184 272.878 276.02 258.357ZM228.2 366.736C221.485 373.616 213.397 379.007 204.463 382.557C212.217 372.441 220.686 362.893 229.804 353.987C241.337 342.789 252.011 325.196 259.234 311.136C250.081 334.349 238.947 355.738 228.2 366.736ZM288.874 237.828C288.665 237.524 288.465 237.22 288.266 236.905C293.154 242.074 299.03 246.21 305.545 249.067C313.691 252.566 322.559 254.051 331.4 253.398C330.327 254.134 329.113 254.641 327.835 254.886C317.78 256.878 298.657 252.066 288.874 237.828ZM309.089 255.012C316.019 257.329 322.792 257.854 327.604 257.057C331.41 261.974 362.654 303.357 376.557 352.383C370.392 336.31 362.539 323.309 355.892 318.454L354.718 317.595L354.277 318.968C352.67 323.969 350.563 328.796 347.986 333.374C343.78 316.425 337.383 300.095 328.957 284.799C328.957 284.799 328.821 284.568 328.621 284.285C323.007 273.956 316.465 264.158 309.078 255.012H309.089ZM329.125 289.465C327.458 286.781 325.854 284.484 324.459 282.629C325.385 283.487 326.227 284.432 326.975 285.449C327.667 286.749 328.401 288.091 329.114 289.465H329.125ZM298.793 268.632C309.759 276.733 318.431 287.547 323.956 300.012C333.476 321.201 333.507 344.561 328.15 355.434L325.665 357.394L324.616 358.191C326.839 352.404 330.372 337.746 323.348 312.719C315.222 283.813 299.527 270.634 295.438 267.636V267.562C296.612 267.898 297.713 268.265 298.793 268.632ZM292.292 369.892C300.617 346.48 304.203 328.027 303.196 308.546C305.975 321.872 303.836 340.755 302.148 351.858C300.899 358.784 299.261 365.635 297.241 372.377C293.823 384.759 289.902 398.777 289.902 413.696C289.902 431.719 298.394 451.63 302.305 459.828C304.014 464.997 305.891 469.978 307.82 474.675C284.177 432.474 280.277 403.673 292.292 369.892ZM332.721 503.696C333.916 502.008 335.29 500.047 336.81 497.877C348.259 487.676 364.846 463.876 377.081 445.15C392.494 421.549 405.956 386.72 401.196 362.144C398.48 347.948 393.049 336.31 387.304 323.98C382.953 314.617 378.434 304.94 375.005 293.742C369.878 277.03 371.86 267.405 373.726 262.781L374.208 262.163C373.8 277.764 379.063 289.706 387.419 308.714C391.403 317.762 396.362 329.023 401.762 343.135C418.086 385.566 387.901 454.775 332.721 503.696Z" fill="white"/>
</svg>
