<svg width="315" height="396" viewBox="0 0 315 396" fill="none" xmlns="http://www.w3.org/2000/svg">
<path d="M-35.8155 -0.978531C-32.2441 12.2491 -28.8238 22.7839 -26.0744 31.2873C-19.8102 50.6562 -16.3615 61.3139 -18.9598 76.1571L-19.4511 78.9916L-17.3914 77.0075C-7.70387 67.7225 -0.749481 55.9575 2.71452 42.9937C8.36221 56.7297 15.026 70.0256 22.6504 82.7709C18.8711 83.6591 16.5657 86.4085 14.4776 88.8745C12.0211 91.7751 9.8952 94.2789 5.97417 93.8915C2.73353 93.4107 -0.468262 92.6971 -3.60637 91.7562C-11.7224 89.5831 -21.7848 86.8904 -29.4285 89.8855C-38.2248 93.3341 -51.065 92.8239 -70.4907 92.0491C-74.144 91.9106 -78.0241 91.7657 -82.1309 91.6145C-98.8544 91.0571 -107.311 97.3591 -109.644 103.453C-110.39 105.252 -110.583 107.232 -110.202 109.141C-109.82 111.05 -108.879 112.803 -107.5 114.177C-117.732 127.499 -120.727 139.092 -116.456 148.616C-112.346 157.771 -101.831 162.788 -95.2546 163.733C-97.5694 173.663 -88.0078 177.395 -78.7485 181.005C-74.0243 182.894 -69.0545 184.784 -65.228 187.552L-63.2344 188.932C-54.4003 195.366 -44.3379 202.66 -36.2312 201.299C-33.4452 200.813 -30.9414 199.304 -29.2112 197.067C-27.5159 198.409 -25.4211 199.147 -23.2588 199.164C-11.9209 199.958 8.78976 191.124 21.4977 176.687C32.8356 163.79 44.901 158.234 54.0659 155.901C52.6959 165.491 44.6176 222.492 42.5106 251.867C39.6762 291.549 38.5518 340.869 49.2945 350.941C49.9559 352.831 54.9068 367.003 56.6169 378.077C58.5065 390.586 61.341 391.493 70.7893 394.498L71.1483 394.611C81.8627 398.05 100.665 396.009 108.526 376.338C112.494 366.751 114.073 356.342 113.127 346.009C115.594 350.363 118.392 354.52 121.498 358.443C133.781 373.56 155.068 390.284 161.379 387.43C162.943 386.673 164.283 385.524 165.272 384.095C167.162 381.752 168.919 379.541 178.254 379.91C193.371 380.514 218.296 351.064 222.736 337.288C223.539 334.785 224.475 331.742 225.571 328.209C230.106 313.422 236.956 291.077 241.954 285.276C248.747 277.377 254.237 245.017 243.57 223.248C234.821 205.362 232.619 193.75 232.118 190.273C233.315 189.432 234.69 188.879 236.136 188.66C237.582 188.44 239.06 188.559 240.452 189.007C250.108 191.842 260 184.141 268.721 177.367C270.337 176.11 271.867 174.929 273.332 173.852C277.259 171.124 281.473 168.833 285.898 167.021C292.012 164.433 297.831 161.195 303.255 157.365C315.358 148.72 318.003 138.232 310.7 127.858C309.405 125.968 308.81 124.551 309.037 123.531C309.264 122.51 310.265 121.792 311.361 121.065C313.015 119.969 315.282 118.466 313.988 115.207C313.158 113.468 311.752 112.07 310.01 111.248C304.001 107.856 292.058 105.825 275.996 103.104L271.867 102.404C265.254 101.28 259.641 100.43 254.7 99.6739C241.407 97.8478 228.233 95.245 215.244 91.8791C190.556 85.5582 178.452 86.9565 149.21 90.3201L148.785 90.3673C123.813 93.2491 110.481 111.314 102.488 122.104C100.948 124.183 99.6538 125.978 98.52 127.234C96.2416 129.727 93.522 131.777 90.4984 133.281C93.1983 128.689 94.6964 123.489 94.854 118.164C94.9202 116.652 94.9296 115.084 94.9391 113.44C95.0336 102.546 95.1564 88.9973 110.652 78.1791L119.155 73.1337C137.9 62.0509 155.606 51.5728 165.452 41.6332C173.955 33.0352 174.701 23.9555 175.448 14.356C175.949 7.95955 176.459 1.34575 179.227 -5.8255C181.268 -11.0882 180.002 -15.6989 175.675 -18.798C175.23 -19.1212 174.766 -19.4178 174.286 -19.6861C163.326 -25.8558 139.799 -22.5206 122.594 -8.14977C98.0287 12.3341 66.8494 81.7411 62.711 110.114C61.8107 107.454 60.6723 104.88 59.3097 102.423C55.8849 96.2862 50.808 91.2322 44.6554 87.8352C39.31 80.2105 34.6706 72.1145 30.7948 63.6476C34.952 67.682 42.4067 73.1526 55.3603 78.4436L56.9854 79.105L56.6452 77.3854C49.5968 41.2269 52.4408 18.8628 68.3422 -14.6407C84.2436 -48.1443 81.2107 -77.415 56.9381 -126.962C52.9415 -137.619 49.5023 -144.573 49.3795 -144.781L48.7465 -146L47.8961 -145.055C19.8348 -126.263 -4.22051 -101.262 -19.8479 -74.675C-35.7116 -47.6719 -41.3806 -21.4907 -35.8155 -0.978531ZM-14.4908 71.3102C-12.6011 66.6427 -11.1555 58.47 -13.8105 45.1479C-15.8797 34.7548 -19.0448 25.6373 -22.1061 16.8031C-26.1216 5.26678 -29.9104 -5.62708 -31.0347 -18.5145C-32.9905 -40.7841 -17.8071 -70.5745 -1.94348 -90.2174C9.73457 -104.664 25.1258 -122.625 36.1708 -131.629C30.1429 -124.552 22.4897 -115.331 14.9878 -105.637C-17.7977 -73.9003 -24.1186 -37.515 -25.0728 -30.3626C-26.1783 -22.0576 -26.3389 -10.1245 -17.7882 8.64926C-10.8721 23.8421 -7.45182 36.5594 -7.32899 47.5478C-7.2534 54.2183 -10.6075 64.3374 -12.0531 68.4096C-12.8279 69.3827 -13.6121 70.3465 -14.4908 71.3102ZM51.4393 53.3585C48.8599 46.5085 44.4475 31.4196 48.2079 15.8866C51.0141 4.33141 54.9823 -8.53714 58.1947 -18.9302C60.7458 -27.188 62.7866 -33.8302 63.5236 -37.4016C64.2133 -38.97 64.8841 -40.6235 65.5266 -42.3809C70.9216 -57.1296 70.2507 -74.7979 67.1234 -91.2756C69.9578 -82.1392 73.5293 -67.5416 72.1687 -54.5691C70.7704 -41.2943 66.0274 -29.1249 61.8512 -18.3917C59.4194 -12.5003 57.3155 -6.47885 55.5492 -0.354935C52.7148 10.52 48.5386 29.8795 51.1747 42.3512C51.0802 45.9416 51.1841 49.6075 51.4393 53.3774V53.3585ZM37.7959 -8.71666C41.6495 -11.1091 45.3136 -13.794 48.7559 -16.7477C44.457 -7.08211 40.2525 12.7026 41.8115 30.4937C43.2098 46.877 50.8157 64.7247 53.5179 70.6488C53.7446 72.0094 53.9903 73.3982 54.2454 74.806C50.1448 70.8378 38.5896 57.7992 34.2623 32.8652C29.935 7.9312 35.6039 -4.90901 37.7959 -8.69777V-8.71666ZM42.5201 30.3992C40.9517 11.9939 45.7419 -9.28355 50.1543 -18.0327C55.03 -22.6559 59.0338 -28.1191 61.9741 -34.1608C60.9725 -30.4382 59.3663 -25.2322 57.4956 -19.1381C54.3021 -8.74501 50.3243 4.14243 47.5182 15.7449C43.257 33.3376 49.4079 50.3634 51.6188 55.7583C51.9463 59.6636 52.4344 63.7138 53.0832 67.9088C49.8519 60.4352 43.7484 44.855 42.5201 30.4181V30.3992ZM63.722 -43.0517C56.3051 -22.7095 45.7419 -15.9918 34.5741 -8.88672C27.9603 -4.68225 21.2331 -0.383286 15.054 6.89188C17.3688 2.67795 21.6677 -3.92639 29.7177 -12.9495C44.2491 -29.3233 59.8482 -48.8907 61.0292 -74.7317C61.8134 -92.0598 58.0908 -113.243 55.6721 -124.864C63.533 -103.558 73.1041 -68.6848 63.722 -43.0328V-43.0517ZM-10.6926 66.6238C-9.05802 61.7769 -6.55423 53.3963 -6.62037 47.5383C-6.74319 36.4555 -10.1918 23.6342 -17.1457 8.37526C-25.6492 -10.2378 -25.4602 -22.0387 -24.3737 -30.2493C-23.4288 -37.0709 -17.6371 -70.6312 11.6337 -101.225C0.56031 -86.561 -9.63437 -71.387 -12.9413 -61.2679C-13.937 -58.1139 -14.6236 -54.8704 -14.9915 -51.5835C-19.3377 -41.6155 -19.1299 -31.7421 -18.9031 -21.2829V-19.6766C-18.7425 -12.118 -15.2561 -2.60364 -11.2217 8.4225C-9.04858 14.3655 -6.79989 20.5068 -4.74017 27.1584C-0.819138 39.8758 -2.43479 50.0516 -3.93707 55.3898C-5.84412 59.3313 -8.10524 63.0914 -10.6926 66.6238ZM-11.1461 -60.6821C-5.77947 -77.0938 18.8711 -108.084 34.9615 -127.217C30.4074 -119.658 22.9149 -107.375 17.5105 -99.6752C15.5736 -96.9163 13.5706 -94.2518 11.6337 -91.6819C5.07658 -82.9706 -1.70727 -73.957 -8.1321 -58.3579C-11.1867 -50.7913 -12.9466 -42.7648 -13.3381 -34.6144C-14.0373 -44.2894 -13.4987 -53.4731 -11.1461 -60.6821ZM-12.6673 -28.3785C-12.9925 -38.5478 -11.2103 -48.6744 -7.43292 -58.1217C-1.04589 -73.6357 5.70962 -82.6021 12.2478 -91.2851C14.1847 -93.8645 16.1972 -96.5289 18.1341 -99.2972C24.5684 -108.481 33.9316 -124.033 37.8337 -130.58C39.9124 -133.028 41.802 -135.22 43.4082 -137.071C40.8666 -131.79 36.5204 -122.757 33.1946 -115.577C31.3806 -111.674 28.2249 -106.544 24.2282 -100.044C17.2838 -88.7057 7.7599 -73.2672 -0.564034 -54.3329C-9.83279 -33.3011 -7.5841 -9.68982 -5.52438 2.15831C-8.98178 -7.73845 -11.3762 -17.975 -12.6673 -28.3785ZM-4.0032 6.03209C-6.03458 -3.48232 -10.2957 -30.4382 0.0878983 -54.0495C8.39293 -72.946 17.8979 -88.3939 24.8329 -99.6752C28.839 -106.194 32.0042 -111.334 33.8371 -115.274C37.7298 -123.674 43.0114 -134.615 45.175 -139.103L46.3939 -140.482C39.9287 -120.741 32.0765 -101.482 22.896 -82.8478C7.40086 -51.5646 3.19638 -38.1386 -0.885269 -18.1082C-4.02209 -2.73592 -0.12941 12.0601 1.68466 17.6913C-0.565094 13.9904 -2.48421 10.0984 -4.05044 6.06042L-4.0032 6.03209ZM-0.223892 -18.0043C3.84831 -37.9685 8.04334 -51.3567 23.5007 -82.5738C32.9388 -101.687 40.96 -121.469 47.4993 -141.758L47.6505 -141.928C40.8666 -110.04 33.5631 -91.3512 26.4958 -73.2767C22.0551 -61.9388 17.4538 -50.1662 12.9753 -35.1813C3.36645 -3.05714 4.27349 16.1417 4.93487 22.1697C4.26138 21.4348 3.63046 20.6619 3.04521 19.8549H3.11134C3.05465 19.6376 -4.16382 1.2796 -0.24279 -17.9854L-0.223892 -18.0043ZM19.6742 4.67155C18.6065 9.10278 16.9625 19.1463 19.4568 32.6668C17.4583 25.2169 15.9621 17.6412 14.9784 9.99091C16.4256 8.12851 17.9876 6.35825 19.6553 4.69043L19.6742 4.67155ZM20.2977 33.2242C17.3688 18.107 19.6836 7.25092 20.6473 3.71727C22.506 1.96399 24.4651 0.320374 26.5147 -1.20528C22.5446 10.9665 21.6647 23.9346 23.9542 36.5311C26.7037 52.2814 35.9252 63.6854 41.5941 69.4016C38.2959 67.4095 35.212 65.0824 32.3915 62.4572C26.501 53.6053 22.3872 43.6929 20.2788 33.2715L20.2977 33.2242ZM24.6534 36.4083C21.2237 16.9732 25.9951 2.1394 27.5257 -1.92336C28.9713 -2.97211 30.4263 -3.96417 31.8813 -4.91846C26.562 5.03058 24.8424 25.316 31.2388 44.5243C34.875 55.5826 41.1199 65.6029 49.4457 73.7384C47.556 72.7936 45.8081 71.9054 44.2113 71.0078C39.2037 66.416 27.7335 54.2372 24.6345 36.4555L24.6534 36.4083ZM60.3206 -74.7695C59.1396 -49.1647 43.6444 -29.6635 29.1886 -13.403C18.7293 -1.63991 14.506 5.96596 12.8431 9.66023C11.9927 10.794 11.1518 11.9751 10.3298 13.2506C12.0683 6.30649 14.4926 -0.447571 17.5672 -6.91203C20.0521 -12.3165 23.907 -17.3524 27.9603 -22.7095C34.5741 -31.3358 42.0004 -41.1053 46.9797 -55.8352C55.228 -80.2306 54.1603 -95.6691 53.1305 -110.635C52.403 -121.132 51.8361 -130.391 51.5432 -135.314C52.2896 -133.547 53.1021 -131.535 53.9619 -129.343C56.1539 -119.677 61.2276 -94.6581 60.3206 -74.7695ZM52.4408 -110.531C53.4706 -95.6691 54.5288 -80.2968 46.3277 -56.0336C41.3863 -41.4171 33.9694 -31.6949 27.4312 -23.1253C23.3306 -17.7492 19.4474 -12.6755 16.9058 -7.20494C13.5083 -0.0889587 10.9252 7.38789 9.20547 15.0835C8.61968 16.0284 8.04335 17.0677 7.47646 18.1259C8.39245 8.69272 10.8435 -0.52742 14.7327 -9.17018C16.7074 -13.6203 18.8049 -18.0799 21.0253 -22.804C27.1855 -35.8899 34.1584 -50.7237 40.6777 -70.1021C47.4237 -90.1607 48.3686 -112.619 49.0583 -129.012C49.2283 -133.028 49.3795 -136.618 49.5968 -139.764C49.937 -138.999 50.3149 -138.139 50.7212 -137.204C50.9763 -133.131 51.581 -122.663 52.4408 -110.531ZM48.3591 -129.04C47.6694 -112.685 46.7245 -90.3025 40.0163 -70.3288C33.5064 -50.9882 26.5431 -36.1733 20.3922 -23.0875C18.1719 -18.3633 16.0744 -13.8943 14.0902 -9.43472C9.91934 -0.230743 7.40229 9.63596 6.65444 19.7132C6.30486 20.4029 5.95528 21.121 5.61514 21.8579C4.96321 15.6504 4.1979 -3.36894 13.6556 -34.9734C18.1246 -49.9206 22.7165 -61.6553 27.1572 -73.0027C34.2717 -91.2095 41.6319 -110.021 48.4442 -142.268C48.6048 -141.928 48.7937 -141.54 48.9921 -141.096C48.7465 -137.657 48.5575 -133.623 48.3591 -129.04ZM-2.41589 52.1302C-0.868279 43.7323 -1.42333 35.0818 -4.03155 26.9505C-6.05347 20.2801 -8.33995 14.1387 -10.5225 8.17685C-14.538 -2.79259 -18.0055 -12.2598 -18.1567 -19.6955V-21.2923C-18.3646 -30.8634 -18.5535 -39.981 -15.1994 -49.0608C-15.6613 -42.7635 -15.5284 -36.4366 -14.8026 -30.1642C-13.99 -5.10742 -6.58258 19.8077 1.50514 39.9892C0.621674 44.1609 -0.692383 48.2297 -2.41589 52.1302ZM19.8726 86.144C43.6161 86.6542 55.6154 101.214 59.8577 107.875C61.0414 110.728 61.931 113.694 62.5126 116.728C59.187 111.047 54.4436 106.326 48.7465 103.028C47.9434 102.546 47.1403 102.083 46.3372 101.63C34.1017 94.7513 22.3669 91.0571 14.6004 91.6145C15.0445 91.1138 15.4886 90.5941 15.9232 90.0839C17.0792 88.6078 18.4048 87.2727 19.8726 86.1062V86.144ZM84.1964 135.814C83.2516 136.078 82.5807 136.239 82.2217 136.314L82.08 136.267C84.0641 134.925 87.3616 131.704 87.4277 125.071C87.3852 122.573 87.1864 120.08 86.8325 117.607C85.8876 109.5 84.6688 99.5322 91.4432 90.2729C92.492 89.4886 93.588 88.7139 94.7218 87.9486C88.826 96.8111 89.3551 106.845 89.8181 115.056C89.9693 117.767 90.111 120.328 90.0071 122.614C89.953 125.083 89.4118 127.516 88.4147 129.775C87.4175 132.033 85.984 134.073 84.1964 135.776V135.814ZM97.424 144.487C116.811 144.843 136.178 143.056 155.172 139.158L162.589 137.628C199.938 129.871 269.354 115.452 308.092 127.376C308.149 127.49 308.224 127.612 308.3 127.735C302.792 126.573 284.008 123.739 258.876 129.408C257.024 129.823 255.008 130.286 252.829 130.796C219.373 138.506 149.947 154.493 97.9342 144.789L97.424 144.487ZM162.201 135.776C159.556 136.324 157.08 136.843 154.794 137.306C134.945 141.439 114.672 143.174 94.41 142.475L93.7108 142.03C104.642 141.662 126.241 136.579 150.958 130.749C173.407 125.458 198.861 119.459 221.395 115.812C266.028 108.593 301.422 120.715 307.261 122.888C307.22 122.996 307.189 123.106 307.166 123.219C307.057 123.847 307.079 124.49 307.232 125.109C267.71 113.818 199.229 128.047 162.173 135.738L162.201 135.776ZM91.5755 140.746C98.879 139.999 119.287 135.719 141.217 127.064C166.651 117.021 175.051 114.092 217.606 106.788C252.394 100.808 292.842 114.29 308.895 120.479C308.307 120.943 307.824 121.526 307.478 122.189C301.573 119.959 266.057 107.828 221.253 115.075C198.7 118.722 173.227 124.731 150.788 130.022C125.192 136.021 102.98 141.284 92.5487 141.303C92.2085 141.105 91.8967 140.916 91.5755 140.746ZM310.275 119.496L309.566 119.978H309.424C293.457 113.752 252.64 100.042 217.483 106.089C174.862 113.412 166.462 116.341 140.952 126.394C117.823 135.521 96.4791 139.801 90.4984 140.122C89.8559 139.772 89.2229 139.423 88.6087 139.102C93.399 138.629 105.691 136.267 126.903 124.778C152.413 110.965 193.532 95.7339 244.061 101.677C286.03 106.618 306.439 116.52 311.002 119.014C310.785 119.156 310.539 119.317 310.275 119.496ZM113.751 161.343C138.817 187.977 140.848 201.658 140.98 202.915C140.812 203.751 140.374 204.508 139.733 205.069C138.527 206.077 137.375 207.15 136.285 208.282C135.85 204.106 133.29 195.054 121.375 179.937C111.625 167.531 100.466 158.111 91.2637 152.905C85.9727 149.92 81.3241 148.332 77.9322 148.361C78.0261 148.114 78.0895 147.857 78.1212 147.595C78.3857 145.479 76.6472 143.429 74.0206 140.32C72.8679 138.95 71.5829 137.42 70.2413 135.643C75.4095 135.804 92.0668 138.298 113.741 161.343H113.751ZM117.672 162.788C127.932 168.004 159.603 182.904 187.523 183.499C221.47 184.226 239.488 172.87 269.43 154.049L269.817 153.812C295.025 137.949 309.065 136.569 312.523 136.503C312.629 136.996 312.708 137.495 312.759 137.996C306.467 139.385 284.849 151.677 271.574 160.936C268.882 162.826 266.123 164.98 263.203 167.267C249.73 177.821 232.969 190.963 201.657 193.835C168.522 196.887 130.106 172.624 120.941 166.435C119.883 165.254 118.805 164.045 117.662 162.788H117.672ZM269.43 153.208L269.042 153.444C239.252 172.199 221.262 183.518 187.523 182.79C157.912 182.157 124.011 165.32 116.245 161.267L115.121 160.048C113.703 158.546 112.286 157.138 110.944 155.797C177.526 188.932 235.397 160.077 260.388 147.595L263.222 146.169C284.112 135.861 307.176 134.311 311.862 134.132C312.059 134.683 312.226 135.244 312.363 135.814C308.574 135.842 294.685 137.316 269.43 153.208ZM262.939 145.536L260.104 146.962C234.877 159.519 176.298 188.771 109.215 154.105C107.156 152.216 105.162 150.421 103.216 148.833C114.289 152.887 145.61 163.006 174.078 159.614C193.749 157.261 212.202 151.318 230.153 145.564C244.165 141.057 257.411 136.796 269.534 134.954C292.776 131.42 306.779 130.787 310.275 130.674C310.788 131.55 311.236 132.462 311.616 133.404C306.306 133.669 283.555 135.341 262.939 145.536ZM147.49 204.833C172.831 220.517 194.732 219.062 208.791 214.99C217.623 212.443 225.876 208.204 233.092 202.509C234.093 205.693 235.416 209.434 237.173 213.696C228.803 218.185 219.718 221.19 210.321 222.577C195.204 224.863 172.32 223.975 148.388 207.035C148.095 206.279 147.802 205.542 147.49 204.833ZM149.645 226.422C148.785 236.759 142.653 247.105 142.369 247.568C142.086 248.031 132.742 261.74 125.362 258.367C124.901 258.19 124.484 257.916 124.14 257.562C123.796 257.207 123.532 256.783 123.369 256.317C122.32 253.189 125.419 247.568 128.159 242.607C130.049 239.234 131.768 236.05 132.364 233.537C133.022 230.309 133.206 227.002 132.912 223.72C132.761 220.555 132.628 217.824 133.809 215.491C136.219 210.767 137.532 209.491 140.971 206.524C143.069 204.71 143.239 202.103 142.861 199.911C145.913 204.739 150.561 215.491 149.645 226.422ZM150.674 214.754C186.88 249.325 240.225 251.309 247.736 251.413C247.831 258.594 247.006 265.757 245.28 272.728C237.495 270.669 182.421 255.022 151.185 217.541C151.043 216.596 150.873 215.661 150.674 214.754ZM146.527 243.732C156.872 288.554 200.618 352.387 205.796 359.813C202.477 363.558 198.866 367.033 194.996 370.206C190.348 361.608 155.644 296.51 144.174 248.22C144.571 247.558 145.478 245.952 146.527 243.732ZM147.018 242.664C147.311 241.993 147.623 241.285 147.963 240.538C163.004 286.334 209.433 339.991 215.66 347.048C212.842 351.34 209.719 355.423 206.315 359.265C200.656 351.158 156.882 287.118 147.008 242.655L147.018 242.664ZM130.852 260.257C121.999 306.799 139.856 365.586 143.673 377.302C136.633 371.881 130.171 365.748 124.389 359.001C122.66 350.308 113.401 299.042 126.997 260.739C128.302 260.851 129.615 260.687 130.852 260.257ZM100.353 313.885C100.668 313.199 100.942 312.496 101.175 311.778C102.958 306.768 103.363 301.371 102.347 296.151C102.113 294.962 102.002 293.753 102.016 292.541C108.365 287.213 114.299 274.42 116.821 260.483C117.067 259.095 117.275 257.734 117.445 256.373C119.627 248.059 123.237 229.304 116.453 214.13C109.329 198.172 105.313 191.171 103.972 188.979C103.972 188.866 104.047 188.743 104.076 188.629C104.263 188.028 104.326 187.394 104.261 186.767C104.196 186.14 104.005 185.533 103.698 184.982C102.687 183.234 100.457 182.063 97.6885 181.109C95.5721 178.095 85.3302 163.932 71.9514 152.641L72.6412 152.367C77.0441 155.674 100.882 174.277 115.48 200.156C128.14 222.615 127.545 236.409 126.732 241.247L126.487 241.691C123.416 247.256 120.251 253.029 121.555 256.921C121.621 257.111 121.696 257.297 121.782 257.479C105.72 290.179 106.608 320.546 107.562 331.175C103.594 322.644 100.958 315.538 100.353 313.885ZM87.7584 322.719C84.1681 318.156 63.533 290.765 58.6483 258.282C53.6407 225.005 57.1838 163.251 57.7035 155.135H57.9585C57.5334 162.316 55.4359 204.654 62.7961 239.31C70.109 273.73 95.5721 292.655 100.429 295.999C100.429 296.17 100.429 296.33 100.504 296.5C101.475 301.426 101.093 306.523 99.3987 311.249C97.5751 316.71 93.5029 320.641 87.7584 322.719ZM71.8003 324.042C68.9716 323.672 66.0957 324.097 63.4952 325.27C61.2654 322.436 52.8092 309.624 49.6252 276.971C46.1199 240.935 55.8421 162.788 56.7964 155.277H56.9665C56.4279 164.083 52.9604 225.279 57.9113 258.395C62.7488 290.52 82.9303 317.74 87.0025 322.955C82.073 324.411 76.8867 324.782 71.8003 324.042ZM51.0708 350.327C51.5904 344.101 54.3777 335.692 59.3569 330.552C54.0281 340.104 52.1573 347.663 51.5054 351.565C51.307 350.988 51.1558 350.554 51.0708 350.327ZM21.2237 174.202C12.7202 180.816 -5.57161 192.872 -24.8366 191.766C-51.4713 190.226 -72.5787 181.373 -93.1571 163.185L-92.8075 162.032L-94.0074 161.957L-94.6027 161.9C-105.941 150.997 -113.603 136.39 -115.389 132.696C-115.115 131.704 -114.756 130.683 -114.359 129.653C-98.8827 158.537 -73.6558 177.131 -39.3586 184.869C-10.7115 191.341 11.5203 176.791 24.8046 168.145C26.0517 167.323 27.2044 166.568 28.2721 165.897C31.2342 164.021 34.3145 162.339 37.4936 160.861C31.4464 164.487 25.9646 168.982 21.2237 174.202ZM-45.2827 136.088C-12.4122 143.533 28.2059 144.591 45.09 144.09C62.163 143.58 73.4065 146.67 76.1465 147.52C76.118 147.631 76.0768 147.739 76.0237 147.841C72.9435 147.151 58.0719 144.137 43.2098 147.038C25.6644 150.477 -31.2709 154.294 -61.4298 142.89C-89.2644 132.374 -104.892 119.27 -107.339 117.125C-106.885 116.501 -106.394 115.868 -105.922 115.235C-101.235 117.352 -73.0795 129.786 -45.2827 136.088ZM133.016 212.921C129.123 204.635 111.285 169.213 82.3729 150.978C91.4338 153.709 106.4 163.932 119.882 181.08C136.086 201.706 134.423 210.549 134.414 210.625C133.96 211.305 133.497 212.052 133.016 212.921ZM131.891 215.066C130.805 217.494 130.814 220.168 130.946 222.983C126.657 210.228 111.842 174.136 75.863 150.628L75.9481 150.572C76.4259 150.4 76.925 150.296 77.4314 150.26C110.444 168.542 130.002 210.663 131.891 215.066ZM73.8789 149.655C70.7515 148.862 60.0939 146.934 44.1546 152.386C40.7627 153.548 37.0873 154.965 33.1946 156.467C14.5343 163.676 -8.68954 172.643 -35.9383 168.145C-70.8308 162.42 -97.2954 140.746 -110.627 122.066C-110.372 121.641 -110.107 121.216 -109.833 120.8C-105.26 125.42 -80.383 149.74 -53.2192 156.997C-22.9375 165.084 3.85776 159.34 25.3904 154.72C29.7082 153.775 33.5631 152.83 36.9645 152.046C50.0031 148.918 58.7711 146.811 74.5403 149.211C74.3702 149.372 74.1529 149.504 73.8789 149.655ZM75.2489 151.044C113.921 176.148 128.159 215.973 131.088 225.685C131.23 228.185 131.033 230.693 130.502 233.14C129.833 235.351 128.9 237.473 127.725 239.461C128.329 233.329 127.564 220.187 116.094 199.844C101.751 174.381 78.5369 155.948 73.3781 152.083C74.0218 151.775 74.6465 151.427 75.2489 151.044ZM-107.745 117.711C-105.09 120.025 -89.3683 133.092 -61.6849 143.58C-31.3843 155.022 25.7399 151.205 43.3704 147.756C57.5428 144.969 71.9137 147.69 75.5607 148.484L75.3245 148.691C58.9979 146.046 50.107 148.181 36.8039 151.384C33.4025 152.197 29.5476 153.123 25.2392 154.049C3.78217 158.65 -22.947 164.376 -53.0397 156.326C-80.2791 149.032 -105.26 124.457 -109.436 120.186C-108.907 119.364 -108.34 118.542 -107.745 117.711ZM-111.014 122.737C-97.5411 141.435 -71.0009 163.11 -36.0517 168.864C-8.61395 173.38 15.6775 163.988 33.4497 157.129C37.333 155.636 41.0084 154.219 44.3814 153.057C59.0829 148.03 69.202 149.334 72.9341 150.194C72.2276 150.555 71.4985 150.871 70.7515 151.139C64.356 150.728 57.9344 151.173 51.6566 152.461C45.9876 153.576 40.4131 156.581 33.9977 160.02C26.2974 164.206 17.5672 168.949 5.65293 172.18C-15.8135 178 -33.6519 180.806 -67.7129 163.78C-97.6544 148.795 -109.673 128.463 -111.874 124.277C-111.628 123.739 -111.326 123.247 -111.014 122.737ZM81.9005 176.054C80.247 172.803 74.8332 162.335 70.0996 155.74C69.8067 154.795 69.5894 153.992 69.4382 153.435L69.6933 153.368C77.148 161.333 85.4341 174.636 87.645 178.283C85.6597 177.737 83.7349 176.989 81.9005 176.054ZM80.7478 175.355C76.1465 172.189 72.6884 163.714 70.8176 158.026C74.4214 163.629 77.7358 169.413 80.7478 175.355ZM88.656 178.567C87.3049 176.318 78.4518 161.796 70.4492 153.151L71.1767 152.915C83.7051 163.421 93.5502 176.545 96.5547 180.74C95.0808 180.277 93.4935 179.861 91.8778 179.436C90.8102 179.153 89.7236 178.869 88.656 178.539V178.567ZM67.643 153.869C68.654 157.648 72.9152 172.435 79.9258 177.027C82.9681 179.03 87.2954 180.164 91.4905 181.269C96.1012 182.479 100.873 183.735 102.139 185.927C102.323 186.258 102.436 186.625 102.47 187.002C102.504 187.38 102.459 187.76 102.337 188.119C102.001 189.282 101.597 190.424 101.128 191.539C100.91 192.078 100.703 192.626 100.495 193.174C95.4587 191.36 71.0444 181.08 66.7927 153.973L67.643 153.869ZM110.841 219.894C98.5578 202.972 100.655 197.756 102.847 192.239C103.15 191.473 103.452 190.699 103.735 189.876C105.313 192.531 109.234 199.589 115.858 214.442C121.366 226.781 119.911 241.559 118.021 250.988C118.739 238.441 116.254 227.424 110.793 219.894H110.841ZM66.0935 154.124C70.4019 181.524 95.1186 191.983 100.173 193.807C98.9829 197.265 98.4444 201.12 101.232 207.601C94.4289 204.276 69.1075 189.593 65.0353 154.228L66.0935 154.124ZM64.3267 154.332C68.5879 191.483 96.1201 206.052 101.657 208.622C103.782 212.976 106.313 217.12 109.215 220.999C110.419 222.681 111.457 224.475 112.314 226.356C106.919 223.985 89.0056 215.141 77.6676 198.068C65.7534 180.088 64.0149 158.962 63.7692 154.379L64.3267 154.332ZM63.0606 154.436C63.3157 159.16 65.1109 180.372 77.1196 198.456C89.1284 216.54 108.488 225.496 112.806 227.32C114.938 232.596 116.1 238.213 116.235 243.902C110.34 241.067 81.4564 226.252 72.3577 204.342C63.259 182.431 62.541 159.283 62.4937 154.483L63.0606 154.436ZM61.7851 154.549C61.8418 159.529 62.626 182.743 71.7058 204.625C81.0879 227.225 111.181 242.305 116.273 244.724C116.393 250.756 115.8 256.782 114.506 262.675C108.998 259.387 80.3698 241.379 70.8176 214.536C61.2654 187.694 60.8025 160.001 60.8025 154.71L61.7851 154.549ZM60.0844 154.748C60.0844 160.285 60.6135 187.93 70.1374 214.716C79.888 242.116 109.3 260.389 114.336 263.346C113.131 268.793 111.348 274.095 109.017 279.163C103.698 275.289 74.2568 252.575 66.7927 219.166C59.4136 186.097 59.5175 159.916 59.6214 154.861L60.0844 154.748ZM58.9128 154.918C58.8089 160.285 58.7617 186.333 66.103 219.261C73.6616 253.161 103.594 276.092 108.715 279.805C106.23 284.954 103.367 289.036 100.514 291.313L100.211 291.559V291.946C100.12 292.958 100.155 293.976 100.315 294.979C94.4478 290.831 70.5436 272.18 63.5141 239.111C56.1161 204.257 58.3081 161.588 58.705 154.956L58.9128 154.918ZM142.058 195.99C141.93 195.887 141.794 195.795 141.651 195.716C141.367 195.546 141.036 195.47 140.707 195.498C139.671 193.089 138.491 190.745 137.173 188.478C151.522 201.271 169.48 209.308 188.581 211.485C175.703 211.749 159.811 208.395 142.795 196.708C142.56 196.453 142.308 196.216 142.039 195.999L142.058 195.99ZM193.617 211.173C172.072 209.925 151.651 201.143 135.926 186.362C134.31 183.716 132.316 180.749 129.879 177.452C156.126 198.805 179.643 203.662 195.072 203.841C204.245 204.045 213.371 202.48 221.952 199.23C221.195 200.343 220.348 201.392 219.42 202.367C217.511 204.257 207.846 209.812 193.598 211.182L193.617 211.173ZM-106.404 101.488C-101.679 101.601 -80.8932 102.197 -61.666 104.493C-56.0726 105.163 -49.7139 105.853 -42.9868 106.581C-23.58 108.688 0.588654 111.305 21.6677 115.084C37.8825 118.07 53.2656 124.508 66.7738 133.962C67.0289 134.406 67.3029 134.84 67.6052 135.275C67.9076 135.71 68.0871 135.927 68.3233 136.22C67.1706 135.454 65.7817 134.585 64.1283 133.65C54.3549 128.325 43.7045 124.798 32.6844 123.238C24.3322 121.934 9.06376 120.148 -8.53837 118.07C-47.144 113.534 -95.0562 107.903 -107.5 103.264C-107.185 102.642 -106.818 102.048 -106.404 101.488ZM-98.2875 95.7529C-91.2296 96.1497 -59.3984 97.7842 -40.1617 96.6977C-27.0003 95.9513 17.0948 94.3356 35.2921 104.587L35.6984 104.823C35.9157 104.927 56.7208 114.697 63.7314 124.532C63.9498 126.091 64.2653 127.634 64.6763 129.152C59.6699 124.721 54.199 120.843 48.3591 117.588C43.6885 114.965 38.8317 112.688 33.8277 110.776C14.4398 103.387 -12.6011 99.6077 -40.3412 100.383C-61.307 100.997 -95.3113 98.9842 -103.38 98.4928C-101.814 97.3542 -100.101 96.4325 -98.2875 95.7529ZM-104.212 99.1731C-97.8906 99.5699 -62.0912 101.771 -40.3223 101.129C-12.6673 100.326 14.2698 104.077 33.5726 111.456C51.0802 118.07 61.8418 127.405 65.1392 130.513C65.3943 131.212 65.6876 131.897 66.0179 132.563C64.2322 131.326 61.5489 129.568 58.0625 127.603C46.7868 121.237 34.5329 116.786 21.8 114.432C0.683136 110.615 -23.4855 107.988 -42.9017 105.872C-49.6289 105.144 -55.9781 104.455 -61.5715 103.784C-80.1374 101.573 -100.215 100.949 -105.837 100.789C-105.335 100.211 -104.792 99.671 -104.212 99.1731ZM76.9496 127.083C76.5083 124.367 75.5971 121.749 74.2568 119.345C73.0096 116.87 71.9892 114.819 72.3672 111.9C73.1892 110.464 74.0962 108.98 75.1166 107.459C74.3796 111.607 75.5796 115.018 77.0063 119.156C77.6676 121.046 78.3574 123.03 78.8959 125.288C80.4171 131.297 78.2723 133.792 76.9496 134.68C76.326 134.529 75.7307 134.396 75.1733 134.283C75.3617 134.168 75.5361 134.032 75.6929 133.877C77.0063 132.648 77.4031 130.352 76.9496 127.083ZM73.397 133.187C73.1672 133.464 72.8926 133.7 72.5845 133.886C71.6963 133.792 70.9405 133.744 70.3074 133.725C71.3184 132.223 73.0096 129.077 71.5829 126.516C70.5123 124.606 69.3259 122.764 68.0304 120.999C68.3422 120.214 68.6823 119.383 69.0697 118.495C69.6104 119.694 70.2992 120.821 71.12 121.849C72.5183 123.739 74.0962 125.874 74.3796 128.708C74.6558 130.272 74.3026 131.882 73.397 133.187ZM67.7281 121.792C68.8999 123.42 69.9818 125.111 70.9688 126.857C72.3199 129.304 70.2791 132.526 69.4476 133.725H68.8713C68.6729 133.423 68.465 133.13 68.295 132.781C69.0935 131.489 69.4608 129.977 69.3437 128.463C69.1175 126.743 68.2626 125.168 66.9439 124.041C67.1612 123.37 67.4163 122.624 67.7281 121.783V121.792ZM86.1238 117.663C86.4768 120.108 86.6756 122.573 86.7191 125.042C86.6435 132.006 82.9398 134.935 81.258 135.946C80.7667 135.766 80.3132 135.596 79.7935 135.454C85.6231 130.324 83.0059 119.392 81.069 111.352L80.7572 110.029C79.5195 104.842 82.25 99.4755 84.3759 96.3386C85.9916 94.7513 87.7489 93.1829 89.6481 91.6145C84.083 100.562 85.1979 109.944 86.1238 117.654V117.663ZM82.1367 98.644C80.4549 101.838 79.0754 106.014 80.0675 110.19L80.3793 111.522C82.269 119.562 84.9428 130.504 78.9715 135.209L77.8755 134.897C79.3305 133.622 81.0974 130.825 79.6518 125.118C79.0754 122.832 78.3857 120.847 77.7621 118.929C76.1465 114.366 74.8143 110.643 76.2693 105.844C78.062 103.312 80.0222 100.904 82.1367 98.6346V98.644ZM73.6332 119.676C74.9398 122.023 75.8226 124.581 76.241 127.234C76.7701 131.014 76.0047 132.686 75.2961 133.423C74.9226 133.799 74.4334 134.039 73.9072 134.103L73.5954 134.056C73.7212 133.949 73.8381 133.832 73.945 133.707C74.8898 132.544 75.315 130.872 75.0977 128.642C74.8048 125.619 73.1608 123.398 71.7058 121.433C70.7298 120.289 69.9911 118.963 69.5327 117.531C70.109 116.18 70.8082 114.801 71.6019 113.346C71.6491 115.708 72.5939 117.588 73.6332 119.666V119.676ZM66.6982 124.787C67.7722 125.778 68.4616 127.117 68.6445 128.567C68.7446 129.798 68.4853 131.032 67.8981 132.119C67.0752 130.485 66.4685 128.751 66.0935 126.96C66.1691 126.573 66.3581 125.864 66.6982 124.787ZM-82.1876 93.5042C-78.0871 93.6427 -74.2133 93.7876 -70.5663 93.9388C-50.895 94.723 -37.9036 95.2426 -28.7293 91.6145C-21.662 88.8367 -11.9208 91.4539 -4.08823 93.5042C-0.860352 94.5011 2.43656 95.259 5.77576 95.7717C9.42279 96.1308 11.8226 94.5057 13.8635 92.4082C21.9417 91.4633 34.9709 95.6773 48.3402 103.633C57.2499 108.943 61.2938 115.509 62.9189 118.948C63.089 119.988 63.2307 120.999 63.363 121.981C63.4196 122.35 63.4669 122.699 63.5236 123.058C58.9884 117.437 50.6361 112.051 44.2775 108.489C39.8179 105.966 36.3692 104.351 36.0197 104.19C17.964 93.6081 -26.8964 95.2332 -40.1995 95.9891C-58.1512 97.0095 -87.0251 95.6489 -96.5207 95.1387C-91.8677 93.7978 -87.023 93.2453 -82.1876 93.5042ZM-107.792 103.897C-95.3113 108.621 -47.3235 114.215 -8.58561 118.759C9.04486 120.829 24.2755 122.624 32.6561 123.918C52.9037 127.064 65.1298 134.67 69.7594 138.091C70.7043 139.3 71.6491 140.386 72.4238 141.341C64.3136 138.015 55.9938 135.225 47.5182 132.988C29.2925 128.038 -27.3404 119.893 -46.596 118.939C-65.3886 117.994 -100.054 110.7 -108.454 107.157C-108.438 106.12 -108.243 105.094 -107.877 104.124L-107.792 103.897ZM-108.444 107.913C-99.4874 111.541 -65.8799 118.665 -46.6338 119.629C-27.3877 120.592 29.1413 128.718 47.3387 133.659C56.23 135.99 64.9418 138.958 73.4065 142.541C73.7561 142.956 74.0867 143.363 74.3513 143.75C61.2121 141.001 47.9335 138.967 34.5741 137.656C15.8382 136.021 -85.8252 121.462 -107.613 110.813C-108.073 109.915 -108.355 108.937 -108.444 107.932V107.913ZM-106.933 111.89C-83.1136 122.529 16.0271 136.758 34.5079 138.346C48.1242 139.685 61.6559 141.776 75.041 144.61C75.2205 144.855 75.3811 145.101 75.5229 145.328C71.3562 144.156 60.6985 141.728 45.0333 142.182C28.2343 142.682 -12.176 141.69 -44.867 134.245C-73.9393 127.631 -103.446 114.29 -105.676 113.27C-106.146 112.866 -106.567 112.41 -106.933 111.909V111.89ZM-114.737 147.794C-116.656 143.332 -116.99 138.347 -115.682 133.669C-113.376 138.204 -106.233 151.365 -95.8404 161.636C-101.15 160.681 -110.797 156.609 -114.709 147.841L-114.737 147.794ZM-23.0887 197.256C-24.4755 197.213 -25.8363 196.868 -27.0759 196.245C-27.6188 195.955 -28.0851 195.54 -28.4364 195.035L-29.1923 193.873L-29.9954 195.007C-30.7147 196.154 -31.665 197.139 -32.7858 197.898C-33.9065 198.658 -35.1733 199.176 -36.5052 199.419C-43.8654 200.648 -53.5121 193.599 -62.0817 187.392L-64.0847 185.937C-68.1097 183.027 -73.1551 181.061 -78.0304 179.162C-87.3369 175.534 -95.4058 172.378 -93.3271 163.894C-72.7016 182.072 -51.528 190.887 -24.8366 192.428C-7.37623 193.429 9.27161 183.773 18.7293 176.942C5.28445 191.228 -13.9806 197.945 -23.1265 197.303L-23.0887 197.256ZM43.805 157.535C38.2093 159.481 32.8675 162.092 27.8942 165.311C26.8265 165.982 25.6644 166.738 24.4172 167.56C11.2274 176.139 -10.8437 190.576 -39.2075 184.208C-73.4952 176.441 -98.6465 157.752 -114.047 128.746C-113.546 127.527 -112.961 126.29 -112.299 125.033C-109.465 130.107 -97.182 149.797 -68.0436 164.376C-33.7464 181.515 -15.7946 178.69 5.83245 172.879C17.8318 169.619 26.6186 164.857 34.3379 160.653C40.6966 157.195 46.1954 154.209 51.7888 153.094C57.3843 151.968 63.0908 151.489 68.7957 151.668C66.9938 152.128 65.1529 152.419 63.2968 152.537C56.5551 153.037 49.9556 154.729 43.805 157.535ZM44.3908 252.018C46.5545 221.783 55.0579 162.306 56.05 155.456C54.9351 164.262 45.4207 241.303 48.9071 277.065C52.0912 309.747 60.3301 322.464 62.8055 325.62C61.6839 326.184 60.6286 326.872 59.6592 327.67C53.7919 332.479 50.3905 341.096 49.3795 348.239C42.4067 338.554 40.621 304.692 44.3908 252.027V252.018ZM52.0061 353.029C52.4313 349.599 54.1509 340.605 61.0765 328.965C63.0318 327.37 65.3827 326.335 67.8792 325.969C58.431 341.285 56.6358 358.812 56.3807 367.806C54.8784 361.835 53.0927 356.289 52.0061 353.039V353.029ZM58.4876 377.812C58.1286 375.478 57.6279 373.022 57.061 370.575C57.061 362.922 58.0625 342.929 68.7863 325.865C69.731 325.795 70.6803 325.817 71.6208 325.932C72.3672 326.026 73.1041 326.092 73.8411 326.149C62.7583 349.713 66.2825 384.35 67.1139 391.276C61.4733 389.235 59.9238 387.128 58.4876 377.822V377.812ZM71.7152 392.835L71.3562 392.721C70.024 392.296 68.8524 391.918 67.8036 391.55C67.0572 385.645 63.1834 350.062 74.5403 326.206C75.778 326.281 76.9874 326.3 78.1684 326.272C70.9688 349.949 79.4345 387.515 81.0029 394.091C77.8625 394.19 74.7274 393.769 71.7247 392.844L71.7152 392.835ZM81.7398 394.063C80.2565 387.95 71.5829 349.921 78.9054 326.253C80.4541 326.185 81.9972 326.021 83.5256 325.762C80.7856 358.556 91.4621 385.673 93.6636 390.851C89.9749 392.781 85.9082 393.881 81.7493 394.073L81.7398 394.063ZM94.2966 390.51C92.0574 385.238 81.5131 358.32 84.2436 325.771L83.7429 325.724C86.2359 325.296 88.6563 324.52 90.933 323.418C91.3771 349.977 103.301 372.88 105.918 377.585C103.514 383.017 99.4482 387.546 94.306 390.52L94.2966 390.51ZM106.277 376.773C103.235 371.189 91.9723 348.825 91.6322 323.069C93.7746 321.939 95.6951 320.431 97.3011 318.619C98.0192 336.514 108.497 354.286 111.115 358.453C110.443 364.357 108.981 370.143 106.768 375.658C106.617 376.007 106.447 376.414 106.286 376.782L106.277 376.773ZM111.228 357.3C107.978 351.98 98.3688 334.832 98.0003 317.787C98.4207 317.248 98.8118 316.687 99.1719 316.105C102.457 324.774 106.268 333.233 110.585 341.436H110.453C111.566 346.651 111.831 352.01 111.237 357.309L111.228 357.3ZM108.46 333.074C107.515 325.015 105.294 292.995 122.207 258.206C122.8 259.039 123.61 259.693 124.55 260.096C125.099 260.35 125.676 260.537 126.27 260.654C113.231 297.502 121.234 346.236 123.435 357.848L122.953 357.253C117.388 350.393 112.371 341.247 108.469 333.084L108.46 333.074ZM160.586 385.692C158.318 386.722 152.082 383.566 144.646 378.039C141.699 369.139 122.32 307.885 131.617 259.935C132.769 259.45 133.865 258.841 134.886 258.121C135.019 321.595 160.586 375.422 164.091 382.508L163.789 382.886C162.993 384.091 161.891 385.063 160.595 385.701L160.586 385.692ZM164.592 381.913C160.623 373.844 135.586 320.414 135.595 257.611C136.923 256.59 138.17 255.469 139.327 254.257C143.635 308.859 172.935 369.082 177.394 377.973C169.184 377.821 166.434 379.834 164.601 381.941L164.592 381.913ZM178.32 377.992H178.188C174.361 370.433 144.174 308.944 139.97 253.567C141.103 252.339 142.039 251.167 142.719 250.27C154.766 299.184 189.535 364.121 193.466 371.378C188.052 375.535 182.704 378.199 178.329 378.02L178.32 377.992ZM220.932 336.674C219.677 340.108 218.015 343.378 215.981 346.415C209.254 338.772 162.91 285.002 148.303 239.499C148.832 238.138 149.342 236.664 149.805 235.134C166.491 278.275 216.141 322.606 223.407 328.672C222.5 331.752 221.65 334.435 220.941 336.703L220.932 336.674ZM223.643 327.954C216.482 321.774 166.387 277.084 150.155 233.962C150.611 232.332 150.968 230.675 151.222 229.002C165.65 262.411 222.708 303.501 229.785 308.509C227.631 314.953 225.561 321.737 223.747 327.632L223.643 327.954ZM230.021 307.81C222.16 302.235 164.828 260.767 151.411 227.622C151.459 227.263 151.496 226.914 151.525 226.555C151.61 225.496 151.638 224.438 151.638 223.39C169.845 254.758 229.369 285.54 237.164 289.471C234.409 295.44 232.026 301.574 230.03 307.838L230.021 307.81ZM240.546 284.038C239.359 285.527 238.344 287.147 237.523 288.866C229.671 284.898 168.919 253.501 151.648 221.906C151.6 220.886 151.515 219.865 151.402 218.854C182.884 255.882 237.381 271.368 245.148 273.418C243.768 278.407 242.096 282.196 240.546 284.038ZM247.765 250.704C240.206 250.601 186.427 248.588 150.448 213.478C150.325 212.987 150.202 212.533 150.07 212.023C187.116 240.481 237.466 232.479 244.723 231.137C246.65 237.483 247.662 244.072 247.727 250.704H247.765ZM244.448 230.504C236.937 231.884 186.436 239.811 149.682 210.918C149.418 209.973 149.125 209.113 148.823 208.253C172.661 224.76 195.412 225.6 210.454 223.314C219.897 221.918 229.029 218.904 237.447 214.404C238.707 217.396 240.178 220.637 241.86 224.126C242.869 226.19 243.734 228.321 244.448 230.504ZM232.865 201.772C225.679 207.509 217.43 211.77 208.592 214.31C194.524 218.391 172.519 219.799 147.008 203.662C146.517 202.603 146.064 201.63 145.525 200.742C184.405 224.958 217.039 207.431 220.79 203.718C222.239 202.152 223.551 200.464 224.711 198.673C226.356 196.118 228.276 193.751 230.437 191.615C231.023 195.05 231.834 198.443 232.865 201.772ZM230.2 189.3H230.087V189.385C227.3 191.577 225.08 194.752 223.105 197.586L222.708 198.153C219.467 199.561 209.48 203.302 195.062 203.132C179.284 202.953 155.002 197.841 127.98 174.977C126.38 172.911 124.6 170.725 122.641 168.419C134.641 176.224 170.478 197.407 201.714 194.534C233.224 191.643 250.089 178.472 263.638 167.815C266.548 165.538 269.307 163.384 271.971 161.513C286.059 151.677 306.93 140.084 312.778 138.705C312.856 140.139 312.709 141.577 312.344 142.966C309.689 143.967 300.703 147.69 288.666 156.845L284.953 159.642C271.556 169.846 251.686 184.992 242.153 187.429C241.756 187.354 241.359 187.278 240.962 187.165C239.134 186.581 237.188 186.471 235.306 186.844C233.424 187.218 231.667 188.063 230.2 189.3ZM302.121 155.863C296.809 159.616 291.107 162.783 285.114 165.311C280.581 167.181 276.265 169.542 272.245 172.35C270.752 173.437 269.222 174.627 267.597 175.893C260.152 181.666 251.828 188.119 243.976 187.685C254.029 184.208 271.99 170.536 285.482 160.285L289.177 157.45C300.458 148.89 309.018 145.101 312.155 143.873C310.69 148.04 307.383 152.083 302.121 155.863ZM309.783 130.003C305.654 130.154 291.832 130.882 269.382 134.283C257.204 136.173 243.929 140.405 229.889 144.922C212.041 150.657 193.598 156.59 173.964 158.933C143.626 162.562 110.009 150.732 101.402 147.444C100.674 146.877 99.9561 146.32 99.2475 145.8C151.213 154.975 219.789 139.187 252.99 131.543L259.027 130.154C285.161 124.22 304.426 127.612 308.838 128.557C308.933 128.699 309.018 128.831 309.122 128.973C309.358 129.294 309.566 129.634 309.783 129.974V130.003ZM254.398 101.545C259.329 102.291 264.923 103.141 271.527 104.266L275.656 104.974C294.949 108.243 310.18 110.832 312.193 115.897C312.436 116.329 312.511 116.837 312.403 117.322C312.295 117.807 312.011 118.235 311.607 118.523C307.535 116.275 287.041 106.033 244.118 100.978C193.418 95.0159 152.205 110.284 126.553 124.154C103.546 136.607 90.848 138.27 87.3238 138.478C86.5868 138.119 85.8687 137.788 85.1601 137.476C86.0199 137.221 87.0498 136.872 88.1269 136.437L88.2025 136.352C88.8638 136.097 89.5441 135.804 90.2527 135.464C96.8665 133.622 109.376 129.54 120.327 122.671C123.019 120.98 125.58 119.288 128.055 117.663C139.951 109.831 151.185 102.442 173.615 97.1418C190.093 93.2491 212.844 94.9403 227.971 96.8299C238.014 99.0597 245.554 100.203 254.398 101.545ZM214.715 93.712C217.209 94.3451 219.533 94.9214 221.744 95.4505C207.014 93.9199 187.863 93.079 173.454 96.4898C150.948 101.819 139.658 109.245 127.715 117.125C125.24 118.759 122.689 120.441 119.996 122.123C110.718 127.953 100.287 131.76 93.3518 133.886C95.7332 132.481 97.8949 130.734 99.7671 128.699C102.819 126.639 108.639 122.529 117.18 115.745C131.135 104.653 141.614 97.1228 159.424 93.7593C173.766 90.8144 188.454 89.9268 203.046 91.1232C206.665 91.7751 210.52 92.6255 214.762 93.712H214.715ZM148.936 92.2475L149.361 92.2003C169.732 89.8571 181.712 88.4777 195.488 90.0272C182.817 89.5926 172.698 90.5091 159.216 93.0601C141.264 96.4615 130.701 104.03 116.698 115.188C109.82 120.659 104.718 124.372 101.402 126.686C102.195 125.666 103.055 124.513 104 123.228C111.795 112.684 124.824 95.0253 148.983 92.2475H148.936ZM93.0589 113.346C93.0589 114.99 93.0589 116.548 92.9738 118.07C92.5676 127.612 88.3725 133.338 87.1537 134.803C86.6246 135.001 86.1144 135.19 85.642 135.351C88.8028 131.845 90.6028 127.323 90.7157 122.605C90.8196 120.29 90.7157 117.711 90.5267 114.971C90.0449 106.41 89.478 95.8662 96.3469 86.8526C98.142 85.7188 99.9656 84.5944 101.799 83.4606C93.2384 93.3152 93.1534 104.228 93.0589 113.346ZM164.129 40.2254C154.435 50.0421 136.833 60.4352 118.191 71.4424L109.688 76.5256C104.86 79.4073 100.032 82.3174 95.3642 85.2558C81.4236 94.0316 70.8561 107.259 65.3754 122.794C65.3754 122.444 65.281 122.104 65.2243 121.745L65.0542 120.488C66.1974 115.991 70.3641 103.075 82.8831 88.78C94.6934 75.3068 110.51 65.1593 125.807 55.3993C130.701 52.2719 135.765 49.0311 140.536 45.7809C157.383 34.2729 168.475 25.9396 173.171 18.8912C172.396 26.5915 170.828 33.4982 164.129 40.2348V40.2254ZM173.322 17.3511C169.212 24.5318 157.883 33.0919 140.13 45.2141C135.406 48.4548 130.313 51.6956 125.429 54.823C110.085 64.6397 94.2493 74.7871 82.3445 88.336C70.9688 101.318 66.4242 113.213 64.8085 118.74C64.6952 117.966 64.5535 117.182 64.4023 116.369C66.5565 106.788 74.6631 92.7483 86.9364 77.4988C102.054 58.6022 130.975 39.1955 150.136 26.2986C160.018 19.6053 168.529 11.0844 175.212 1.19458C174.39 5.46916 173.85 9.79321 173.596 14.1387C173.464 15.2253 173.464 16.3024 173.322 17.3606V17.3511ZM177.479 -6.58134C176.758 -4.70833 176.153 -2.79308 175.665 -0.846252C168.897 9.68445 160.057 18.7274 149.682 25.7317C130.521 38.6192 101.581 58.1109 86.3789 77.0453C71.5735 95.4694 66.1407 107.459 64.185 114.29C64.2416 113.075 64.3739 111.742 64.5818 110.294C69.1527 95.5217 76.3335 81.6882 85.7837 69.4489C103.735 46.3857 116.963 33.5454 140.111 16.7086C161.908 0.844986 173.057 -12.3165 175.665 -16.4359C178.367 -13.9132 179.01 -10.5307 177.479 -6.5719V-6.58134ZM174.579 -17.3429C174.777 -17.2012 174.938 -17.0406 175.117 -16.8989C172.755 -13.0534 161.701 0.108017 139.686 16.1701C116.472 33.073 103.235 45.9132 85.2263 69.0804C76.7964 80.0029 70.1418 92.1865 65.5077 105.182C66.3959 101.053 67.6903 96.3386 69.287 91.2271C74.7481 79.3318 85.5947 61.6446 93.4274 50.2311C103.254 35.8697 124.333 15.2442 141.34 3.28265C150.696 -3.30843 158.981 -11.3008 165.905 -20.4136C168.996 -20.0741 171.966 -19.0195 174.579 -17.3335V-17.3429ZM71.0538 86.0495C75.7428 72.7583 81.2296 59.7622 87.4844 47.132C95.043 34.6225 108.204 15.726 121.706 5.06836C131.02 -2.34193 139.771 -10.433 147.887 -19.1381C153.532 -20.6626 159.409 -21.1334 165.225 -20.527C158.376 -11.6036 150.211 -3.7729 141.009 2.69685C123.898 14.7056 102.762 35.4067 92.8888 49.8248C84.9138 61.4658 77.6231 73.5611 71.0538 86.0495ZM123.822 -6.77032C130.455 -12.3218 138.181 -16.4164 146.498 -18.7885C138.622 -10.4274 130.156 -2.64104 121.167 4.51091C109.83 13.4962 98.6333 28.2922 90.8669 40.2443C101.279 20.2706 113.174 2.11105 123.822 -6.77032ZM57.6846 103.255L58.1475 104.143C54.2283 99.0638 49.3325 94.8201 43.7484 91.6618C36.7665 87.7816 28.9531 85.6395 20.9686 85.4164C21.9936 84.8586 23.1225 84.5177 24.2849 84.4149C33.4781 83.5362 50.1921 89.6115 57.6656 103.255H57.6846ZM41.1123 86.0117C35.1032 83.3 29.0846 82.2324 24.7006 82.4875C21.7339 77.735 -2.50092 37.7594 -10.4942 -7.44115C-6.42195 7.52492 -0.573479 19.9021 4.94431 24.8625L5.88914 25.7317L6.43713 24.5318C8.32709 20.2171 10.644 16.1024 13.3533 12.2491C15.5841 27.8115 19.8272 43.0182 25.9762 57.4874C25.9762 57.5346 26.0801 57.7141 26.2313 57.9881C30.334 67.7601 35.3148 77.1397 41.1123 86.0117ZM26.2974 53.2923C27.5446 55.8528 28.7728 58.0165 29.8499 59.8494C29.1024 58.9928 28.4351 58.0692 27.8564 57.0905C27.3367 55.8528 26.8076 54.5867 26.2974 53.2923ZM51.581 74.7399C42.5017 66.468 35.7239 55.9821 31.9097 44.307C25.2959 24.4657 27.4123 3.49994 33.1946 -5.76881L35.5945 -7.30887C35.9252 -7.50728 36.2464 -7.71515 36.5393 -7.923C34.0166 -2.93433 29.5193 9.87753 33.5348 32.9597C38.1739 59.6132 51.0519 72.8597 54.4343 75.9493V76.0154C53.4706 75.5997 52.5258 75.1651 51.581 74.7399ZM66.6982 -15.4533C57.0421 4.77547 52.1479 20.9981 51.2692 38.553C50.0031 26.3553 53.6407 9.61298 56.2106 -0.184875C57.9604 -6.28268 60.055 -12.2762 62.4843 -18.1366C66.6793 -28.9171 71.4412 -41.1337 72.8774 -54.503C74.5781 -70.6595 68.7296 -89.282 65.9707 -96.9635C64.9125 -101.744 63.6842 -106.412 62.3803 -110.777C79.6329 -70.8201 80.5021 -44.639 66.6415 -15.4533H66.6982ZM42.6145 -139.084C41.3863 -137.676 39.9785 -136.051 38.4195 -134.237C27.2233 -126.13 10.1786 -106.317 -2.50092 -90.6426C-18.4779 -70.8863 -33.6802 -40.8975 -31.7433 -18.4389C-30.619 -5.457 -26.8397 5.47464 -22.7769 17.0582C-19.7251 25.8451 -16.56 34.9249 -14.5002 45.318C-11.4295 60.7754 -14.0467 69.2316 -16.1915 73.1904C-16.3521 73.3605 -16.5033 73.5305 -16.6733 73.7006C-14.8876 59.755 -18.5063 48.5682 -24.2319 30.7677C-26.9814 22.2642 -30.3922 11.7388 -33.9542 -1.35646C-44.6969 -40.9825 -11.3162 -100.28 42.6145 -139.084Z" fill="white"/>
</svg>
