<svg width="621" height="609" viewBox="0 0 621 609" fill="none" xmlns="http://www.w3.org/2000/svg">
<path d="M142.13 104.219C145.893 100.431 146.941 96.5664 145.429 94.8108L149.303 98.6586C147.188 100.787 145.096 102.937 142.981 105.065L142.263 105.789L142.241 105.768C139.028 109.045 135.814 112.28 132.58 115.537C134.524 113.409 132.885 111.824 131.396 110.344L112.112 91.1894C110.643 89.7306 108.665 88.2311 106.783 89.9557L122.576 74.0562L125.683 77.1429C123.96 75.685 120.848 77.4986 117.106 81.266L114.421 83.9691C112.518 85.8847 112.967 86.9651 114.649 88.6353L123.163 97.0919C126.799 93.3886 128.528 90.3704 127.059 88.6571L132.55 94.1117C130.869 92.4415 127.798 94.1701 124.014 97.9376L133.933 107.79C136.359 110.2 138.599 107.774 141.411 104.943L142.13 104.219Z" fill="#33332E"/>
<path d="M157.184 81.4688C163.559 87.2211 169.648 78.6001 166.821 74.069C171.651 80.232 163.29 90.6715 154.996 84.7079C149.707 80.9252 146.801 72.1107 152.364 67.2938C154.08 65.8351 156.332 65.0612 158.675 65.4737C159.405 65.6262 160.119 65.9052 160.699 66.403C160.816 66.5025 160.932 66.6021 161.024 66.7202C161.32 67.098 161.433 67.5817 161.376 68.045C161.325 68.4662 161.101 68.909 160.699 69.2236C160.321 69.5197 159.838 69.632 159.393 69.5994C158.953 69.5247 158.51 69.3 158.214 68.9222C157.9 68.5208 157.787 68.037 157.838 67.6159C157.884 67.2368 158.033 66.8916 158.279 66.6223C156.431 66.3554 154.571 66.899 153.317 68.0718C149.473 71.58 154.161 78.7303 157.184 81.4688Z" fill="#33332E"/>
<path d="M174.344 52.3805C184.647 43.7094 197.572 61.8921 187.976 69.423C177.628 78.1924 164.624 59.882 174.328 52.3549L174.344 52.3805ZM187.21 68.5212C193.385 63.7313 181.011 48.2743 175.06 53.3138L175.044 53.2882C168.885 58.1037 181.233 73.5764 187.21 68.5212Z" fill="#33332E"/>
<path d="M199.202 47.4216L209.836 42.331L211.093 44.9558L200.458 50.0464L199.202 47.4216Z" fill="#33332E"/>
<path d="M227.456 45.4818C228.173 47.2949 229.849 49.2451 231.734 48.6278L223.087 52.0511C225.721 50.8794 224.881 48.7595 224.119 46.8348L218.035 31.4654L215.245 32.5697L214.815 31.4819L217.604 30.3776C216.135 26.6677 213.409 21.0036 215.55 17.2843C216.088 16.3614 216.854 15.6065 217.775 15.0805C218.735 14.5714 220.944 13.9553 222.073 14.444C222.501 14.6293 222.834 14.9815 223.011 15.4278C223.198 15.902 223.197 16.3866 223 16.787C222.815 17.2153 222.474 17.5762 222.028 17.7529C221.553 17.9406 221.086 17.9 220.657 17.7146C219.45 17.1923 219.574 15.1426 218.323 16.2189C218.004 16.4741 217.786 16.8187 217.628 17.2359C217.1 18.6714 218.113 21.8838 219.212 24.74C219.858 26.4525 220.554 28.0483 220.951 29.0524L223.769 27.9371L224.199 29.025L221.382 30.1403L227.456 45.4818Z" fill="#33332E"/>
<path d="M242.952 22.0968C244.317 22.1459 245.086 23.4155 244.444 24.5874C244.254 24.9913 243.886 25.3248 243.399 25.4753C242.941 25.617 242.449 25.5492 242.036 25.3313C241.06 24.8164 240.92 23.8549 240.169 24.3697C237.374 26.3007 237.599 31.6006 238.493 34.4955L240.406 40.6868C240.982 42.5499 242.502 44.6236 244.429 44.1537L235.572 46.8903C238.288 45.9254 237.587 43.7559 236.967 41.7495L234.159 32.6633C233.548 30.6856 232.507 28.4326 230.035 29.0708C233.391 27.9397 235.332 24.2629 235.332 24.2629L236.749 28.8489C237.074 26.1422 238.295 23.6925 240.835 22.5625C241.468 22.2728 242.25 22.0623 242.952 22.0968Z" fill="#33332E"/>
<path d="M263.577 35.2929C264.006 37.1951 265.36 39.3808 267.318 39.0624L258.275 41.1013C261.058 40.3508 260.528 38.1333 260.066 36.0847L257.974 26.8076C257.519 24.7883 256.656 22.4611 254.142 22.9049C257.575 22.0385 259.797 18.5238 259.797 18.5238L263.577 35.2929ZM257.836 18.0125C257.368 18.1181 256.883 18.0122 256.488 17.7629C256.1 17.5428 255.826 17.1434 255.714 16.6459C255.608 16.1776 255.685 15.6991 255.934 15.3046C256.19 14.9393 256.583 14.6355 257.051 14.5299C257.548 14.4178 258.004 14.5302 258.392 14.7503C258.787 14.9996 259.091 15.3924 259.196 15.8607C259.308 16.3582 259.202 16.8434 258.946 17.2086C258.697 17.6031 258.334 17.9003 257.836 18.0125Z" fill="#33332E"/>
<path d="M274.856 29.7984C277.487 37.9722 287.078 33.5669 286.905 28.2292C287.993 35.9833 275.524 40.8225 271.339 31.5036C268.651 25.519 270.622 16.2453 277.939 15.0672C282.854 14.2565 285.527 17.7591 286.48 23.26L273.969 24.985C274.075 26.606 274.372 28.2911 274.856 29.7984ZM278.131 16.2217C275.262 16.7151 274.002 20.0424 273.95 23.7758L282.956 22.5426C282.372 18.8076 281.225 15.8179 278.131 16.2217Z" fill="#33332E"/>
<path d="M316.847 29.1761C316.875 31.1259 317.75 33.5736 319.732 33.6652L310.463 33.7982C313.311 33.6373 313.277 31.3276 313.248 29.2578C313.196 25.6282 313.434 19.2341 312.036 15.9238C310.607 12.5239 306.171 12.8276 304.207 16.0061C303.21 17.6106 302.583 19.9298 302.626 22.9295L302.719 29.4089C302.747 31.3587 303.622 33.7764 305.603 33.8679L296.334 34.0009C299.212 33.8396 299.149 31.5603 299.119 29.4605L298.983 19.9515C298.953 17.8817 298.588 15.4267 296.036 15.3433C299.575 15.2025 302.472 12.2206 302.472 12.2206L302.536 16.6602C302.74 16.2072 302.973 15.7838 303.208 15.3904C305.642 11.4551 311.245 10.9546 314.262 14.1817C317.187 17.2901 316.764 23.3867 316.847 29.1761Z" fill="#33332E"/>
<path d="M348.873 31.9508C348.622 34.0358 348.731 36.6475 351.01 37.0429C348.545 36.6855 345.489 34.9577 345.266 32.3018C344.145 33.8288 342.684 34.9218 340.914 35.313C338.494 35.8373 335.499 35.1139 333.783 33.3057C329.592 28.9633 330.649 18.9377 335.5 15.2917C337.662 13.6485 340.757 13.538 343.17 14.584C344.888 15.3652 346.082 16.7478 346.867 18.5044L348.148 7.87124C348.396 5.8161 348.333 3.3307 345.815 2.90658C349.37 3.2442 352.644 0.647156 352.644 0.647156L348.873 31.9508ZM345.121 29.988C345.597 29.0481 346.626 22.0107 346.398 20.8954C345.866 18.5349 344.626 16.5422 342.616 15.6656C340.349 14.6673 338.483 15.1072 337.087 17.4168C334.941 20.9354 334.175 27.793 335.565 31.5563C336.428 33.9265 338.306 34.6363 340.6 34.1572C342.678 33.7125 344.111 32.1023 345.121 29.988Z" fill="#33332E"/>
<path d="M369.325 35.8089C368.906 37.7134 369.205 40.2671 371.113 40.8093L362.059 38.8195C364.898 39.3204 365.358 37.0872 365.809 35.0361L370.986 11.4783C371.43 9.45658 371.636 6.98308 369.171 6.31852C372.648 6.99048 376.157 4.72079 376.157 4.72079L369.325 35.8089Z" fill="#33332E"/>
<path d="M385.417 44.5597L383.905 25.9076C383.718 23.9271 383.379 21.237 381.387 20.4753L390.275 23.3111C388.381 22.8327 387.561 24.7124 387.759 26.854L388.772 39.8674L391.297 36.2959L396.879 28.4723C397.801 27.1606 397.718 25.8429 395.811 25.1085L402.642 27.2878C400.642 26.7444 399.16 27.3423 397.846 29.1904L380.98 52.8429C380.803 53.1013 380.587 53.2844 380.323 53.4206C379.908 53.6347 379.425 53.6694 378.968 53.5235C378.482 53.3685 378.136 53.0694 377.922 52.6547C377.708 52.24 377.645 51.7475 377.791 51.2902C377.946 50.8043 378.273 50.468 378.688 50.2539C379.103 50.0398 379.567 49.9674 380.053 50.1224C381.196 50.4872 381.331 49.9636 382.127 49.1468L382.407 48.7637L385.417 44.5597Z" fill="#33332E"/>
<path d="M423.876 54.6047C423.021 56.3571 422.71 58.9093 424.437 59.8856L416.106 55.8194C418.747 56.9749 419.72 54.9128 420.641 53.0256L431.221 31.3498C432.129 29.4896 432.912 27.1341 430.673 25.9078C433.893 27.3797 437.838 26.0002 437.838 26.0002L423.876 54.6047Z" fill="#33332E"/>
<path d="M436.281 61.0666C435.327 62.7676 434.872 65.2981 436.54 66.3708L428.454 61.8385C431.025 63.142 432.113 61.1384 433.14 59.3065L437.79 51.0107C438.802 49.2049 439.717 46.8977 437.551 45.5462C440.683 47.1985 444.685 46.0713 444.685 46.0713L436.281 61.0666ZM443.57 44.38C443.151 44.1453 442.861 43.7421 442.735 43.2929C442.593 42.8698 442.656 42.3893 442.906 41.9444C443.14 41.5257 443.517 41.2211 443.967 41.0946C444.401 40.9942 444.896 41.0311 445.315 41.2658C445.76 41.5151 446.024 41.9036 446.165 42.3267C446.291 42.7759 446.255 43.2711 446.02 43.6898C445.771 44.1347 445.367 44.4246 444.933 44.5249C444.484 44.6515 444.015 44.6293 443.57 44.38Z" fill="#33332E"/>
<path d="M464.381 62.3412C465.936 61.1579 466.686 59.9248 464.669 58.4107L470.75 62.6458C468.556 61.2279 466.987 61.8534 465.093 63.3128L450.072 74.7494L447.758 73.1376L453.355 54.9178C453.682 53.6096 454.032 51.1117 452.353 49.7959L460.034 55.1454C458.653 54.2934 457.095 55.5849 456.256 58.3641L452.156 71.7043L464.381 62.3412Z" fill="#33332E"/>
<path d="M475.179 86.7975C473.916 88.2828 472.981 90.6781 474.412 92.0523L467.35 86.0463C469.622 87.8208 471.076 86.0647 472.437 84.465L478.598 77.221C479.939 75.6442 481.282 73.5566 479.417 71.813C482.172 74.038 486.316 73.7034 486.316 73.7034L475.179 86.7975ZM485.548 71.8288C485.182 71.5178 484.975 71.0663 484.938 70.6011C484.881 70.1587 485.035 69.6993 485.366 69.3109C485.677 68.9452 486.105 68.7191 486.571 68.6815C487.016 68.6668 487.495 68.7984 487.861 69.1094C488.249 69.4398 488.433 69.8719 488.49 70.3142C488.528 70.7794 488.396 71.2582 488.085 71.6239C487.755 72.0123 487.303 72.2191 486.857 72.2338C486.392 72.2713 485.936 72.1592 485.548 71.8288Z" fill="#33332E"/>
<path d="M495.124 105.62C493.724 106.978 492.544 109.294 493.837 110.798L487.381 104.146C489.452 106.108 491.109 104.499 492.595 103.057C495.2 100.529 500.015 96.3153 501.464 93.0274C502.957 89.6552 499.693 86.6362 496.033 87.3877C494.181 87.7631 492.064 88.8984 489.911 90.9878L485.261 95.5008C483.862 96.859 482.703 99.1541 483.996 100.659L477.54 94.0065C479.632 95.9896 481.247 94.3801 482.754 92.9175L489.578 86.2941C491.064 84.8525 492.599 82.9024 490.909 80.9889C493.439 83.4665 497.597 83.5286 497.597 83.5286L494.41 86.6209C494.88 86.4582 495.348 86.3379 495.795 86.2385C500.328 85.3091 504.536 89.0423 504.258 93.451C504.004 97.7115 499.279 101.587 495.124 105.62Z" fill="#33332E"/>
<path d="M510.088 128.7C510.726 133.33 506.508 137.302 501.844 134.658C500.197 133.721 498.704 132.142 497.703 130.567C496.944 129.411 496.394 128.135 496.162 126.881C495.913 125.604 496.023 124.356 496.62 123.304C496.966 122.667 497.492 122.119 498.199 121.661C498.953 121.167 499.81 120.858 500.644 120.718C501.04 120.645 501.448 120.637 501.808 120.666C501.545 117.181 505.298 116.228 507.784 118.674C507.621 116.317 508.495 113.74 511.009 111.843C515.152 108.716 519.861 110.424 521.885 113.106C522.463 113.872 522.928 114.837 523.147 115.874C524.705 115.15 526.975 115.767 528.185 116.921C528.281 116.999 528.395 117.1 528.467 117.196C528.775 117.603 528.878 118.089 528.795 118.527C528.731 118.989 528.522 119.41 528.115 119.717C527.732 120.006 527.246 120.11 526.784 120.045C526.34 120.005 525.925 119.754 525.618 119.347C525.329 118.964 525.201 118.496 525.266 118.034C525.325 117.614 525.527 117.235 525.869 116.94C524.968 116.643 523.96 116.652 523.331 117.164C523.5 119.479 522.626 122.056 520.136 123.935C515.993 127.062 511.242 125.348 509.218 122.666C507.917 120.942 508.487 119.158 506.2 118.817C504.982 118.647 504.036 119.286 505.74 121.345C507.149 123.062 509.738 126.145 510.088 128.7ZM520.831 113.901C519.241 111.794 516.542 112.102 513.142 114.668C509.741 117.235 508.681 119.764 510.271 121.871C511.88 124.002 514.585 123.652 517.985 121.086C521.385 118.52 522.44 116.032 520.831 113.901ZM502.417 133.625C504.977 135.075 508.75 132.754 507.248 130.016C506.289 128.297 503.802 125.55 502.734 123.538C502.433 122.939 502.209 122.393 502.045 121.878C501.691 121.807 501.283 121.814 500.821 121.899C500.162 122.021 499.442 122.264 498.832 122.649C498.311 123.005 497.91 123.42 497.653 123.877C497.2 124.67 497.125 125.667 497.326 126.68C497.521 127.735 498.004 128.874 498.692 129.934C499.608 131.347 500.926 132.795 502.417 133.625Z" fill="#33332E"/>
<path d="M108.484 514.453C112.205 518.283 116.05 519.4 117.832 517.919L113.916 521.724C111.826 519.572 109.714 517.441 107.624 515.289L106.913 514.557L106.934 514.536C103.715 511.265 100.538 507.994 97.3395 504.701C99.4322 506.683 101.047 505.073 102.553 503.61L122.05 484.672C123.534 483.23 125.069 481.279 123.378 479.366L138.993 495.441L135.851 498.493C137.339 496.796 135.582 493.652 131.882 489.843L129.227 487.11C127.346 485.174 126.258 485.603 124.558 487.255L115.95 495.616C119.588 499.318 122.575 501.101 124.314 499.662L118.762 505.055C120.462 503.404 118.789 500.303 115.089 496.452L105.061 506.192C102.608 508.575 104.994 510.859 107.774 513.721L108.484 514.453Z" fill="#33332E"/>
<path d="M131.286 529.031C127.083 536.519 136.835 540.555 140.631 536.798C135.685 542.869 123.658 537.018 127.644 527.612C130.167 521.619 138.122 516.84 144.048 521.203C145.85 522.554 147.101 524.58 147.216 526.956C147.228 527.701 147.114 528.459 146.757 529.136C146.685 529.271 146.614 529.406 146.519 529.522C146.216 529.895 145.769 530.111 145.304 530.158C144.882 530.201 144.401 530.08 144.005 529.758C143.633 529.455 143.417 529.008 143.351 528.567C143.326 528.121 143.448 527.64 143.751 527.268C144.073 526.872 144.52 526.656 144.942 526.613C145.322 526.574 145.692 526.643 146.009 526.824C145.861 524.962 144.92 523.267 143.5 522.304C139.23 519.328 133.29 525.479 131.286 529.031Z" fill="#33332E"/>
<path d="M162.907 536.659C175.147 542.274 164.223 561.724 153.316 556.262C140.968 550.648 151.974 531.072 162.924 536.634L162.907 536.659ZM153.804 555.184C160.772 558.723 169.467 540.934 162.369 537.704L162.385 537.679C155.401 534.165 146.681 551.937 153.804 555.184Z" fill="#33332E"/>
<path d="M177.441 555.814L187.908 561.24L186.569 563.823L176.102 558.397L177.441 555.814Z" fill="#33332E"/>
<path d="M198.249 577.082C197.476 578.872 197.284 581.436 199.054 582.331L190.516 578.644C193.208 579.676 194.112 577.582 194.932 575.682L201.485 560.506L198.731 559.317L199.195 558.243L201.949 559.432C203.53 555.769 205.603 549.834 209.746 548.715C210.779 548.442 211.854 548.449 212.878 548.728C213.917 549.046 215.915 550.17 216.369 551.313C216.541 551.747 216.528 552.232 216.337 552.672C216.135 553.14 215.792 553.482 215.37 553.627C214.936 553.799 214.44 553.813 213.999 553.623C213.531 553.421 213.228 553.062 213.056 552.628C212.571 551.405 214.107 550.043 212.461 549.92C212.055 549.876 211.657 549.965 211.251 550.149C209.863 550.791 208.31 553.781 207.07 556.578C206.317 558.247 205.682 559.868 205.254 560.859L208.036 562.06L207.572 563.135L204.79 561.933L198.249 577.082Z" fill="#33332E"/>
<path d="M226.974 569.948C228.05 570.79 227.925 572.269 226.716 572.84C226.326 573.055 225.832 573.108 225.35 572.944C224.895 572.789 224.537 572.444 224.332 572.026C223.845 571.035 224.297 570.175 223.387 570.15C219.991 570.069 217.056 574.488 216.078 577.355L213.985 583.488C213.355 585.333 213.365 587.905 215.2 588.658L206.427 585.663C209.191 586.48 209.899 584.313 210.578 582.325L213.649 573.325C214.318 571.366 214.8 568.931 212.426 567.994C215.805 569.052 219.537 567.219 219.537 567.219L217.987 571.762C219.841 569.764 222.27 568.501 224.988 569.08C225.67 569.218 226.427 569.508 226.974 569.948Z" fill="#33332E"/>
<path d="M238.211 591.067C237.723 592.955 237.927 595.517 239.814 596.13L230.84 593.807C233.658 594.413 234.2 592.198 234.726 590.165L237.109 580.958C237.628 578.954 237.924 576.49 235.486 575.735C238.936 576.535 242.518 574.425 242.518 574.425L238.211 591.067ZM241.009 573.074C240.544 572.953 240.161 572.637 239.924 572.235C239.68 571.862 239.618 571.381 239.746 570.888C239.867 570.423 240.154 570.032 240.556 569.796C240.95 569.588 241.439 569.497 241.903 569.618C242.397 569.745 242.751 570.054 242.995 570.427C243.232 570.829 243.323 571.317 243.202 571.782C243.075 572.276 242.759 572.659 242.364 572.867C241.962 573.103 241.503 573.202 241.009 573.074Z" fill="#33332E"/>
<path d="M254.28 592.919C254.303 601.506 264.779 600.223 266.236 595.085C264.916 602.803 251.566 603.625 250.411 593.475C249.669 586.957 254.364 578.72 261.693 579.821C266.622 580.542 268.104 584.691 267.341 590.222L254.897 588.064C254.505 589.64 254.276 591.336 254.28 592.919ZM261.525 580.979C258.642 580.578 256.431 583.365 255.247 586.906L264.202 588.468C264.78 584.732 264.596 581.535 261.525 580.979Z" fill="#33332E"/>
<path d="M297.566 601.076C297.461 603.024 298.167 605.525 300.138 605.752L290.881 605.252C293.734 605.286 293.858 602.979 293.97 600.912C294.166 597.287 294.841 590.924 293.672 587.526C292.479 584.037 288.033 584.037 285.855 587.074C284.751 588.606 283.967 590.877 283.805 593.873L283.455 600.344C283.35 602.291 284.058 604.762 286.028 604.989L276.772 604.489C279.654 604.524 279.747 602.246 279.861 600.149L280.374 590.653C280.486 588.586 280.289 586.112 277.749 585.854C281.289 585.956 284.384 583.179 284.384 583.179L284.144 587.612C284.378 587.174 284.64 586.768 284.901 586.391C287.598 582.631 293.222 582.515 296.011 585.94C298.717 589.241 297.879 595.295 297.566 601.076Z" fill="#33332E"/>
<path d="M332.526 600.128C332.679 602.222 333.287 604.764 335.6 604.715C333.112 604.837 329.782 603.728 329.052 601.165C328.246 602.878 327.021 604.232 325.36 604.955C323.085 605.935 320.007 605.8 317.976 604.354C313.03 600.897 312.142 590.855 316.203 586.346C318.009 584.318 321.026 583.615 323.594 584.179C325.431 584.616 326.867 585.743 327.975 587.316L327.191 576.635C327.039 574.571 326.5 572.144 323.948 572.211C327.502 571.86 330.217 568.682 330.217 568.682L332.526 600.128ZM328.466 598.922C328.753 597.908 328.412 590.804 327.974 589.753C326.999 587.539 325.399 585.821 323.258 585.347C320.842 584.802 319.095 585.592 318.168 588.127C316.737 591.992 317.303 598.869 319.389 602.295C320.691 604.456 322.671 604.792 324.83 603.881C326.784 603.046 327.881 601.191 328.466 598.922Z" fill="#33332E"/>
<path d="M354.633 597.732C354.955 599.655 356.184 601.913 358.156 601.705L349.013 603.233C351.834 602.64 351.429 600.396 351.083 598.325L347.109 574.534C346.768 572.493 346.037 570.121 343.502 570.422C346.979 569.75 349.389 566.336 349.389 566.336L354.633 597.732Z" fill="#33332E"/>
<path d="M375.874 597.146L364.597 582.213C363.377 580.641 361.649 578.552 359.559 578.977L368.582 576.605C366.727 577.217 367.042 579.243 368.358 580.945L376.19 591.387L376.407 587.018L376.924 577.421C376.999 575.82 376.222 574.752 374.219 575.155L381.153 573.332C379.174 573.945 378.244 575.244 378.126 577.509L376.569 606.517C376.558 606.83 376.474 607.101 376.325 607.357C376.089 607.76 375.7 608.049 375.236 608.171C374.743 608.3 374.291 608.233 373.888 607.998C373.484 607.763 373.167 607.381 373.045 606.917C372.915 606.423 373.012 605.964 373.247 605.561C373.482 605.158 373.835 604.848 374.328 604.718C375.489 604.413 375.322 603.898 375.556 602.782L375.587 602.309L375.874 597.146Z" fill="#33332E"/>
<path d="M415.384 579.491C416.137 581.29 417.85 583.207 419.723 582.553L411.172 586.132C413.782 584.91 412.874 582.818 412.063 580.881L402.75 558.631C401.951 556.722 400.697 554.58 398.298 555.454C401.529 554.004 403.094 550.129 403.094 550.129L415.384 579.491Z" fill="#33332E"/>
<path d="M430.322 571.691C431.181 573.442 433.005 575.254 434.836 574.49L426.513 578.572C429.046 577.196 428.015 575.162 427.09 573.276L422.902 564.738C421.991 562.88 420.611 560.816 418.269 561.831C421.408 560.192 422.753 556.258 422.753 556.258L430.322 571.691ZM420.727 556.215C420.296 556.426 419.8 556.436 419.358 556.285C418.93 556.161 418.57 555.836 418.345 555.378C418.134 554.947 418.097 554.464 418.248 554.023C418.413 553.608 418.724 553.221 419.155 553.01C419.613 552.785 420.083 552.789 420.511 552.913C420.953 553.064 421.339 553.375 421.551 553.806C421.775 554.264 421.785 554.761 421.621 555.175C421.47 555.617 421.185 555.991 420.727 556.215Z" fill="#33332E"/>
<path d="M446.796 546.912C446.339 545.012 445.511 543.83 443.314 545.067L449.637 541.204C447.457 542.642 447.398 544.33 447.972 546.651L452.398 565.005L449.991 566.474L435.564 554.018C434.497 553.193 432.352 551.867 430.471 552.875L438.459 547.997C437.124 548.918 437.679 550.863 439.886 552.75L450.449 561.871L446.796 546.912Z" fill="#33332E"/>
<path d="M473.103 544.642C474.267 546.206 476.392 547.654 478.052 546.568L470.616 552.103C472.854 550.287 471.469 548.476 470.215 546.791L464.537 539.162C463.301 537.502 461.567 535.726 459.45 537.152C462.236 534.966 462.839 530.852 462.839 530.852L473.103 544.642ZM460.84 531.181C460.455 531.468 459.969 531.568 459.507 531.5C459.063 531.456 458.65 531.203 458.345 530.794C458.059 530.409 457.935 529.94 458.002 529.479C458.088 529.041 458.323 528.604 458.709 528.317C459.118 528.013 459.58 527.93 460.024 527.974C460.486 528.042 460.923 528.277 461.209 528.662C461.514 529.071 461.614 529.558 461.528 529.995C461.461 530.457 461.249 530.876 460.84 531.181Z" fill="#33332E"/>
<path d="M497.008 524.822C498.315 526.27 500.587 527.532 502.137 526.294L495.257 532.507C497.292 530.508 495.744 528.794 494.357 527.258C491.924 524.564 487.886 519.6 484.652 518.033C481.336 516.42 478.201 519.574 478.821 523.259C479.129 525.123 480.188 527.279 482.199 529.506L486.542 534.315C487.849 535.762 490.101 537.003 491.651 535.765L484.771 541.978C486.828 539.958 485.277 538.286 483.87 536.728L477.496 529.67C476.109 528.134 474.215 526.529 472.242 528.149C474.809 525.71 475.02 521.557 475.02 521.557L477.996 524.853C477.85 524.378 477.747 523.905 477.664 523.455C476.898 518.892 480.78 514.82 485.176 515.256C489.424 515.664 493.128 520.525 497.008 524.822Z" fill="#33332E"/>
<path d="M519.407 506.633C523.811 505.069 528.557 508.393 526.914 513.496C526.331 515.299 525.087 517.081 523.748 518.381C522.77 519.359 521.632 520.156 520.452 520.637C519.252 521.141 518.007 521.287 516.856 520.916C516.162 520.706 515.519 520.302 514.927 519.703C514.29 519.064 513.814 518.287 513.507 517.5C513.355 517.127 513.266 516.729 513.221 516.37C509.861 517.335 508.166 513.853 510.058 510.923C507.782 511.561 505.082 511.228 502.714 509.151C498.812 505.728 499.529 500.771 501.744 498.245C502.377 497.523 503.227 496.872 504.199 496.447C503.173 495.069 503.317 492.721 504.202 491.302C504.258 491.192 504.335 491.06 504.414 490.969C504.75 490.586 505.205 490.386 505.651 490.378C506.116 490.348 506.57 490.467 506.954 490.803C507.315 491.119 507.515 491.574 507.545 492.04C507.595 492.483 507.434 492.94 507.098 493.323C506.781 493.684 506.349 493.904 505.884 493.934C505.46 493.962 505.048 493.84 504.69 493.566C504.582 494.509 504.795 495.494 505.424 496.005C507.657 495.37 510.357 495.703 512.703 497.761C516.605 501.183 515.891 506.183 513.675 508.709C512.251 510.333 510.389 510.136 510.519 512.445C510.599 513.672 511.417 514.469 513.087 512.383C514.483 510.654 516.976 507.493 519.407 506.633ZM502.736 499.115C500.996 501.1 501.845 503.68 505.048 506.489C508.251 509.298 510.942 509.823 512.683 507.838C514.444 505.831 513.552 503.253 510.349 500.445C507.146 497.636 504.497 497.108 502.736 499.115ZM525.786 513.145C526.687 510.344 523.648 507.12 521.272 509.147C519.783 510.435 517.598 513.426 515.844 514.881C515.319 515.298 514.83 515.627 514.359 515.892C514.361 516.253 514.451 516.651 514.628 517.086C514.881 517.707 515.264 518.362 515.766 518.882C516.22 519.32 516.708 519.628 517.207 519.787C518.076 520.07 519.067 519.942 520.018 519.539C521.012 519.134 522.029 518.43 522.928 517.542C524.126 516.358 525.276 514.773 525.786 513.145Z" fill="#33332E"/>
<path d="M619.12 287.625C618.213 286.718 617.022 286.222 615.745 286.222C610.915 286.222 606.148 287.003 601.57 288.553L599.44 289.27C599.313 289.312 599.24 289.133 599.356 289.08L601.381 288.078C605.715 285.937 609.639 283.121 613.056 279.704C613.952 278.808 614.448 277.637 614.459 276.393C614.49 273.777 612.36 271.594 609.744 271.552C608.447 271.53 607.224 272.037 606.306 272.954C602.889 276.371 600.073 280.295 597.932 284.63L596.93 286.655C596.867 286.771 596.698 286.697 596.74 286.57L597.457 284.44C599.008 279.862 599.788 275.095 599.788 270.265C599.788 268.989 599.292 267.786 598.385 266.89C597.478 265.983 596.286 265.487 595.01 265.487C593.734 265.487 592.532 265.983 591.635 266.89C590.728 267.797 590.233 268.989 590.233 270.265C590.233 275.095 591.013 279.862 592.563 284.44L593.281 286.57C593.323 286.697 593.143 286.771 593.091 286.655L592.089 284.63C589.948 280.295 587.132 276.371 583.715 272.954C582.818 272.058 581.647 271.562 580.403 271.552C577.777 271.52 575.593 273.65 575.562 276.266C575.541 277.563 576.047 278.787 576.965 279.704C580.382 283.121 584.305 285.937 588.64 288.078L590.665 289.08C590.781 289.144 590.707 289.312 590.581 289.27L588.45 288.553C583.873 287.003 579.106 286.222 574.275 286.222C572.999 286.222 571.797 286.718 570.9 287.625C569.033 289.492 569.033 292.519 570.9 294.385C571.807 295.293 572.999 295.788 574.275 295.788C579.106 295.788 583.873 295.008 588.45 293.457L590.581 292.74C590.707 292.698 590.781 292.877 590.665 292.93L588.64 293.932C584.305 296.073 580.382 298.889 576.965 302.306C576.068 303.203 575.572 304.373 575.562 305.618C575.53 308.234 577.661 310.417 580.276 310.459C581.574 310.48 582.797 309.974 583.715 309.056C587.132 305.639 589.948 301.716 592.089 297.381L593.091 295.356C593.154 295.24 593.323 295.314 593.281 295.44L592.563 297.571C591.013 302.148 590.233 306.915 590.233 311.746C590.233 313.022 590.728 314.224 591.635 315.121C592.542 316.028 593.734 316.523 595.01 316.523C596.286 316.523 597.489 316.028 598.385 315.121C599.292 314.214 599.788 313.022 599.788 311.746C599.788 306.915 599.008 302.148 597.457 297.571L596.74 295.44C596.698 295.314 596.877 295.24 596.93 295.356L597.932 297.381C600.073 301.716 602.889 305.639 606.306 309.056C607.202 309.953 608.373 310.448 609.618 310.459C612.233 310.491 614.416 308.36 614.459 305.744C614.48 304.447 613.974 303.224 613.056 302.306C609.639 298.889 605.715 296.073 601.381 293.932L599.356 292.93C599.24 292.867 599.313 292.698 599.44 292.74L601.57 293.457C606.148 295.008 610.915 295.788 615.745 295.788C617.022 295.788 618.224 295.293 619.12 294.385C620.987 292.519 620.987 289.481 619.12 287.625Z" fill="#B19DDF"/>
<path d="M50.1204 287.625C49.2134 286.718 48.0216 286.222 46.7454 286.222C41.9149 286.222 37.1478 287.003 32.5704 288.553L30.4399 289.27C30.3134 289.312 30.2395 289.133 30.3556 289.08L32.3806 288.078C36.7153 285.937 40.6388 283.121 44.056 279.704C44.9524 278.808 45.4481 277.637 45.4587 276.393C45.4903 273.777 43.3599 271.594 40.7442 271.552C39.447 271.53 38.2235 272.037 37.306 272.954C33.8888 276.371 31.0728 280.295 28.9317 284.63L27.9298 286.655C27.8665 286.771 27.6978 286.697 27.7399 286.57L28.4571 284.44C30.0075 279.862 30.788 275.095 30.788 270.265C30.788 268.989 30.2923 267.786 29.3853 266.89C28.4782 265.983 27.2864 265.487 26.0103 265.487C24.7341 265.487 23.5317 265.983 22.6353 266.89C21.7282 267.797 21.2325 268.989 21.2325 270.265C21.2325 275.095 22.013 279.862 23.5634 284.44L24.2806 286.57C24.3228 286.697 24.1435 286.771 24.0907 286.655L23.0888 284.63C20.9478 280.295 18.1317 276.371 14.7146 272.954C13.8181 272.058 12.6474 271.562 11.4028 271.552C8.77666 271.52 6.59346 273.65 6.56182 276.266C6.54072 277.563 7.04697 278.787 7.96455 279.704C11.3817 283.121 15.3052 285.937 19.6399 288.078L21.6649 289.08C21.781 289.144 21.7071 289.312 21.5806 289.27L19.4501 288.553C14.8728 287.003 10.1056 286.222 5.2751 286.222C3.99893 286.222 2.79658 286.718 1.9001 287.625C0.0333008 289.492 0.0333008 292.519 1.9001 294.385C2.80713 295.293 3.99893 295.788 5.2751 295.788C10.1056 295.788 14.8728 295.008 19.4501 293.457L21.5806 292.74C21.7071 292.698 21.781 292.877 21.6649 292.93L19.6399 293.932C15.3052 296.073 11.3817 298.889 7.96455 302.306C7.06807 303.203 6.57236 304.373 6.56182 305.618C6.53018 308.234 8.66065 310.417 11.2763 310.459C12.5735 310.48 13.797 309.974 14.7146 309.056C18.1317 305.639 20.9478 301.716 23.0888 297.381L24.0907 295.356C24.154 295.24 24.3228 295.314 24.2806 295.44L23.5634 297.571C22.013 302.148 21.2325 306.915 21.2325 311.746C21.2325 313.022 21.7282 314.224 22.6353 315.121C23.5423 316.028 24.7341 316.523 26.0103 316.523C27.2864 316.523 28.4888 316.028 29.3853 315.121C30.2923 314.214 30.788 313.022 30.788 311.746C30.788 306.915 30.0075 302.148 28.4571 297.571L27.7399 295.44C27.6978 295.314 27.877 295.24 27.9298 295.356L28.9317 297.381C31.0728 301.716 33.8888 305.639 37.306 309.056C38.2024 309.953 39.3731 310.448 40.6177 310.459C43.2333 310.491 45.4165 308.36 45.4587 305.744C45.4798 304.447 44.9735 303.224 44.056 302.306C40.6388 298.889 36.7153 296.073 32.3806 293.932L30.3556 292.93C30.2395 292.867 30.3134 292.698 30.4399 292.74L32.5704 293.457C37.1478 295.008 41.9149 295.788 46.7454 295.788C48.0216 295.788 49.2239 295.293 50.1204 294.385C51.9872 292.519 51.9872 289.481 50.1204 287.625Z" fill="#B19DDF"/>
</svg>
