<svg width="112" height="113" viewBox="0 0 112 113" fill="none" xmlns="http://www.w3.org/2000/svg">
<path d="M100.183 58.9964C103.062 57.4055 105.536 55.1731 107.413 52.4722C109.291 49.7713 110.521 46.6745 111.009 43.4215C111.497 40.1686 111.23 36.847 110.228 33.7141C109.226 30.5811 107.516 27.721 105.23 25.3552C102.945 22.9894 100.146 21.1815 97.0493 20.0717C93.9529 18.9618 90.6425 18.5797 87.3746 18.955C84.1068 19.3303 80.9692 20.453 78.205 22.2359C75.4409 24.0189 73.1243 26.4143 71.4348 29.2366C72.6592 25.7498 72.9214 21.9974 72.1937 18.3742C71.5716 15.1447 70.2144 12.1017 68.2272 9.48093C66.2401 6.86019 63.6762 4.73206 60.7344 3.26142C57.7926 1.79078 54.5517 1.01709 51.2628 1.00028C47.9739 0.983474 44.7253 1.72401 41.7686 3.16451C38.8119 4.60501 36.2265 6.70681 34.2127 9.3071C32.1989 11.9074 30.8107 14.9364 30.1556 18.1594C29.5006 21.3825 29.5962 24.7131 30.4352 27.8932C31.2743 31.0733 32.8341 34.0176 34.9939 36.498C32.3508 34.5675 29.2998 33.2696 26.0759 32.7042C22.852 32.1388 19.5414 32.3211 16.3991 33.237C13.2568 34.1529 10.3667 35.7779 7.95146 37.9869C5.53624 40.1959 3.66031 42.9298 2.46832 45.9781C1.27633 49.0264 0.800115 52.3076 1.07623 55.569C1.35235 58.8304 2.37343 61.9849 4.06093 64.7894C5.74843 67.5939 8.05725 69.9736 10.8095 71.7451C13.5617 73.5166 16.6839 74.6326 19.9355 75.0071C23.604 75.4317 27.3196 74.8826 30.7085 73.415C27.6794 75.5373 25.2582 78.4151 23.6852 81.7626C21.4911 86.8991 21.3895 92.6893 23.4019 97.8996C25.4143 103.11 29.3817 107.328 34.4588 109.657C39.536 111.985 45.3215 112.238 50.5829 110.363C55.8442 108.488 60.1653 104.633 62.6258 99.6185C64.1536 96.2562 64.7694 92.5509 64.4114 88.8752C65.5273 92.4685 67.5696 95.7045 70.3331 98.258C73.0965 100.811 76.4835 102.592 80.1536 103.421C83.8236 104.25 87.6473 104.098 91.2399 102.98C94.8326 101.863 98.0676 99.8187 100.62 97.0539C103.172 94.2891 104.951 90.9011 105.778 87.2306C106.605 83.5601 106.451 79.7366 105.331 76.1445C104.211 72.5524 102.165 69.3185 99.3994 66.768C96.6332 64.2175 93.2443 62.4403 89.5734 61.6152C93.2778 61.6835 96.9356 60.7806 100.183 58.9964Z" fill="#FFD9D1" stroke="#33332E" stroke-linecap="round" stroke-linejoin="round"/>
</svg>
