<svg width="358" height="356" viewBox="0 0 358 356" fill="none" xmlns="http://www.w3.org/2000/svg">
<path d="M22.1943 242.569C20.3132 233.409 30.2204 233.385 32.7584 238.97C33.2245 239.972 33.4096 241.048 33.2547 242.093C33.0104 243.793 32.8626 243.741 33.8474 243.975L29.7246 245.593C31.0771 244.533 32.3759 243.477 32.5999 242.003C32.735 241.094 32.5554 240.125 32.1547 239.243C30.4306 235.454 22.9258 235.282 24.3114 242.157C25.9436 250.358 16.7422 251.344 13.9162 246.929C13.3079 245.983 12.9812 244.872 12.9568 243.788C12.9039 241.749 13.5426 241.425 12.2803 241.228L16.3873 239.616C14.5919 240.94 13.573 241.595 13.6218 243.764C13.6406 244.741 13.9398 245.735 14.4731 246.583C16.5132 249.738 23.5474 249.129 22.1943 242.569Z" fill="black"/>
<path d="M24.8971 229.823C29.2423 227.652 25.959 222.667 22.9894 223.22C27.2318 221.949 31.0039 228.506 26.1513 231.643C23.0349 233.658 17.6812 233.349 16.3968 229.358C15.5232 226.68 17.2531 224.886 20.2472 223.882L22.2817 230.73C23.1789 230.532 24.0957 230.222 24.8971 229.823ZM17.0259 229.152C17.5471 230.714 19.5153 231.134 21.6071 230.844L20.1475 225.914C18.1091 226.56 16.5355 227.457 17.0259 229.152Z" fill="black"/>
<path d="M21.6978 218.481C26.1881 216.63 23.2727 211.42 20.2709 211.758C24.594 210.796 27.8835 217.608 22.8175 220.387C19.564 222.172 14.2465 221.478 13.2531 217.405C12.5748 214.67 14.4295 213.006 17.4882 212.221L19.0237 219.198C19.9329 219.065 20.8697 218.822 21.6978 218.481ZM13.8953 217.245C14.3026 218.84 16.2354 219.401 18.3428 219.262L17.2423 214.24C15.1626 214.738 13.5285 215.518 13.8953 217.245Z" fill="black"/>
<path d="M11.1621 195.907C14.101 192.943 22.1293 195.521 21.7852 192.503C22.0635 194.913 20.9589 195.903 19.365 196.315C19.4922 196.387 19.6363 196.456 19.7654 196.545C20.4221 196.935 21.0765 197.461 21.5695 198.073C24.9597 202.109 19.2515 205.664 16.3853 201.895C15.6478 200.917 15.1527 199.656 14.7302 198.592C14.3338 197.611 14.0249 196.808 13.7759 196.716C13.1161 196.77 12.5143 196.887 12.0096 197.112C10.3154 197.859 10.473 200.573 11.6195 201.387C12.2123 201.818 13.0499 201.83 13.9993 202.085L13.1561 203.44C12.3116 203.207 11.5842 202.637 11.0615 201.909C9.87603 200.262 9.65326 197.419 11.1621 195.907ZM17.9383 196.538C16.8399 196.64 15.6594 196.614 14.5893 196.662C14.8562 197.077 15.0925 197.683 15.353 198.354C16.0119 200.024 17.1588 202.733 19.463 201.63C19.8851 201.43 20.2813 201.149 20.6063 200.84C22.0906 199.416 20.8391 197.948 19.434 197.11C18.9064 196.809 18.371 196.594 17.9383 196.538Z" fill="black"/>
<path d="M18.9475 186.698C20.0495 186.652 21.4025 186.119 21.4228 184.997L21.6453 190.235C21.5084 188.611 20.2206 188.682 19.0339 188.733L5.40319 189.312C4.23339 189.361 2.85112 189.607 2.84452 191.051C2.70868 189.053 0.9597 187.462 0.9597 187.462L18.9475 186.698Z" fill="black"/>
<path d="M18.8007 179.088C19.9037 179.092 21.28 178.622 21.3522 177.503L21.332 182.746C21.2704 181.117 19.9807 181.129 18.7929 181.124L5.14999 181.071C3.97914 181.067 2.58698 181.248 2.51354 182.69C2.47036 180.688 0.796875 179.018 0.796875 179.018L18.8007 179.088Z" fill="black"/>
<path d="M11.187 158.793C13.6055 156.384 19.285 156.892 21.4054 159.622C22.339 160.811 22.4443 162.579 21.8574 163.951C21.4495 164.915 20.6596 165.617 19.6749 166.061L19.6563 166.076L27.521 166.897C28.5843 167.008 30.0175 166.68 30.2014 165.574L29.6566 170.789C29.7584 169.161 28.4739 169.044 27.3094 168.923L13.7234 167.503C12.5589 167.382 11.1725 167.424 10.9551 168.852C11.1125 166.855 9.61446 165.027 9.61446 165.027L11.7916 165.254C10.9518 164.637 10.3543 163.824 10.1155 162.844C9.81243 161.499 10.1948 159.798 11.187 158.793ZM20.2177 160.538C18.1917 159.354 14.3234 158.984 12.2074 159.804C10.8578 160.311 10.4749 161.363 10.7815 162.675C11.0364 163.827 11.9767 164.625 13.1629 165.193C13.473 165.327 14.3942 165.492 15.3864 165.63L17.0572 165.804C17.6666 165.851 18.1613 165.851 18.3185 165.816C19.6639 165.513 20.7798 164.794 21.2576 163.65C21.7868 162.34 21.5195 161.306 20.2177 160.538Z" fill="black"/>
<path d="M12.4296 146.251C12.8112 145.579 13.649 145.526 14.0688 146.154C14.2219 146.355 14.293 146.627 14.2411 146.91C14.1923 147.177 14.0297 147.406 13.8125 147.556C13.2991 147.911 12.7802 147.73 12.842 148.242C13.0799 150.148 15.797 151.421 17.4829 151.729L21.0884 152.388C22.1734 152.587 23.6109 152.367 23.8791 151.277L22.9361 156.435C23.1623 154.82 21.8907 154.605 20.7222 154.392L15.4308 153.424C14.279 153.214 12.8767 153.147 12.5505 154.554C12.8605 152.575 11.5238 150.64 11.5238 150.64L14.1945 151.128C12.922 150.257 12.0125 149.004 12.1097 147.435C12.1298 147.042 12.2289 146.594 12.4296 146.251Z" fill="black"/>
<path d="M14.262 137.491C15.0942 129.919 27.4828 132.316 26.4949 139.145C25.6825 146.774 13.2119 144.356 14.2455 137.487L14.262 137.491ZM25.829 139.075C26.4868 134.704 15.3879 133.207 14.9193 137.593L14.9028 137.589C14.2615 141.965 25.356 143.478 25.829 139.075Z" fill="black"/>
<path d="M29.1014 122.214C30.2212 122.611 31.6761 122.874 32.1761 121.665C31.6742 122.981 30.3429 124.454 28.8492 124.249C29.5535 125.056 29.9763 125.998 29.9735 127.023C29.9638 128.424 29.1943 129.987 27.9841 130.711C25.0693 132.487 19.6662 130.665 18.2533 127.537C17.6136 126.14 17.9351 124.418 18.8106 123.216C19.4543 122.364 20.3649 121.876 21.4316 121.66L15.7208 119.638C14.6171 119.248 13.2374 118.975 12.6922 120.312C13.3179 118.392 12.2891 116.264 12.2891 116.264L29.1014 122.214ZM27.5542 124.043C27.0943 123.664 23.3371 122.226 22.6933 122.214C21.3247 122.216 20.0715 122.654 19.3392 123.655C18.508 124.783 18.5202 125.867 19.6225 126.923C21.2993 128.543 24.9898 129.813 27.2388 129.511C28.6536 129.328 29.2776 128.379 29.2967 127.054C29.3081 125.852 28.5964 124.862 27.5542 124.043Z" fill="black"/>
<path d="M33.515 107.85C35.4739 108.749 37.4797 109.463 38.1665 108.21C36.292 112.297 37.1649 112.063 34.4034 110.554C34.5614 110.738 34.6816 110.924 34.8017 111.11C36.2352 113.317 35.1201 116.278 32.7469 117.056C30.6662 117.726 27.9085 116.331 26.0576 115.482C24.9933 114.994 23.6661 114.591 23.0032 115.873C23.7916 114.032 22.9578 111.82 22.9578 111.82C25.2868 112.888 30.3216 115.384 32.3899 115.474C34.4666 115.586 35.39 113.246 34.2444 111.47C33.6674 110.571 32.6508 109.694 31.0929 108.98L29.3962 108.202C28.3319 107.714 26.9977 107.326 26.3418 108.593C27.1302 106.752 26.2964 104.54 26.2964 104.54L33.515 107.85Z" fill="black"/>
<path d="M36.112 103.12C40.6978 104.72 41.9808 98.8901 39.513 97.1479C43.3831 99.3014 41.3146 106.578 35.682 105.289C32.0945 104.477 28.646 100.519 30.4895 96.7873C31.0639 95.6505 32.0682 94.7529 33.3804 94.4539C33.7941 94.3734 34.2276 94.3622 34.6396 94.4943C34.7219 94.5207 34.8043 94.5472 34.8785 94.5884C35.1157 94.7204 35.2804 94.948 35.3527 95.2019C35.4185 95.4326 35.3985 95.7128 35.2583 95.9649C35.1262 96.2021 34.8987 96.3668 34.6596 96.4474C34.414 96.5049 34.1338 96.4849 33.8966 96.3529C33.6445 96.2127 33.4799 95.9851 33.4141 95.7543C33.3549 95.5466 33.3567 95.334 33.4261 95.1395C32.404 95.4058 31.5531 96.0975 31.1569 96.9839C29.9223 99.6564 33.9353 102.356 36.112 103.12Z" fill="black"/>
<path d="M42.3207 92.1827C44.4252 93.5217 46.1315 94.2856 47.3001 92.5754C45.9077 94.827 45.2792 96.4786 41.1989 93.8825L33.4393 88.9453C32.4515 88.3167 31.4754 88.2387 30.7922 89.3125C31.8671 87.6231 30.421 84.7118 30.352 84.5674L32.8144 86.1342L33.8893 84.4448L34.4477 84.8001L33.3728 86.4894L42.3207 92.1827Z" fill="black"/>
<path d="M42.3954 84.5917C43.8854 84.1143 45.9293 82.4265 47.9375 82.3621C50.7663 82.2594 52.212 85.3406 50.4215 87.8986C49.5854 89.0948 48.0354 90.2388 46.6037 89.9647L46.705 87.9291C46.7479 88.3355 47.5888 89.3762 48.4199 88.8862C48.9727 88.5516 49.4882 88.065 49.8697 87.5033C51.1997 85.6173 50.1397 83.2508 47.9428 84.3071C46.5216 84.9799 44.7801 86.2163 43.0402 86.285C40.2113 86.3877 38.7557 83.3204 40.5325 80.7525C40.9969 80.1041 41.5954 79.5309 42.239 79.1569C42.9595 78.7338 43.7528 78.5297 44.4489 78.6944L44.2765 80.7417C44.309 80.0553 43.3217 79.3063 42.5439 79.7511C41.9912 80.0857 41.4757 80.5723 41.0942 81.1339C40.0013 82.6889 40.7002 85.1516 42.3954 84.5917ZM46.711 87.8917C46.7209 87.8779 46.7071 87.868 46.7071 87.868L46.711 87.8917Z" fill="black"/>
<path d="M73.4808 47.2965C81.6816 42.8031 84.6194 52.2648 80.0289 56.3337C79.2085 57.074 78.2349 57.5676 77.1904 57.7271C75.4938 57.9939 75.4994 57.8375 75.5662 58.8474L72.8067 55.3832C74.2172 56.3641 75.6092 57.2945 77.0831 57.0749C77.9924 56.9364 78.8652 56.4797 79.59 55.8372C82.7044 53.0744 80.6602 45.8512 74.4971 49.1988C67.1401 53.1719 63.49 44.6681 66.8772 40.6682C67.6025 39.8084 68.5684 39.1691 69.5974 38.8267C71.5307 38.1761 72.0278 38.6913 71.8449 37.4268L74.5939 40.8776C72.7999 39.5515 71.874 38.7705 69.8161 39.4552C68.8879 39.7607 68.0254 40.3393 67.3719 41.0985C64.957 43.9768 67.6094 50.5201 73.4808 47.2965Z" fill="black"/>
<path d="M86.3928 46.1287C89.7542 49.6345 93.5417 45.02 92.1324 42.3482C94.605 46.0226 89.4613 51.5701 85.0261 47.8665C82.1778 45.488 80.8847 40.2836 84.3146 37.8733C86.6137 36.2443 88.8399 37.3643 90.6865 39.926L84.7501 43.9002C85.2053 44.6984 85.7735 45.4819 86.3928 46.1287ZM84.6981 38.4128C83.361 39.374 83.5438 41.3781 84.4415 43.2897L88.7167 40.4333C87.4949 38.6784 86.1717 37.4417 84.6981 38.4128Z" fill="black"/>
<path d="M96.3404 39.6389C99.4354 43.382 103.551 39.058 102.342 36.29C104.538 40.1359 99.0012 45.2909 94.8498 41.2717C92.1839 38.6905 91.2762 33.4053 94.8738 31.2532C97.2863 29.7975 99.4243 31.0778 101.078 33.7681L94.8657 37.2959C95.2612 38.1253 95.7703 38.9484 96.3404 39.6389ZM95.2167 31.8195C93.8126 32.6799 93.8478 34.6921 94.6028 36.6644L99.0761 34.1295C97.9864 32.2897 96.7576 30.9591 95.2167 31.8195Z" fill="black"/>
<path d="M114.713 22.8808C118.413 24.8136 118.32 33.2452 121.102 32.0255C118.881 33.003 117.609 32.24 116.745 30.8386C116.714 30.9813 116.69 31.1395 116.644 31.289C116.465 32.0314 116.155 32.8121 115.716 33.4639C112.86 37.8945 107.779 33.4899 110.534 29.6389C111.251 28.6455 112.309 27.8003 113.201 27.0827C114.021 26.4142 114.697 25.8821 114.712 25.6169C114.465 25.0026 114.176 24.462 113.812 24.0463C112.598 22.6481 110.052 23.5998 109.612 24.9356C109.376 25.6292 109.612 26.4329 109.648 27.4154L108.105 27.0096C108.078 26.1341 108.408 25.2709 108.949 24.5564C110.173 22.9377 112.824 21.8855 114.713 22.8808ZM116.111 29.5413C115.689 28.522 115.365 27.3865 115.004 26.3781C114.686 26.7556 114.177 27.1602 113.612 27.6074C112.212 28.7297 109.962 30.6253 111.696 32.5011C112.011 32.8456 112.397 33.1409 112.788 33.3605C114.586 34.3582 115.62 32.7289 116.006 31.1392C116.138 30.5461 116.186 29.9711 116.111 29.5413Z" fill="black"/>
<path d="M125.478 27.6865C125.85 28.7249 126.761 29.8587 127.838 29.5449L122.902 31.313C124.412 30.6998 123.961 29.4914 123.561 28.3731L118.961 15.5292C118.566 14.4269 117.921 13.1799 116.54 13.6024C118.408 12.8792 119.407 10.737 119.407 10.737L125.478 27.6865Z" fill="black"/>
<path d="M132.218 25.418C132.542 26.4722 133.401 27.6459 134.491 27.3812L129.48 28.9243C131.017 28.38 130.621 27.1525 130.272 26.0173L126.257 12.9784C125.912 11.8594 125.324 10.5845 123.926 10.9441C125.824 10.3062 126.919 8.21131 126.919 8.21131L132.218 25.418Z" fill="black"/>
<path d="M149.719 11.9895C152.735 13.5874 153.929 19.1631 151.949 21.9959C151.089 23.2395 149.431 23.863 147.947 23.708C146.905 23.6035 146.001 23.0566 145.286 22.247L145.266 22.2336L146.807 29.9896C147.016 31.0381 147.753 32.3103 148.864 32.1586L143.722 33.1804C145.306 32.7964 145.038 31.5348 144.81 30.3864L142.148 16.9882C141.92 15.8398 141.469 14.5281 140.041 14.7426C141.995 14.3024 143.299 12.3307 143.299 12.3307L143.726 14.4777C144.066 13.4931 144.666 12.6819 145.532 12.1638C146.728 11.4765 148.465 11.3389 149.719 11.9895ZM150.722 21.1324C151.254 18.8469 150.464 15.0421 149.055 13.2632C148.171 12.1239 147.053 12.0693 145.891 12.75C144.865 13.3344 144.381 14.4686 144.19 15.7695C144.153 16.1056 144.268 17.0342 144.43 18.0228L144.757 19.6705C144.893 20.2664 145.039 20.7391 145.118 20.879C145.806 22.0746 146.823 22.9278 148.057 23.0459C149.465 23.1642 150.374 22.6029 150.722 21.1324Z" fill="black"/>
<path d="M161.954 9.46216C162.709 9.62791 163.008 10.4123 162.532 10.9993C162.385 11.2049 162.147 11.3532 161.861 11.3876C161.591 11.4199 161.324 11.3323 161.117 11.1692C160.626 10.7838 160.645 10.2345 160.175 10.4448C158.424 11.2361 158.012 14.2081 158.216 15.9097L158.653 19.5489C158.784 20.644 159.42 21.952 160.54 21.886L155.334 22.5109C156.943 22.2494 156.773 20.9709 156.631 19.7916L155.99 14.4508C155.851 13.2883 155.499 11.929 154.059 12.0335C156.041 11.7443 157.494 9.89502 157.494 9.89502L157.818 12.5907C158.273 11.1175 159.201 9.87809 160.729 9.50669C161.11 9.40963 161.567 9.37187 161.954 9.46216Z" fill="black"/>
<path d="M170.351 8.61903C177.825 7.15151 179.238 19.6904 172.426 20.7875C164.903 22.2913 163.485 9.66761 170.35 8.60207L170.351 8.61903ZM172.294 20.1312C176.662 19.4531 174.775 8.41401 170.449 9.27696L170.448 9.26001C166.081 9.95503 167.951 20.9949 172.294 20.1312Z" fill="black"/>
<path d="M189.956 18.1904C189.91 19.3774 190.091 20.8448 191.394 20.963C189.988 20.8747 188.186 20.041 187.938 18.554C187.376 19.4663 186.603 20.1497 185.623 20.4515C184.283 20.8582 182.561 20.588 181.51 19.6474C178.948 17.3918 179.084 11.6912 181.651 9.41294C182.794 8.38726 184.534 8.18274 185.942 8.66164C186.947 9.02309 187.683 9.74776 188.207 10.702L188.441 4.64858C188.486 3.4786 188.336 2.08033 186.897 1.95685C188.917 1.98389 190.644 0.369385 190.644 0.369385L189.956 18.1904ZM187.75 17.2562C187.975 16.7045 188.232 12.6898 188.052 12.0715C187.644 10.7651 186.853 9.69872 185.68 9.29681C184.356 8.83814 183.324 9.17189 182.643 10.5381C181.595 12.6203 181.478 16.5215 182.435 18.5793C183.03 19.8759 184.122 20.1897 185.393 19.8143C186.544 19.4681 187.278 18.4946 187.75 17.2562Z" fill="black"/>
<path d="M205.051 18.0845C204.778 20.2222 204.694 22.3498 206.095 22.6316C201.635 22.0613 202.119 22.8246 202.736 19.7387C202.607 19.9446 202.465 20.1147 202.324 20.2848C200.645 22.3111 197.486 22.1297 196.035 20.0966C194.776 18.3104 195.285 15.2621 195.543 13.2422C195.692 12.0808 195.681 10.6938 194.259 10.4435C196.251 10.647 198.114 9.19149 198.114 9.19149C197.789 11.7331 196.908 17.2829 197.439 19.2839C197.952 21.2996 200.46 21.4834 201.814 19.8603C202.5 19.0413 203.034 17.8095 203.251 16.1094L203.488 14.2579C203.636 13.0965 203.609 11.7073 202.203 11.4592C204.196 11.6627 206.059 10.2072 206.059 10.2072L205.051 18.0845Z" fill="black"/>
<path d="M211.001 19.2448C210.828 24.0987 216.777 23.6001 217.712 20.7275C216.799 25.0613 209.236 25.2373 208.802 19.4754C208.517 15.8083 211.278 11.3435 215.388 12.001C216.644 12.2135 217.798 12.9075 218.472 14.0725C218.671 14.4439 218.81 14.8547 218.806 15.2873C218.805 15.3738 218.804 15.4604 218.786 15.5434C218.73 15.809 218.562 16.0336 218.341 16.1778C218.14 16.3089 217.866 16.3727 217.584 16.3132C217.318 16.2573 217.093 16.0886 216.946 15.8841C216.818 15.6665 216.754 15.3929 216.81 15.1272C216.87 14.845 217.039 14.6204 217.24 14.4893C217.42 14.3713 217.624 14.3102 217.83 14.3189C217.274 13.4213 216.361 12.813 215.397 12.6967C212.479 12.3076 211.088 16.9394 211.001 19.2448Z" fill="black"/>
<path d="M222.758 21.7868C222.106 24.1944 221.884 26.0506 223.865 26.6576C221.301 25.998 219.537 25.8892 220.802 21.2214L223.208 12.3444C223.514 11.2144 223.298 10.2592 222.07 9.92635C224.002 10.4501 226.352 8.20346 226.469 8.09463L225.706 10.9117L227.638 11.4354L227.465 12.0742L225.532 11.5504L222.758 21.7868Z" fill="black"/>
<path d="M230.479 19.723C231.375 21.0051 233.592 22.4585 234.248 24.3578C235.182 27.0297 232.667 29.322 229.693 28.368C228.303 27.9232 226.752 26.7808 226.591 25.3321L228.565 24.8269C228.19 24.988 227.444 26.0991 228.158 26.7481C228.641 27.1772 229.258 27.5257 229.908 27.724C232.103 28.4368 234.05 26.7243 232.391 24.9381C231.328 23.7794 229.632 22.4815 229.052 20.8397C228.117 18.1678 230.617 15.8702 233.595 16.808C234.352 17.0599 235.077 17.4621 235.624 17.9663C236.241 18.5295 236.671 19.2269 236.72 19.9406L234.713 20.3814C235.378 20.2094 235.802 19.0448 235.147 18.4333C234.664 18.0042 234.046 17.6557 233.397 17.4574C231.588 16.8732 229.443 18.2692 230.479 19.723ZM228.603 24.8215C228.619 24.8268 228.624 24.8107 228.624 24.8107L228.603 24.8215Z" fill="black"/>
<path d="M349.52 182.355C348.588 183.612 347.912 186.175 346.319 187.398C344.081 189.132 341.109 187.472 341.072 184.35C341.053 182.89 341.645 181.057 342.968 180.445L344.073 182.158C343.801 181.852 342.511 181.497 342.122 182.38C341.868 182.974 341.733 183.67 341.751 184.349C341.77 186.657 344.011 187.961 345.18 185.822C345.942 184.446 346.636 182.426 348.009 181.356C350.247 179.622 353.218 181.265 353.273 184.387C353.273 185.185 353.122 186 352.817 186.679C352.478 187.443 351.953 188.071 351.292 188.343L350.238 186.58C350.611 187.156 351.85 187.189 352.223 186.374C352.477 185.78 352.612 185.084 352.594 184.405C352.575 182.505 350.571 180.912 349.52 182.355ZM344.09 182.191C344.09 182.208 344.107 182.208 344.107 182.208L344.09 182.191Z" fill="black"/>
<path d="M276.064 38.9347C282.746 45.476 274.547 51.0364 269.319 47.8264C268.373 47.2565 267.617 46.4683 267.161 45.5152C266.413 43.9693 266.564 43.9293 265.617 44.2866L268.13 40.6396C267.602 42.2742 267.116 43.8765 267.754 45.223C268.151 46.0528 268.842 46.7553 269.667 47.2621C273.216 49.4392 279.533 45.3844 274.539 40.4599C268.6 34.5749 275.676 28.6113 280.487 30.6901C281.521 31.1342 282.413 31.8727 283.04 32.7578C284.224 34.4186 283.876 35.044 285.032 34.5016L282.529 38.1346C283.277 36.0327 283.755 34.9198 282.502 33.1496C281.94 32.3503 281.136 31.6931 280.219 31.2884C276.764 29.8141 271.273 34.2534 276.064 38.9347Z" fill="black"/>
<path d="M280.091 50.3108C277.729 54.5546 283.253 56.8174 285.392 54.6846C282.607 58.1285 275.793 54.844 278.028 49.5156C279.464 46.0938 284.057 43.3271 287.37 45.8965C289.603 47.6148 289.187 50.0719 287.282 52.5902L281.738 48.0853C281.109 48.7552 280.527 49.5286 280.091 50.3108ZM286.967 46.4217C285.655 45.4264 283.793 46.1906 282.23 47.6108L286.218 50.8568C287.536 49.1729 288.329 47.5445 286.967 46.4217Z" fill="black"/>
<path d="M289.964 58.5753C287.285 62.6265 292.62 65.3043 294.916 63.3409C291.877 66.5623 285.332 62.7673 287.968 57.625C289.66 54.3227 294.452 51.9147 297.559 54.7293C299.654 56.613 299.052 59.0313 296.96 61.3968L291.776 56.4819C291.097 57.1019 290.458 57.8287 289.964 58.5753ZM297.117 55.2223C295.885 54.1298 293.97 54.7496 292.303 56.0465L296.031 59.5873C297.474 58.0088 298.389 56.4457 297.117 55.2223Z" fill="black"/>
<path d="M311.169 71.0844C310.407 75.1882 302.319 77.5735 304.301 79.875C302.715 78.0386 303.071 76.5986 304.157 75.3615C304.012 75.3739 303.854 75.3974 303.697 75.3969C302.935 75.4441 302.098 75.377 301.346 75.1482C296.272 73.7185 298.992 67.5687 303.482 69.0721C304.642 69.466 305.76 70.2297 306.708 70.8714C307.588 71.4595 308.295 71.9495 308.553 71.8859C309.067 71.4697 309.5 71.0349 309.79 70.5646C310.771 68.9941 309.114 66.8391 307.707 66.8106C306.975 66.7881 306.276 67.2496 305.347 67.5724L305.282 65.9783C306.112 65.6957 307.034 65.7575 307.875 66.0658C309.782 66.7602 311.566 68.9856 311.169 71.0844ZM305.211 74.3747C306.062 73.6725 307.053 73.0296 307.91 72.3881C307.456 72.1953 306.92 71.8273 306.327 71.4186C304.843 70.409 302.371 68.8145 301.086 71.0227C300.85 71.4251 300.681 71.881 300.585 72.3187C300.159 74.3309 302.02 74.8412 303.653 74.7433C304.259 74.6956 304.822 74.5722 305.211 74.3747Z" fill="black"/>
<path d="M309.577 82.5932C308.695 83.255 307.88 84.4598 308.498 85.3965L305.352 81.2018C306.384 82.4643 307.405 81.6769 308.355 80.9642L319.27 72.7785C320.206 72.076 321.208 71.0918 320.396 69.8972C321.639 71.4685 323.98 71.7909 323.98 71.7909L309.577 82.5932Z" fill="black"/>
<path d="M314.174 89.0186C313.262 89.6378 312.391 90.8025 312.963 91.7675L310.02 87.4281C310.991 88.7381 312.048 88.0002 313.031 87.3334L324.322 79.6753C325.291 79.0181 326.338 78.0826 325.585 76.8508C326.751 78.4793 329.075 78.9126 329.075 78.9126L314.174 89.0186Z" fill="black"/>
<path d="M331.746 101.151C331.112 104.505 326.14 107.296 322.848 106.244C321.406 105.79 320.319 104.391 320.028 102.928C319.819 101.902 320.074 100.876 320.636 99.954L320.642 99.931L313.691 103.699C312.751 104.209 311.754 105.289 312.228 106.306L309.729 101.697C310.565 103.096 311.691 102.467 312.72 101.909L324.729 95.3995C325.759 94.8416 326.878 94.0225 326.251 92.7221C327.249 94.4582 329.519 95.1196 329.519 95.1196L327.594 96.1628C328.636 96.1967 329.588 96.5296 330.339 97.2033C331.35 98.1418 331.996 99.7605 331.746 101.151ZM323.31 104.816C325.65 104.648 329.05 102.766 330.332 100.894C331.159 99.7122 330.88 98.6281 329.886 97.7195C329.024 96.9127 327.797 96.7863 326.498 96.9887C326.166 97.0528 325.313 97.4379 324.417 97.8851L322.94 98.6857C322.411 98.9917 322.003 99.271 321.893 99.3885C320.954 100.399 320.44 101.623 320.693 102.837C320.997 104.217 321.802 104.919 323.31 104.816Z" fill="black"/>
<path d="M337.917 112.425C337.981 113.196 337.32 113.713 336.619 113.431C336.379 113.352 336.167 113.167 336.05 112.904C335.939 112.656 335.944 112.375 336.039 112.128C336.263 111.546 336.793 111.403 336.454 111.015C335.181 109.576 332.22 110.058 330.654 110.755L327.306 112.245C326.298 112.694 325.235 113.687 325.629 114.738L323.497 109.948C324.221 111.408 325.392 110.868 326.478 110.385L331.392 108.198C332.461 107.722 333.657 106.985 333.132 105.64C333.993 107.448 336.188 108.291 336.188 108.291L333.708 109.396C335.25 109.396 336.708 109.918 337.513 111.268C337.719 111.604 337.889 112.029 337.917 112.425Z" fill="black"/>
<path d="M341.264 120.454C344.859 127.169 333.286 132.198 330.239 126.007C326.595 119.255 338.248 114.198 341.28 120.448L341.264 120.454ZM330.828 125.688C332.757 129.665 342.757 124.623 340.664 120.741L340.68 120.735C338.734 116.763 328.728 121.789 330.828 125.688Z" fill="black"/>
<path d="M337.674 141.47C336.527 141.776 335.178 142.382 335.449 143.662C335.119 142.292 335.384 140.325 336.732 139.649C335.694 139.381 334.813 138.844 334.236 137.997C333.452 136.836 333.202 135.111 333.791 133.83C335.19 130.717 340.677 129.164 343.611 130.945C344.929 131.735 345.637 133.338 345.595 134.824C345.546 135.891 345.071 136.808 344.314 137.59L350.167 136.028C351.298 135.726 352.59 135.17 352.283 133.759C352.853 135.697 354.905 136.87 354.905 136.87L337.674 141.47ZM337.916 139.087C338.51 139.139 342.422 138.2 342.959 137.846C344.087 137.071 344.873 136 344.911 134.761C344.959 133.361 344.335 132.473 342.829 132.225C340.53 131.838 336.768 132.877 335.084 134.398C334.021 135.349 334.043 136.485 334.777 137.589C335.447 138.587 336.594 139.001 337.916 139.087Z" fill="black"/>
<path d="M342.103 155.44C339.98 155.811 337.923 156.36 338.068 157.782C337.293 153.352 336.707 154.041 339.838 153.717C339.603 153.655 339.399 153.57 339.194 153.485C336.762 152.481 336.001 149.41 337.514 147.422C338.847 145.69 341.91 145.275 343.916 144.924C345.069 144.723 346.391 144.302 346.209 142.869C346.604 144.833 348.546 146.182 348.546 146.182C346.022 146.623 340.46 147.424 338.705 148.523C336.931 149.609 337.498 152.059 339.449 152.872C340.434 153.285 341.769 153.431 343.457 153.136L345.296 152.814C346.449 152.612 347.768 152.175 347.589 150.759C347.984 152.723 349.926 154.071 349.926 154.071L342.103 155.44Z" fill="black"/>
<path d="M342.733 161.566C338.045 162.836 340.28 168.372 343.3 168.415C338.891 168.824 336.486 161.651 341.863 159.533C345.281 158.177 350.363 159.494 350.95 163.615C351.118 164.878 350.796 166.186 349.883 167.174C349.587 167.474 349.235 167.728 348.821 167.852C348.738 167.876 348.655 167.901 348.571 167.909C348.3 167.934 348.036 167.839 347.833 167.671C347.648 167.517 347.506 167.275 347.48 166.988C347.454 166.717 347.549 166.453 347.701 166.251C347.871 166.065 348.114 165.923 348.384 165.898C348.671 165.872 348.936 165.966 349.12 166.12C349.286 166.258 349.405 166.434 349.458 166.634C350.151 165.837 350.462 164.785 350.288 163.83C349.797 160.927 344.961 160.967 342.733 161.566Z" fill="black"/>
<path d="M343.774 173.926C341.281 174.013 339.442 174.349 339.446 176.42C339.32 173.776 338.904 172.058 343.737 171.89L352.929 171.571C354.099 171.53 354.948 171.042 354.903 169.77C354.973 171.771 357.813 173.354 357.951 173.434L355.034 173.535L355.104 175.536L354.442 175.559L354.373 173.558L343.774 173.926Z" fill="black"/>
<path d="M232.04 332.312C231.318 331.59 230.369 331.195 229.352 331.195C225.506 331.195 221.71 331.817 218.065 333.052L216.368 333.623C216.268 333.656 216.209 333.513 216.301 333.471L217.914 332.674C221.365 330.969 224.49 328.726 227.211 326.005C227.925 325.291 228.319 324.359 228.328 323.368C228.353 321.285 226.656 319.547 224.574 319.513C223.541 319.496 222.566 319.9 221.836 320.63C219.115 323.351 216.872 326.476 215.167 329.927L214.369 331.54C214.319 331.632 214.185 331.573 214.218 331.473L214.789 329.776C216.024 326.131 216.645 322.335 216.645 318.489C216.645 317.472 216.251 316.515 215.528 315.801C214.806 315.079 213.857 314.684 212.841 314.684C211.825 314.684 210.867 315.079 210.153 315.801C209.431 316.523 209.036 317.472 209.036 318.489C209.036 322.335 209.658 326.131 210.893 329.776L211.464 331.473C211.497 331.573 211.354 331.632 211.312 331.54L210.515 329.927C208.81 326.476 206.567 323.351 203.846 320.63C203.132 319.916 202.2 319.522 201.209 319.513C199.118 319.488 197.379 321.185 197.354 323.267C197.337 324.3 197.741 325.275 198.471 326.005C201.192 328.726 204.317 330.969 207.768 332.674L209.381 333.471C209.473 333.522 209.414 333.656 209.314 333.623L207.617 333.052C203.972 331.817 200.176 331.195 196.33 331.195C195.313 331.195 194.356 331.59 193.642 332.312C192.156 333.799 192.156 336.209 193.642 337.696C194.364 338.418 195.313 338.813 196.33 338.813C200.176 338.813 203.972 338.191 207.617 336.957L209.314 336.386C209.414 336.352 209.473 336.495 209.381 336.537L207.768 337.335C204.317 339.04 201.192 341.282 198.471 344.003C197.757 344.717 197.363 345.649 197.354 346.64C197.329 348.723 199.026 350.462 201.108 350.495C202.141 350.512 203.116 350.109 203.846 349.378C206.567 346.657 208.81 343.533 210.515 340.081L211.312 338.469C211.363 338.376 211.497 338.435 211.464 338.536L210.893 340.232C209.658 343.877 209.036 347.673 209.036 351.52C209.036 352.536 209.431 353.493 210.153 354.207C210.876 354.929 211.825 355.324 212.841 355.324C213.857 355.324 214.815 354.929 215.528 354.207C216.251 353.485 216.645 352.536 216.645 351.52C216.645 347.673 216.024 343.877 214.789 340.232L214.218 338.536C214.185 338.435 214.327 338.376 214.369 338.469L215.167 340.081C216.872 343.533 219.115 346.657 221.836 349.378C222.55 350.092 223.482 350.487 224.473 350.495C226.556 350.52 228.294 348.824 228.328 346.741C228.344 345.708 227.941 344.734 227.211 344.003C224.49 341.282 221.365 339.04 217.914 337.335L216.301 336.537C216.209 336.487 216.268 336.352 216.368 336.386L218.065 336.957C221.71 338.191 225.506 338.813 229.352 338.813C230.369 338.813 231.326 338.418 232.04 337.696C233.526 336.209 233.526 333.791 232.04 332.312Z" fill="#FFD9D1"/>
<path d="M279.946 314.875C279.51 314.438 278.936 314.2 278.321 314.2C275.996 314.2 273.7 314.575 271.496 315.322L270.471 315.667C270.41 315.688 270.374 315.601 270.43 315.576L271.405 315.093C273.492 314.063 275.381 312.707 277.026 311.061C277.458 310.63 277.697 310.066 277.702 309.467C277.717 308.207 276.691 307.156 275.432 307.136C274.807 307.126 274.218 307.37 273.776 307.811C272.131 309.457 270.775 311.346 269.744 313.433L269.262 314.408C269.231 314.464 269.15 314.428 269.171 314.367L269.516 313.341C270.262 311.138 270.638 308.842 270.638 306.516C270.638 305.902 270.399 305.323 269.963 304.891C269.526 304.455 268.952 304.216 268.338 304.216C267.723 304.216 267.144 304.455 266.713 304.891C266.276 305.328 266.037 305.902 266.037 306.516C266.037 308.842 266.413 311.138 267.16 313.341L267.505 314.367C267.525 314.428 267.439 314.464 267.413 314.408L266.931 313.433C265.9 311.346 264.544 309.457 262.899 307.811C262.467 307.38 261.904 307.141 261.305 307.136C260.04 307.121 258.989 308.147 258.974 309.406C258.963 310.03 259.207 310.62 259.649 311.061C261.294 312.707 263.183 314.063 265.271 315.093L266.246 315.576C266.301 315.606 266.266 315.688 266.205 315.667L265.179 315.322C262.975 314.575 260.68 314.2 258.354 314.2C257.74 314.2 257.161 314.438 256.729 314.875C255.83 315.774 255.83 317.231 256.729 318.13C257.166 318.567 257.74 318.806 258.354 318.806C260.68 318.806 262.975 318.43 265.179 317.683L266.205 317.338C266.266 317.318 266.301 317.404 266.246 317.429L265.271 317.912C263.183 318.943 261.294 320.298 259.649 321.944C259.217 322.375 258.979 322.939 258.974 323.538C258.958 324.798 259.984 325.849 261.244 325.869C261.868 325.879 262.457 325.636 262.899 325.194C264.544 323.548 265.9 321.659 266.931 319.572L267.413 318.597C267.444 318.541 267.525 318.577 267.505 318.638L267.16 319.664C266.413 321.868 266.037 324.163 266.037 326.489C266.037 327.103 266.276 327.682 266.713 328.114C267.149 328.55 267.723 328.789 268.338 328.789C268.952 328.789 269.531 328.55 269.963 328.114C270.399 327.677 270.638 327.103 270.638 326.489C270.638 324.163 270.262 321.868 269.516 319.664L269.171 318.638C269.15 318.577 269.237 318.541 269.262 318.597L269.744 319.572C270.775 321.659 272.131 323.548 273.776 325.194C274.208 325.625 274.772 325.864 275.371 325.869C276.63 325.884 277.681 324.859 277.702 323.599C277.712 322.975 277.468 322.386 277.026 321.944C275.381 320.298 273.492 318.943 271.405 317.912L270.43 317.429C270.374 317.399 270.41 317.318 270.471 317.338L271.496 317.683C273.7 318.43 275.996 318.806 278.321 318.806C278.936 318.806 279.515 318.567 279.946 318.13C280.845 317.231 280.845 315.769 279.946 314.875Z" fill="#FFD9D1"/>
<path d="M162.946 333.875C162.51 333.438 161.936 333.2 161.321 333.2C158.996 333.2 156.7 333.575 154.496 334.322L153.471 334.667C153.41 334.688 153.374 334.601 153.43 334.576L154.405 334.093C156.492 333.063 158.381 331.707 160.026 330.061C160.458 329.63 160.697 329.066 160.702 328.467C160.717 327.207 159.691 326.156 158.432 326.136C157.807 326.126 157.218 326.37 156.776 326.811C155.131 328.457 153.775 330.346 152.744 332.433L152.262 333.408C152.231 333.464 152.15 333.428 152.171 333.367L152.516 332.341C153.262 330.138 153.638 327.842 153.638 325.516C153.638 324.902 153.399 324.323 152.963 323.891C152.526 323.455 151.952 323.216 151.338 323.216C150.723 323.216 150.144 323.455 149.713 323.891C149.276 324.328 149.037 324.902 149.037 325.516C149.037 327.842 149.413 330.138 150.16 332.341L150.505 333.367C150.525 333.428 150.439 333.464 150.413 333.408L149.931 332.433C148.9 330.346 147.544 328.457 145.899 326.811C145.467 326.38 144.904 326.141 144.304 326.136C143.04 326.121 141.989 327.147 141.974 328.406C141.963 329.03 142.207 329.62 142.649 330.061C144.294 331.707 146.183 333.063 148.271 334.093L149.245 334.576C149.301 334.606 149.266 334.688 149.205 334.667L148.179 334.322C145.975 333.575 143.68 333.2 141.354 333.2C140.74 333.2 140.161 333.438 139.729 333.875C138.83 334.774 138.83 336.231 139.729 337.13C140.166 337.567 140.74 337.806 141.354 337.806C143.68 337.806 145.975 337.43 148.179 336.683L149.205 336.338C149.266 336.318 149.301 336.404 149.245 336.429L148.271 336.912C146.183 337.943 144.294 339.298 142.649 340.944C142.217 341.375 141.979 341.939 141.974 342.538C141.958 343.798 142.984 344.849 144.244 344.869C144.868 344.879 145.457 344.636 145.899 344.194C147.544 342.548 148.9 340.659 149.931 338.572L150.413 337.597C150.444 337.541 150.525 337.577 150.505 337.638L150.16 338.664C149.413 340.868 149.037 343.163 149.037 345.489C149.037 346.103 149.276 346.682 149.713 347.114C150.149 347.55 150.723 347.789 151.338 347.789C151.952 347.789 152.531 347.55 152.963 347.114C153.399 346.677 153.638 346.103 153.638 345.489C153.638 343.163 153.262 340.868 152.516 338.664L152.171 337.638C152.15 337.577 152.237 337.541 152.262 337.597L152.744 338.572C153.775 340.659 155.131 342.548 156.776 344.194C157.208 344.625 157.772 344.864 158.371 344.869C159.63 344.884 160.681 343.859 160.702 342.599C160.712 341.975 160.468 341.386 160.026 340.944C158.381 339.298 156.492 337.943 154.405 336.912L153.43 336.429C153.374 336.399 153.41 336.318 153.471 336.338L154.496 336.683C156.7 337.43 158.996 337.806 161.321 337.806C161.936 337.806 162.515 337.567 162.946 337.13C163.845 336.231 163.845 334.769 162.946 333.875Z" fill="#FFD9D1"/>
</svg>
